Monoto-Extended.ufo
<glyph name="exclam" format="2">
  <advance width="720"/>
  <unicode hex="0021"/>
  <outline>
    <contour>
      <point x="323" y="205" type="line"/>
      <point x="403" y="205" type="line"/>
      <point x="419" y="714" type="line"/>
      <point x="307" y="714" type="line"/>
    </contour>
    <contour>
      <point x="362" y="-11" type="curve" smooth="yes"/>
      <point x="405" y="-11"/>
      <point x="431" y="10"/>
      <point x="431" y="59" type="curve" smooth="yes"/>
      <point x="431" y="109"/>
      <point x="405" y="127"/>
      <point x="362" y="127" type="curve" smooth="yes"/>
      <point x="321" y="127"/>
      <point x="294" y="108"/>
      <point x="294" y="59" type="curve" smooth="yes"/>
      <point x="294" y="10"/>
      <point x="321" y="-11"/>
    </contour>
  </outline>
</glyph>
<glyph name="quotedbl" format="2">
  <advance width="720"/>
  <unicode hex="0022"/>
  <outline>
    <contour>
      <point x="443" y="456" type="line"/>
      <point x="505" y="456" type="line"/>
      <point x="523" y="714" type="line"/>
      <point x="424" y="714" type="line"/>
    </contour>
    <contour>
      <point x="217" y="456" type="line"/>
      <point x="280" y="456" type="line"/>
      <point x="299" y="714" type="line"/>
      <point x="199" y="714" type="line"/>
    </contour>
  </outline>
</glyph>
<glyph name="numbersign" format="2">
  <advance width="720"/>
  <unicode hex="0023"/>
  <outline>
    <contour>
      <point x="111" y="0" type="line"/>
      <point x="183" y="0" type="line"/>
      <point x="229" y="210" type="line"/>
      <point x="402" y="210" type="line"/>
      <point x="354" y="0" type="line"/>
      <point x="428" y="0" type="line"/>
      <point x="476" y="210" type="line"/>
      <point x="642" y="210" type="line"/>
      <point x="642" y="280" type="line"/>
      <point x="487" y="280" type="line"/>
      <point x="525" y="437" type="line"/>
      <point x="683" y="437" type="line"/>
      <point x="683" y="506" type="line"/>
      <point x="537" y="506" type="line"/>
      <point x="582" y="714" type="line"/>
      <point x="510" y="714" type="line"/>
      <point x="465" y="506" type="line"/>
      <point x="292" y="506" type="line"/>
      <point x="337" y="714" type="line"/>
      <point x="263" y="714" type="line"/>
      <point x="218" y="506" type="line"/>
      <point x="52" y="506" type="line"/>
      <point x="52" y="437" type="line"/>
      <point x="206" y="437" type="line"/>
      <point x="167" y="280" type="line"/>
      <point x="10" y="280" type="line"/>
      <point x="10" y="210" type="line"/>
      <point x="156" y="210" type="line"/>
    </contour>
    <contour>
      <point x="241" y="280" type="line"/>
      <point x="279" y="437" type="line"/>
      <point x="451" y="437" type="line"/>
      <point x="413" y="280" type="line"/>
    </contour>
  </outline>
</glyph>
<glyph name="dollar" format="2">
  <advance width="720"/>
  <unicode hex="0024"/>
  <outline>
    <contour>
      <point x="327" y="-58" type="line"/>
      <point x="391" y="-58" type="line"/>
      <point x="391" y="38" type="line"/>
      <point x="542" y="53"/>
      <point x="637" y="120"/>
      <point x="637" y="213" type="curve" smooth="yes"/>
      <point x="637" y="317"/>
      <point x="547" y="356"/>
      <point x="391" y="396" type="curve"/>
      <point x="391" y="610" type="line"/>
      <point x="452" y="606"/>
      <point x="513" y="593"/>
      <point x="574" y="576" type="curve"/>
      <point x="602" y="651" type="line"/>
      <point x="537" y="671"/>
      <point x="469" y="685"/>
      <point x="391" y="688" type="curve"/>
      <point x="391" y="759" type="line"/>
      <point x="327" y="759" type="line"/>
      <point x="327" y="686" type="line"/>
      <point x="185" y="678"/>
      <point x="88" y="615"/>
      <point x="88" y="516" type="curve" smooth="yes"/>
      <point x="88" y="415"/>
      <point x="177" y="369"/>
      <point x="327" y="328" type="curve"/>
      <point x="327" y="112" type="line"/>
      <point x="242" y="114"/>
      <point x="156" y="132"/>
      <point x="98" y="155" type="curve"/>
      <point x="98" y="68" type="line"/>
      <point x="153" y="48"/>
      <point x="233" y="35"/>
      <point x="327" y="34" type="curve"/>
    </contour>
    <contour>
      <point x="391" y="117" type="curve"/>
      <point x="391" y="307" type="line"/>
      <point x="500" y="285"/>
      <point x="550" y="262"/>
      <point x="550" y="212" type="curve" smooth="yes"/>
      <point x="550" y="162"/>
      <point x="492" y="127"/>
    </contour>
    <contour>
      <point x="327" y="418" type="line"/>
      <point x="229" y="441"/>
      <point x="175" y="465"/>
      <point x="175" y="516" type="curve" smooth="yes"/>
      <point x="175" y="567"/>
      <point x="233" y="602"/>
      <point x="327" y="608" type="curve"/>
    </contour>
  </outline>
</glyph>
<glyph name="percent" format="2">
  <advance width="720"/>
  <unicode hex="0025"/>
  <outline>
    <contour>
      <point x="73" y="43" type="line"/>
      <point x="157" y="43" type="line"/>
      <point x="643" y="671" type="line"/>
      <point x="559" y="671" type="line"/>
    </contour>
    <contour>
      <point x="559" y="-9" type="curve" smooth="yes"/>
      <point x="676" y="-9"/>
      <point x="744" y="53"/>
      <point x="744" y="161" type="curve" smooth="yes"/>
      <point x="744" y="269"/>
      <point x="673" y="330"/>
      <point x="560" y="330" type="curve" smooth="yes"/>
      <point x="441" y="330"/>
      <point x="373" y="269"/>
      <point x="373" y="161" type="curve" smooth="yes"/>
      <point x="373" y="53"/>
      <point x="445" y="-9"/>
    </contour>
    <contour>
      <point x="560" y="51" type="curve" smooth="yes"/>
      <point x="486" y="51"/>
      <point x="451" y="85"/>
      <point x="451" y="161" type="curve" smooth="yes"/>
      <point x="451" y="238"/>
      <point x="486" y="269"/>
      <point x="560" y="269" type="curve" smooth="yes"/>
      <point x="631" y="269"/>
      <point x="665" y="238"/>
      <point x="665" y="161" type="curve" smooth="yes"/>
      <point x="665" y="85"/>
      <point x="631" y="51"/>
    </contour>
    <contour>
      <point x="163" y="383" type="curve" smooth="yes"/>
      <point x="280" y="383"/>
      <point x="349" y="445"/>
      <point x="349" y="553" type="curve" smooth="yes"/>
      <point x="349" y="661"/>
      <point x="277" y="722"/>
      <point x="164" y="722" type="curve" smooth="yes"/>
      <point x="45" y="722"/>
      <point x="-22" y="661"/>
      <point x="-22" y="553" type="curve" smooth="yes"/>
      <point x="-22" y="445"/>
      <point x="49" y="383"/>
    </contour>
    <contour>
      <point x="164" y="443" type="curve" smooth="yes"/>
      <point x="90" y="443"/>
      <point x="56" y="477"/>
      <point x="56" y="553" type="curve" smooth="yes"/>
      <point x="56" y="630"/>
      <point x="90" y="662"/>
      <point x="164" y="662" type="curve" smooth="yes"/>
      <point x="235" y="662"/>
      <point x="270" y="630"/>
      <point x="270" y="553" type="curve" smooth="yes"/>
      <point x="270" y="477"/>
      <point x="235" y="443"/>
    </contour>
  </outline>
</glyph>
<glyph name="ampersand" format="2">
  <advance width="720"/>
  <unicode hex="0026"/>
  <outline>
    <contour>
      <point x="285" y="-10" type="curve" smooth="yes"/>
      <point x="511" y="-10"/>
      <point x="648" y="170"/>
      <point x="679" y="350" type="curve"/>
      <point x="593" y="350" type="line"/>
      <point x="575" y="236"/>
      <point x="464" y="69"/>
      <point x="293" y="69" type="curve" smooth="yes"/>
      <point x="197" y="69"/>
      <point x="138" y="115"/>
      <point x="138" y="178" type="curve" smooth="yes"/>
      <point x="138" y="258"/>
      <point x="221" y="309"/>
      <point x="305" y="358" type="curve" smooth="yes"/>
      <point x="396" y="410"/>
      <point x="492" y="478"/>
      <point x="492" y="578" type="curve" smooth="yes"/>
      <point x="492" y="665"/>
      <point x="423" y="725"/>
      <point x="312" y="725" type="curve" smooth="yes"/>
      <point x="200" y="725"/>
      <point x="129" y="665"/>
      <point x="129" y="577" type="curve" smooth="yes"/>
      <point x="129" y="497"/>
      <point x="184" y="423"/>
      <point x="246" y="359" type="curve" smooth="yes"/>
      <point x="608" y="0" type="line"/>
      <point x="715" y="0" type="line"/>
      <point x="303" y="417" type="line" smooth="yes"/>
      <point x="259" y="462"/>
      <point x="213" y="521"/>
      <point x="213" y="576" type="curve" smooth="yes"/>
      <point x="213" y="625"/>
      <point x="250" y="654"/>
      <point x="312" y="654" type="curve" smooth="yes"/>
      <point x="372" y="654"/>
      <point x="410" y="627"/>
      <point x="410" y="580" type="curve" smooth="yes"/>
      <point x="410" y="498"/>
      <point x="317" y="444"/>
      <point x="254" y="411" type="curve" smooth="yes"/>
      <point x="146" y="354"/>
      <point x="49" y="286"/>
      <point x="49" y="174" type="curve" smooth="yes"/>
      <point x="49" y="71"/>
      <point x="134" y="-10"/>
    </contour>
  </outline>
</glyph>
<glyph name="parenleft" format="2">
  <advance width="720"/>
  <unicode hex="0028"/>
  <outline>
    <contour>
      <point x="431" y="-161" type="curve"/>
      <point x="517" y="-161" type="line"/>
      <point x="394" y="-36"/>
      <point x="332" y="118"/>
      <point x="332" y="273" type="curve" smooth="yes"/>
      <point x="332" y="432"/>
      <point x="392" y="587"/>
      <point x="518" y="714" type="curve"/>
      <point x="431" y="714" type="line"/>
      <point x="305" y="594"/>
      <point x="240" y="438"/>
      <point x="240" y="272" type="curve" smooth="yes"/>
      <point x="240" y="109"/>
      <point x="305" y="-45"/>
    </contour>
  </outline>
</glyph>
<glyph name="asterisk" format="2">
  <advance width="720"/>
  <unicode hex="002A"/>
  <outline>
    <contour>
      <point x="488" y="356" type="line"/>
      <point x="565" y="403" type="line"/>
      <point x="423" y="530" type="line"/>
      <point x="639" y="548" type="line"/>
      <point x="622" y="631" type="line"/>
      <point x="400" y="587" type="line"/>
      <point x="414" y="751" type="line"/>
      <point x="327" y="751" type="line"/>
      <point x="342" y="587" type="line"/>
      <point x="122" y="628" type="line"/>
      <point x="104" y="549" type="line"/>
      <point x="320" y="531" type="line"/>
      <point x="180" y="404" type="line"/>
      <point x="255" y="357" type="line"/>
      <point x="371" y="502" type="line"/>
    </contour>
  </outline>
</glyph>
<glyph name="plus" format="2">
  <advance width="720"/>
  <unicode hex="002B"/>
  <outline>
    <contour>
      <point x="323" y="120" type="line"/>
      <point x="400" y="120" type="line"/>
      <point x="400" y="316" type="line"/>
      <point x="647" y="316" type="line"/>
      <point x="647" y="389" type="line"/>
      <point x="400" y="389" type="line"/>
      <point x="400" y="587" type="line"/>
      <point x="323" y="587" type="line"/>
      <point x="323" y="389" type="line"/>
      <point x="75" y="389" type="line"/>
      <point x="75" y="316" type="line"/>
      <point x="323" y="316" type="line"/>
    </contour>
  </outline>
</glyph>
<glyph name="comma" format="2">
  <advance width="720"/>
  <unicode hex="002C"/>
  <outline>
    <contour>
      <point x="258" y="-139" type="curve"/>
      <point x="333" y="-139" type="line"/>
      <point x="376" y="-61"/>
      <point x="417" y="37"/>
      <point x="441" y="115" type="curve"/>
      <point x="433" y="127" type="line"/>
      <point x="328" y="127" type="line"/>
      <point x="315" y="51"/>
      <point x="289" y="-53"/>
    </contour>
  </outline>
</glyph>
<glyph name="hyphen" format="2">
  <advance width="720"/>
  <unicode hex="002D"/>
  <outline>
    <contour>
      <point x="169" y="228" type="line"/>
      <point x="553" y="228" type="line"/>
      <point x="553" y="312" type="line"/>
      <point x="169" y="312" type="line"/>
    </contour>
  </outline>
</glyph>
<glyph name="period" format="2">
  <advance width="720"/>
  <unicode hex="002E"/>
  <outline>
    <contour>
      <point x="361" y="-11" type="curve" smooth="yes"/>
      <point x="403" y="-11"/>
      <point x="430" y="10"/>
      <point x="430" y="59" type="curve" smooth="yes"/>
      <point x="430" y="109"/>
      <point x="403" y="127"/>
      <point x="361" y="127" type="curve" smooth="yes"/>
      <point x="319" y="127"/>
      <point x="293" y="108"/>
      <point x="293" y="59" type="curve" smooth="yes"/>
      <point x="293" y="11"/>
      <point x="319" y="-11"/>
    </contour>
  </outline>
</glyph>
<glyph name="slash" format="2">
  <advance width="720"/>
  <unicode hex="002F"/>
  <outline>
    <contour>
      <point x="122" y="-2" type="line"/>
      <point x="211" y="-2" type="line"/>
      <point x="567" y="716" type="line"/>
      <point x="479" y="716" type="line"/>
    </contour>
  </outline>
</glyph>
<glyph name="zero" format="2">
  <advance width="720"/>
  <unicode hex="0030"/>
  <outline>
    <contour>
      <point x="361" y="-10" type="curve" smooth="yes"/>
      <point x="575" y="-10"/>
      <point x="661" y="128"/>
      <point x="661" y="358" type="curve" smooth="yes"/>
      <point x="661" y="590"/>
      <point x="578" y="724"/>
      <point x="361" y="724" type="curve" smooth="yes"/>
      <point x="141" y="724"/>
      <point x="61" y="590"/>
      <point x="61" y="358" type="curve" smooth="yes"/>
      <point x="61" y="127"/>
      <point x="155" y="-10"/>
    </contour>
    <contour>
      <point x="195" y="100" type="line"/>
      <point x="572" y="559" type="line"/>
      <point x="518" y="623" type="line"/>
      <point x="139" y="150" type="line"/>
    </contour>
    <contour>
      <point x="361" y="72" type="curve" smooth="yes"/>
      <point x="213" y="72"/>
      <point x="151" y="175"/>
      <point x="151" y="358" type="curve" smooth="yes"/>
      <point x="151" y="550"/>
      <point x="208" y="643"/>
      <point x="361" y="643" type="curve" smooth="yes"/>
      <point x="520" y="643"/>
      <point x="572" y="544"/>
      <point x="572" y="358" type="curve" smooth="yes"/>
      <point x="572" y="164"/>
      <point x="509" y="72"/>
    </contour>
  </outline>
</glyph>
<glyph name="one" format="2">
  <advance width="720"/>
  <unicode hex="0031"/>
  <outline>
    <contour>
      <point x="357" y="0" type="line"/>
      <point x="448" y="0" type="line"/>
      <point x="448" y="714" type="line"/>
      <point x="371" y="714" type="line"/>
      <point x="114" y="610" type="line"/>
      <point x="158" y="539" type="line"/>
      <point x="282" y="583" type="line" smooth="yes"/>
      <point x="320" y="597"/>
      <point x="335" y="604"/>
      <point x="361" y="618" type="curve"/>
      <point x="359" y="574"/>
      <point x="357" y="497"/>
      <point x="357" y="442" type="curve" smooth="yes"/>
    </contour>
    <contour>
      <point x="173" y="0" type="line"/>
      <point x="628" y="0" type="line"/>
      <point x="628" y="64" type="line"/>
      <point x="449" y="74" type="line"/>
      <point x="358" y="74" type="line"/>
      <point x="173" y="64" type="line"/>
    </contour>
  </outline>
</glyph>
<glyph name="two" format="2">
  <advance width="720"/>
  <unicode hex="0032"/>
  <outline>
    <contour>
      <point x="83" y="0" type="line"/>
      <point x="662" y="0" type="line"/>
      <point x="662" y="84" type="line"/>
      <point x="209" y="84" type="line"/>
      <point x="209" y="88" type="line"/>
      <point x="418" y="236" type="line" smooth="yes"/>
      <point x="549" y="333"/>
      <point x="620" y="420"/>
      <point x="620" y="529" type="curve" smooth="yes"/>
      <point x="620" y="653"/>
      <point x="516" y="724"/>
      <point x="357" y="724" type="curve" smooth="yes"/>
      <point x="251" y="724"/>
      <point x="161" y="688"/>
      <point x="86" y="639" type="curve"/>
      <point x="137" y="575" type="line"/>
      <point x="200" y="613"/>
      <point x="274" y="642"/>
      <point x="352" y="642" type="curve" smooth="yes"/>
      <point x="456" y="642"/>
      <point x="525" y="606"/>
      <point x="525" y="524" type="curve" smooth="yes"/>
      <point x="525" y="432"/>
      <point x="458" y="359"/>
      <point x="333" y="265" type="curve" smooth="yes"/>
      <point x="83" y="78" type="line"/>
    </contour>
  </outline>
</glyph>
<glyph name="three" format="2">
  <advance width="720"/>
  <unicode hex="0033"/>
  <outline>
    <contour>
      <point x="319" y="-10" type="curve" smooth="yes"/>
      <point x="540" y="-10"/>
      <point x="649" y="78"/>
      <point x="649" y="200" type="curve" smooth="yes"/>
      <point x="649" y="300"/>
      <point x="573" y="358"/>
      <point x="434" y="373" type="curve"/>
      <point x="434" y="376" type="line"/>
      <point x="545" y="391"/>
      <point x="621" y="453"/>
      <point x="621" y="546" type="curve" smooth="yes"/>
      <point x="621" y="651"/>
      <point x="525" y="724"/>
      <point x="358" y="724" type="curve" smooth="yes"/>
      <point x="248" y="724"/>
      <point x="158" y="694"/>
      <point x="87" y="654" type="curve"/>
      <point x="133" y="590" type="line"/>
      <point x="198" y="618"/>
      <point x="270" y="643"/>
      <point x="353" y="643" type="curve" smooth="yes"/>
      <point x="463" y="643"/>
      <point x="526" y="604"/>
      <point x="526" y="538" type="curve" smooth="yes"/>
      <point x="526" y="462"/>
      <point x="439" y="409"/>
      <point x="306" y="409" type="curve" smooth="yes"/>
      <point x="212" y="409" type="line"/>
      <point x="212" y="328" type="line"/>
      <point x="306" y="328" type="line" smooth="yes"/>
      <point x="461" y="328"/>
      <point x="553" y="293"/>
      <point x="553" y="204" type="curve" smooth="yes"/>
      <point x="553" y="124"/>
      <point x="478" y="71"/>
      <point x="325" y="71" type="curve" smooth="yes"/>
      <point x="241" y="71"/>
      <point x="151" y="87"/>
      <point x="80" y="117" type="curve"/>
      <point x="80" y="29" type="line"/>
      <point x="152" y="-1"/>
      <point x="239" y="-10"/>
    </contour>
  </outline>
</glyph>
<glyph name="four" format="2">
  <advance width="720"/>
  <unicode hex="0034"/>
  <outline>
    <contour>
      <point x="450" y="0" type="line"/>
      <point x="542" y="0" type="line"/>
      <point x="542" y="160" type="line"/>
      <point x="678" y="160" type="line"/>
      <point x="678" y="240" type="line"/>
      <point x="542" y="240" type="line"/>
      <point x="542" y="718" type="line"/>
      <point x="435" y="718" type="line"/>
      <point x="44" y="237" type="line"/>
      <point x="44" y="160" type="line"/>
      <point x="450" y="160" type="line"/>
    </contour>
    <contour>
      <point x="138" y="240" type="line"/>
      <point x="387" y="520" type="line" smooth="yes"/>
      <point x="409" y="547"/>
      <point x="433" y="588"/>
      <point x="452" y="617" type="curve"/>
      <point x="456" y="617" type="line"/>
      <point x="453" y="572"/>
      <point x="450" y="482"/>
      <point x="450" y="411" type="curve" smooth="yes"/>
      <point x="450" y="240" type="line"/>
    </contour>
  </outline>
</glyph>
<glyph name="five" format="2">
  <advance width="720"/>
  <unicode hex="0035"/>
  <outline>
    <contour>
      <point x="313" y="-10" type="curve" smooth="yes"/>
      <point x="519" y="-10"/>
      <point x="636" y="80"/>
      <point x="636" y="224" type="curve" smooth="yes"/>
      <point x="636" y="366"/>
      <point x="519" y="439"/>
      <point x="348" y="439" type="curve" smooth="yes"/>
      <point x="294" y="439"/>
      <point x="235" y="435"/>
      <point x="203" y="429" type="curve"/>
      <point x="230" y="630" type="line"/>
      <point x="585" y="630" type="line"/>
      <point x="585" y="714" type="line"/>
      <point x="147" y="714" type="line"/>
      <point x="112" y="376" type="line"/>
      <point x="158" y="347" type="line"/>
      <point x="206" y="355"/>
      <point x="267" y="363"/>
      <point x="318" y="363" type="curve" smooth="yes"/>
      <point x="461" y="363"/>
      <point x="539" y="312"/>
      <point x="539" y="216" type="curve" smooth="yes"/>
      <point x="539" y="117"/>
      <point x="455" y="72"/>
      <point x="309" y="72" type="curve" smooth="yes"/>
      <point x="229" y="72"/>
      <point x="148" y="88"/>
      <point x="88" y="118" type="curve"/>
      <point x="88" y="29" type="line"/>
      <point x="144" y="3"/>
      <point x="230" y="-10"/>
    </contour>
  </outline>
</glyph>
<glyph name="six" format="2">
  <advance width="720"/>
  <unicode hex="0036"/>
  <outline>
    <contour>
      <point x="373" y="-10" type="curve" smooth="yes"/>
      <point x="548" y="-10"/>
      <point x="655" y="81"/>
      <point x="655" y="230" type="curve" smooth="yes"/>
      <point x="655" y="371"/>
      <point x="553" y="452"/>
      <point x="390" y="452" type="curve" smooth="yes"/>
      <point x="272" y="452"/>
      <point x="201" y="415"/>
      <point x="166" y="365" type="curve"/>
      <point x="160" y="365" type="line"/>
      <point x="166" y="519"/>
      <point x="259" y="645"/>
      <point x="469" y="645" type="curve" smooth="yes"/>
      <point x="508" y="645"/>
      <point x="551" y="642"/>
      <point x="582" y="634" type="curve"/>
      <point x="582" y="715" type="line"/>
      <point x="551" y="721"/>
      <point x="503" y="724"/>
      <point x="466" y="724" type="curve" smooth="yes"/>
      <point x="177" y="724"/>
      <point x="68" y="517"/>
      <point x="68" y="309" type="curve" smooth="yes"/>
      <point x="68" y="92"/>
      <point x="174" y="-10"/>
    </contour>
    <contour>
      <point x="373" y="69" type="curve" smooth="yes"/>
      <point x="217" y="69"/>
      <point x="165" y="161"/>
      <point x="165" y="244" type="curve" smooth="yes"/>
      <point x="165" y="312"/>
      <point x="249" y="378"/>
      <point x="375" y="378" type="curve" smooth="yes"/>
      <point x="501" y="378"/>
      <point x="563" y="325"/>
      <point x="563" y="229" type="curve" smooth="yes"/>
      <point x="563" y="117"/>
      <point x="489" y="69"/>
    </contour>
  </outline>
</glyph>
<glyph name="seven" format="2">
  <advance width="720"/>
  <unicode hex="0037"/>
  <outline>
    <contour>
      <point x="210" y="0" type="line"/>
      <point x="310" y="0" type="line"/>
      <point x="654" y="640" type="line"/>
      <point x="654" y="714" type="line"/>
      <point x="84" y="714" type="line"/>
      <point x="84" y="630" type="line"/>
      <point x="556" y="630" type="line"/>
    </contour>
  </outline>
</glyph>
<glyph name="eight" format="2">
  <advance width="720"/>
  <unicode hex="0038"/>
  <outline>
    <contour>
      <point x="347" y="-10" type="curve" smooth="yes"/>
      <point x="521" y="-10"/>
      <point x="641" y="68"/>
      <point x="641" y="182" type="curve" smooth="yes"/>
      <point x="641" y="279"/>
      <point x="557" y="334"/>
      <point x="431" y="378" type="curve"/>
      <point x="541" y="414"/>
      <point x="611" y="466"/>
      <point x="611" y="553" type="curve" smooth="yes"/>
      <point x="611" y="667"/>
      <point x="499" y="724"/>
      <point x="356" y="724" type="curve" smooth="yes"/>
      <point x="210" y="724"/>
      <point x="95" y="667"/>
      <point x="95" y="553" type="curve" smooth="yes"/>
      <point x="95" y="469"/>
      <point x="170" y="413"/>
      <point x="264" y="374" type="curve"/>
      <point x="148" y="336"/>
      <point x="66" y="280"/>
      <point x="66" y="181" type="curve" smooth="yes"/>
      <point x="66" y="60"/>
      <point x="179" y="-10"/>
    </contour>
    <contour>
      <point x="349" y="67" type="curve" smooth="yes"/>
      <point x="225" y="67"/>
      <point x="158" y="114"/>
      <point x="158" y="182" type="curve" smooth="yes"/>
      <point x="158" y="254"/>
      <point x="233" y="301"/>
      <point x="342" y="337" type="curve"/>
      <point x="490" y="289"/>
      <point x="549" y="254"/>
      <point x="549" y="186" type="curve" smooth="yes"/>
      <point x="549" y="115"/>
      <point x="473" y="67"/>
    </contour>
    <contour>
      <point x="354" y="417" type="curve"/>
      <point x="260" y="445"/>
      <point x="187" y="476"/>
      <point x="187" y="548" type="curve" smooth="yes"/>
      <point x="187" y="613"/>
      <point x="254" y="646"/>
      <point x="355" y="646" type="curve" smooth="yes"/>
      <point x="456" y="646"/>
      <point x="519" y="613"/>
      <point x="519" y="548" type="curve" smooth="yes"/>
      <point x="519" y="482"/>
      <point x="457" y="445"/>
    </contour>
  </outline>
</glyph>
<glyph name="nine" format="2">
  <advance width="720"/>
  <unicode hex="0039"/>
  <outline>
    <contour>
      <point x="257" y="-10" type="curve" smooth="yes"/>
      <point x="545" y="-10"/>
      <point x="652" y="208"/>
      <point x="652" y="397" type="curve" smooth="yes"/>
      <point x="652" y="624"/>
      <point x="544" y="724"/>
      <point x="349" y="724" type="curve" smooth="yes"/>
      <point x="172" y="724"/>
      <point x="65" y="633"/>
      <point x="65" y="486" type="curve" smooth="yes"/>
      <point x="65" y="342"/>
      <point x="164" y="262"/>
      <point x="329" y="262" type="curve" smooth="yes"/>
      <point x="445" y="262"/>
      <point x="518" y="299"/>
      <point x="555" y="349" type="curve"/>
      <point x="560" y="349" type="line"/>
      <point x="552" y="196"/>
      <point x="456" y="69"/>
      <point x="252" y="69" type="curve"/>
      <point x="208" y="69"/>
      <point x="164" y="72"/>
      <point x="134" y="81" type="curve"/>
      <point x="134" y="-1" type="line"/>
      <point x="165" y="-7"/>
      <point x="212" y="-10"/>
    </contour>
    <contour>
      <point x="342" y="336" type="curve" smooth="yes"/>
      <point x="223" y="336"/>
      <point x="157" y="385"/>
      <point x="157" y="487" type="curve" smooth="yes"/>
      <point x="157" y="593"/>
      <point x="229" y="645"/>
      <point x="349" y="645" type="curve" smooth="yes"/>
      <point x="503" y="645"/>
      <point x="555" y="546"/>
      <point x="555" y="478" type="curve" smooth="yes"/>
      <point x="555" y="392"/>
      <point x="466" y="336"/>
    </contour>
  </outline>
</glyph>
<glyph name="colon" format="2">
  <advance width="720"/>
  <unicode hex="003A"/>
  <outline>
    <contour>
      <point x="362" y="409" type="curve" smooth="yes"/>
      <point x="403" y="409"/>
      <point x="429" y="429"/>
      <point x="429" y="478" type="curve" smooth="yes"/>
      <point x="429" y="527"/>
      <point x="404" y="546"/>
      <point x="362" y="546" type="curve" smooth="yes"/>
      <point x="319" y="546"/>
      <point x="293" y="527"/>
      <point x="293" y="478" type="curve" smooth="yes"/>
      <point x="293" y="430"/>
      <point x="319" y="409"/>
    </contour>
    <contour>
      <point x="361" y="-11" type="curve" smooth="yes"/>
      <point x="403" y="-11"/>
      <point x="429" y="10"/>
      <point x="429" y="59" type="curve" smooth="yes"/>
      <point x="429" y="109"/>
      <point x="403" y="127"/>
      <point x="361" y="127" type="curve" smooth="yes"/>
      <point x="319" y="127"/>
      <point x="293" y="108"/>
      <point x="293" y="59" type="curve" smooth="yes"/>
      <point x="293" y="11"/>
      <point x="319" y="-11"/>
    </contour>
  </outline>
</glyph>
<glyph name="semicolon" format="2">
  <advance width="720"/>
  <unicode hex="003B"/>
  <outline>
    <contour>
      <point x="252" y="-139" type="curve"/>
      <point x="327" y="-139" type="line"/>
      <point x="370" y="-61"/>
      <point x="411" y="37"/>
      <point x="435" y="115" type="curve"/>
      <point x="427" y="127" type="line"/>
      <point x="322" y="127" type="line"/>
      <point x="308" y="51"/>
      <point x="283" y="-53"/>
    </contour>
    <contour>
      <point x="378" y="409" type="curve" smooth="yes"/>
      <point x="419" y="409"/>
      <point x="445" y="429"/>
      <point x="445" y="478" type="curve" smooth="yes"/>
      <point x="445" y="528"/>
      <point x="419" y="546"/>
      <point x="378" y="546" type="curve" smooth="yes"/>
      <point x="337" y="546"/>
      <point x="311" y="528"/>
      <point x="311" y="478" type="curve" smooth="yes"/>
      <point x="311" y="430"/>
      <point x="337" y="409"/>
    </contour>
  </outline>
</glyph>
<glyph name="equal" format="2">
  <advance width="720"/>
  <unicode hex="003D"/>
  <outline>
    <contour>
      <point x="65" y="408" type="line"/>
      <point x="656" y="408" type="line"/>
      <point x="656" y="491" type="line"/>
      <point x="65" y="491" type="line"/>
    </contour>
    <contour>
      <point x="65" y="212" type="line"/>
      <point x="656" y="212" type="line"/>
      <point x="656" y="295" type="line"/>
      <point x="65" y="295" type="line"/>
    </contour>
  </outline>
</glyph>
<glyph name="greater" format="2">
  <advance width="720"/>
  <unicode hex="003E"/>
  <outline>
    <contour>
      <point x="81" y="119" type="line"/>
      <point x="641" y="325" type="line"/>
      <point x="641" y="376" type="line"/>
      <point x="81" y="601" type="line"/>
      <point x="81" y="519" type="line"/>
      <point x="539" y="353" type="line"/>
      <point x="81" y="201" type="line"/>
    </contour>
  </outline>
</glyph>
<glyph name="question" format="2">
  <advance width="720"/>
  <unicode hex="003F"/>
  <outline>
    <contour>
      <point x="272" y="205" type="line"/>
      <point x="353" y="205" type="line"/>
      <point x="353" y="217" type="line" smooth="yes"/>
      <point x="353" y="272"/>
      <point x="373" y="297"/>
      <point x="458" y="351" type="curve" smooth="yes"/>
      <point x="555" y="414"/>
      <point x="610" y="458"/>
      <point x="610" y="551" type="curve" smooth="yes"/>
      <point x="610" y="657"/>
      <point x="510" y="724"/>
      <point x="348" y="724" type="curve" smooth="yes"/>
      <point x="253" y="724"/>
      <point x="184" y="702"/>
      <point x="112" y="676" type="curve"/>
      <point x="146" y="600" type="line"/>
      <point x="211" y="625"/>
      <point x="272" y="643"/>
      <point x="349" y="643" type="curve" smooth="yes"/>
      <point x="454" y="643"/>
      <point x="519" y="603"/>
      <point x="519" y="546" type="curve" smooth="yes"/>
      <point x="519" y="478"/>
      <point x="478" y="447"/>
      <point x="389" y="395" type="curve" smooth="yes"/>
      <point x="297" y="343"/>
      <point x="272" y="300"/>
      <point x="272" y="227" type="curve" smooth="yes"/>
    </contour>
    <contour>
      <point x="316" y="-11" type="curve" smooth="yes"/>
      <point x="359" y="-11"/>
      <point x="385" y="10"/>
      <point x="385" y="59" type="curve" smooth="yes"/>
      <point x="385" y="109"/>
      <point x="359" y="127"/>
      <point x="316" y="127" type="curve" smooth="yes"/>
      <point x="274" y="127"/>
      <point x="249" y="108"/>
      <point x="249" y="59" type="curve" smooth="yes"/>
      <point x="249" y="10"/>
      <point x="275" y="-11"/>
    </contour>
  </outline>
</glyph>
<glyph name="at" format="2">
  <advance width="720"/>
  <unicode hex="0040"/>
  <outline>
    <contour>
      <point x="392" y="-89" type="curve" smooth="yes"/>
      <point x="477" y="-89"/>
      <point x="549" y="-74"/>
      <point x="613" y="-49" type="curve"/>
      <point x="613" y="15" type="line"/>
      <point x="546" y="-8"/>
      <point x="473" y="-23"/>
      <point x="393" y="-23" type="curve" smooth="yes"/>
      <point x="178" y="-23"/>
      <point x="65" y="98"/>
      <point x="65" y="297" type="curve" smooth="yes"/>
      <point x="65" y="510"/>
      <point x="185" y="648"/>
      <point x="385" y="648" type="curve" smooth="yes"/>
      <point x="557" y="648"/>
      <point x="659" y="541"/>
      <point x="659" y="358" type="curve" smooth="yes"/>
      <point x="659" y="251"/>
      <point x="635" y="171"/>
      <point x="578" y="171" type="curve" smooth="yes"/>
      <point x="542" y="171"/>
      <point x="523" y="191"/>
      <point x="523" y="257" type="curve" smooth="yes"/>
      <point x="523" y="267"/>
      <point x="525" y="282"/>
      <point x="526" y="294" type="curve" smooth="yes"/>
      <point x="539" y="496" type="line"/>
      <point x="503" y="508"/>
      <point x="446" y="520"/>
      <point x="394" y="520" type="curve" smooth="yes"/>
      <point x="258" y="520"/>
      <point x="174" y="428"/>
      <point x="174" y="296" type="curve" smooth="yes"/>
      <point x="174" y="183"/>
      <point x="231" y="108"/>
      <point x="331" y="108" type="curve" smooth="yes"/>
      <point x="397" y="108"/>
      <point x="447" y="143"/>
      <point x="472" y="193" type="curve"/>
      <point x="475" y="192" type="line"/>
      <point x="483" y="146"/>
      <point x="520" y="108"/>
      <point x="577" y="108" type="curve" smooth="yes"/>
      <point x="685" y="108"/>
      <point x="729" y="235"/>
      <point x="729" y="358" type="curve" smooth="yes"/>
      <point x="729" y="577"/>
      <point x="598" y="714"/>
      <point x="385" y="714" type="curve" smooth="yes"/>
      <point x="141" y="714"/>
      <point x="-7" y="543"/>
      <point x="-7" y="293" type="curve" smooth="yes"/>
      <point x="-7" y="59"/>
      <point x="134" y="-89"/>
    </contour>
    <contour>
      <point x="345" y="171" type="curve" smooth="yes"/>
      <point x="286" y="171"/>
      <point x="254" y="209"/>
      <point x="254" y="294" type="curve" smooth="yes"/>
      <point x="254" y="381"/>
      <point x="300" y="457"/>
      <point x="392" y="457" type="curve" smooth="yes"/>
      <point x="415" y="457"/>
      <point x="439" y="454"/>
      <point x="459" y="448" type="curve"/>
      <point x="449" y="324" type="line" smooth="yes"/>
      <point x="442" y="229"/>
      <point x="410" y="171"/>
    </contour>
  </outline>
</glyph>
<glyph name="A" format="2">
  <advance width="720"/>
  <unicode hex="0041"/>
  <anchor x="360" y="0" name="bottom"/>
  <anchor x="667" y="10" name="ogonek"/>
  <anchor x="360" y="714" name="top"/>
  <anchor x="718" y="714" name="topright"/>
  <outline>
    <contour>
      <point x="3" y="0" type="line"/>
      <point x="99" y="0" type="line"/>
      <point x="321" y="513" type="line" smooth="yes"/>
      <point x="332" y="540"/>
      <point x="349" y="589"/>
      <point x="360" y="627" type="curve"/>
      <point x="371" y="589"/>
      <point x="388" y="541"/>
      <point x="400" y="513" type="curve" smooth="yes"/>
      <point x="622" y="0" type="line"/>
      <point x="718" y="0" type="line"/>
      <point x="412" y="716" type="line"/>
      <point x="307" y="716" type="line"/>
    </contour>
    <contour>
      <point x="169" y="216" type="line"/>
      <point x="550" y="216" type="line"/>
      <point x="531" y="299" type="line"/>
      <point x="191" y="299" type="line"/>
    </contour>
  </outline>
</glyph>
<glyph name="B" format="2">
  <advance width="720"/>
  <unicode hex="0042"/>
  <anchor x="361" y="0" name="bottom"/>
  <anchor x="361" y="714" name="top"/>
  <anchor x="718" y="714" name="topright"/>
  <outline>
    <contour>
      <point x="103" y="0" type="line"/>
      <point x="364" y="0" type="line" smooth="yes"/>
      <point x="550" y="0"/>
      <point x="673" y="77"/>
      <point x="673" y="206" type="curve" smooth="yes"/>
      <point x="673" y="316"/>
      <point x="602" y="359"/>
      <point x="479" y="374" type="curve"/>
      <point x="479" y="379" type="line"/>
      <point x="587" y="393"/>
      <point x="649" y="448"/>
      <point x="649" y="539" type="curve" smooth="yes"/>
      <point x="649" y="665"/>
      <point x="543" y="714"/>
      <point x="338" y="714" type="curve" smooth="yes"/>
      <point x="103" y="714" type="line"/>
    </contour>
    <contour>
      <point x="192" y="81" type="line"/>
      <point x="192" y="333" type="line"/>
      <point x="344" y="333" type="line" smooth="yes"/>
      <point x="505" y="333"/>
      <point x="578" y="285"/>
      <point x="578" y="208" type="curve" smooth="yes"/>
      <point x="578" y="132"/>
      <point x="506" y="81"/>
      <point x="350" y="81" type="curve" smooth="yes"/>
    </contour>
    <contour>
      <point x="192" y="413" type="line"/>
      <point x="192" y="633" type="line"/>
      <point x="328" y="633" type="line" smooth="yes"/>
      <point x="489" y="633"/>
      <point x="555" y="602"/>
      <point x="555" y="526" type="curve" smooth="yes"/>
      <point x="555" y="451"/>
      <point x="491" y="413"/>
      <point x="343" y="413" type="curve" smooth="yes"/>
    </contour>
  </outline>
</glyph>
<glyph name="C" format="2">
  <advance width="720"/>
  <unicode hex="0043"/>
  <anchor x="422" y="0" name="bottom"/>
  <anchor x="439" y="714" name="top"/>
  <anchor x="718" y="714" name="topright"/>
  <outline>
    <contour>
      <point x="442" y="-10" type="curve" smooth="yes"/>
      <point x="524" y="-10"/>
      <point x="591" y="-2"/>
      <point x="655" y="19" type="curve"/>
      <point x="655" y="106" type="line"/>
      <point x="591" y="85"/>
      <point x="518" y="75"/>
      <point x="450" y="75" type="curve" smooth="yes"/>
      <point x="247" y="75"/>
      <point x="154" y="181"/>
      <point x="154" y="356" type="curve" smooth="yes"/>
      <point x="154" y="533"/>
      <point x="260" y="641"/>
      <point x="458" y="641" type="curve" smooth="yes"/>
      <point x="520" y="641"/>
      <point x="591" y="628"/>
      <point x="651" y="607" type="curve"/>
      <point x="685" y="684" type="line"/>
      <point x="616" y="710"/>
      <point x="539" y="725"/>
      <point x="457" y="725" type="curve" smooth="yes"/>
      <point x="202" y="725"/>
      <point x="59" y="579"/>
      <point x="59" y="357" type="curve" smooth="yes"/>
      <point x="59" y="137"/>
      <point x="182" y="-10"/>
    </contour>
  </outline>
</glyph>
<glyph name="D" format="2">
  <advance width="720"/>
  <unicode hex="0044"/>
  <anchor x="316" y="0" name="bottom"/>
  <anchor x="356" y="357" name="center"/>
  <anchor x="344" y="714" name="top"/>
  <anchor x="744" y="714" name="topright"/>
  <outline>
    <contour>
      <point x="73" y="0" type="line"/>
      <point x="275" y="0" type="line" smooth="yes"/>
      <point x="540" y="0"/>
      <point x="687" y="124"/>
      <point x="687" y="365" type="curve" smooth="yes"/>
      <point x="687" y="593"/>
      <point x="544" y="714"/>
      <point x="294" y="714" type="curve" smooth="yes"/>
      <point x="73" y="714" type="line"/>
    </contour>
    <contour>
      <point x="165" y="82" type="line"/>
      <point x="165" y="632" type="line"/>
      <point x="279" y="632" type="line" smooth="yes"/>
      <point x="488" y="632"/>
      <point x="591" y="550"/>
      <point x="591" y="362" type="curve" smooth="yes"/>
      <point x="591" y="178"/>
      <point x="486" y="82"/>
      <point x="264" y="82" type="curve" smooth="yes"/>
    </contour>
  </outline>
</glyph>
<glyph name="E" format="2">
  <advance width="720"/>
  <unicode hex="0045"/>
  <anchor x="369" y="0" name="bottom"/>
  <anchor x="564" y="10" name="ogonek"/>
  <anchor x="369" y="714" name="top"/>
  <anchor x="4" y="714" name="topleft"/>
  <anchor x="718" y="714" name="topright"/>
  <outline>
    <contour>
      <point x="103" y="0" type="line"/>
      <point x="638" y="0" type="line"/>
      <point x="638" y="84" type="line"/>
      <point x="196" y="84" type="line"/>
      <point x="196" y="330" type="line"/>
      <point x="613" y="330" type="line"/>
      <point x="613" y="413" type="line"/>
      <point x="196" y="413" type="line"/>
      <point x="196" y="630" type="line"/>
      <point x="638" y="630" type="line"/>
      <point x="638" y="714" type="line"/>
      <point x="103" y="714" type="line"/>
    </contour>
  </outline>
</glyph>
<glyph name="F" format="2">
  <advance width="720"/>
  <unicode hex="0046"/>
  <anchor x="379" y="0" name="bottom"/>
  <anchor x="383" y="714" name="top"/>
  <anchor x="718" y="714" name="topright"/>
  <outline>
    <contour>
      <point x="103" y="0" type="line"/>
      <point x="196" y="0" type="line"/>
      <point x="196" y="301" type="line"/>
      <point x="615" y="301" type="line"/>
      <point x="615" y="384" type="line"/>
      <point x="196" y="384" type="line"/>
      <point x="196" y="630" type="line"/>
      <point x="638" y="630" type="line"/>
      <point x="638" y="714" type="line"/>
      <point x="103" y="714" type="line"/>
    </contour>
  </outline>
</glyph>
<glyph name="G" format="2">
  <advance width="720"/>
  <unicode hex="0047"/>
  <anchor x="405" y="0" name="bottom"/>
  <anchor x="393" y="714" name="top"/>
  <anchor x="718" y="714" name="topright"/>
  <outline>
    <contour>
      <point x="406" y="-10" type="curve" smooth="yes"/>
      <point x="493" y="-10"/>
      <point x="577" y="6"/>
      <point x="648" y="26" type="curve"/>
      <point x="648" y="379" type="line"/>
      <point x="382" y="379" type="line"/>
      <point x="382" y="297" type="line"/>
      <point x="558" y="297" type="line"/>
      <point x="558" y="87" type="line"/>
      <point x="516" y="80"/>
      <point x="467" y="73"/>
      <point x="408" y="73" type="curve" smooth="yes"/>
      <point x="218" y="73"/>
      <point x="131" y="193"/>
      <point x="131" y="352" type="curve" smooth="yes"/>
      <point x="131" y="537"/>
      <point x="231" y="641"/>
      <point x="421" y="641" type="curve" smooth="yes"/>
      <point x="486" y="641"/>
      <point x="548" y="628"/>
      <point x="606" y="604" type="curve"/>
      <point x="641" y="682" type="line"/>
      <point x="575" y="710"/>
      <point x="499" y="725"/>
      <point x="419" y="725" type="curve" smooth="yes"/>
      <point x="168" y="725"/>
      <point x="35" y="582"/>
      <point x="35" y="349" type="curve" smooth="yes"/>
      <point x="35" y="124"/>
      <point x="158" y="-10"/>
    </contour>
  </outline>
</glyph>
<glyph name="H" format="2">
  <advance width="720"/>
  <unicode hex="0048"/>
  <anchor x="361" y="0" name="bottom"/>
  <anchor x="361" y="374" name="center"/>
  <anchor x="361" y="714" name="top"/>
  <anchor x="4" y="714" name="topleft"/>
  <anchor x="744" y="714" name="topright"/>
  <outline>
    <contour>
      <point x="73" y="0" type="line"/>
      <point x="167" y="0" type="line"/>
      <point x="167" y="330" type="line"/>
      <point x="555" y="330" type="line"/>
      <point x="555" y="0" type="line"/>
      <point x="649" y="0" type="line"/>
      <point x="649" y="714" type="line"/>
      <point x="555" y="714" type="line"/>
      <point x="555" y="414" type="line"/>
      <point x="167" y="414" type="line"/>
      <point x="167" y="714" type="line"/>
      <point x="73" y="714" type="line"/>
    </contour>
  </outline>
</glyph>
<glyph name="I" format="2">
  <advance width="720"/>
  <unicode hex="0049"/>
  <anchor x="361" y="0" name="bottom"/>
  <anchor x="437" y="10" name="ogonek"/>
  <anchor x="361" y="714" name="top"/>
  <anchor x="4" y="714" name="topleft"/>
  <anchor x="718" y="714" name="topright"/>
  <outline>
    <contour>
      <point x="134" y="0" type="line"/>
      <point x="588" y="0" type="line"/>
      <point x="588" y="65" type="line"/>
      <point x="406" y="77" type="line"/>
      <point x="406" y="637" type="line"/>
      <point x="588" y="649" type="line"/>
      <point x="588" y="714" type="line"/>
      <point x="134" y="714" type="line"/>
      <point x="134" y="649" type="line"/>
      <point x="314" y="637" type="line"/>
      <point x="314" y="77" type="line"/>
      <point x="134" y="65" type="line"/>
    </contour>
  </outline>
</glyph>
<glyph name="J" format="2">
  <advance width="720"/>
  <unicode hex="004A"/>
  <anchor x="361" y="0" name="bottom"/>
  <anchor x="509" y="714" name="top"/>
  <anchor x="718" y="714" name="topright"/>
  <outline>
    <contour>
      <point x="292" y="-10" type="curve" smooth="yes"/>
      <point x="473" y="-10"/>
      <point x="555" y="74"/>
      <point x="555" y="216" type="curve" smooth="yes"/>
      <point x="555" y="714" type="line"/>
      <point x="463" y="714" type="line"/>
      <point x="463" y="230" type="line" smooth="yes"/>
      <point x="463" y="121"/>
      <point x="404" y="75"/>
      <point x="285" y="75" type="curve" smooth="yes"/>
      <point x="217" y="75"/>
      <point x="151" y="90"/>
      <point x="104" y="105" type="curve"/>
      <point x="104" y="18" type="line"/>
      <point x="155" y="1"/>
      <point x="223" y="-10"/>
    </contour>
  </outline>
</glyph>
<glyph name="K" format="2">
  <advance width="720"/>
  <unicode hex="004B"/>
  <anchor x="378" y="0" name="bottom"/>
  <anchor x="361" y="714" name="top"/>
  <anchor x="718" y="714" name="topright"/>
  <outline>
    <contour>
      <point x="73" y="0" type="line"/>
      <point x="165" y="0" type="line"/>
      <point x="165" y="243" type="line"/>
      <point x="279" y="327" type="line"/>
      <point x="575" y="0" type="line"/>
      <point x="681" y="0" type="line"/>
      <point x="343" y="392" type="line"/>
      <point x="671" y="714" type="line"/>
      <point x="561" y="714" type="line"/>
      <point x="256" y="448" type="line" smooth="yes"/>
      <point x="218" y="413"/>
      <point x="194" y="374"/>
      <point x="165" y="340" type="curve"/>
      <point x="165" y="714" type="line"/>
      <point x="73" y="714" type="line"/>
    </contour>
  </outline>
</glyph>
<glyph name="L" format="2">
  <advance width="720"/>
  <unicode hex="004C"/>
  <anchor x="402" y="0" name="bottom"/>
  <anchor x="361" y="357" name="center"/>
  <anchor x="180" y="714" name="top"/>
  <anchor x="536" y="714" name="topright"/>
  <outline>
    <contour>
      <point x="133" y="0" type="line"/>
      <point x="638" y="0" type="line"/>
      <point x="638" y="87" type="line"/>
      <point x="226" y="87" type="line"/>
      <point x="226" y="714" type="line"/>
      <point x="133" y="714" type="line"/>
    </contour>
  </outline>
</glyph>
<glyph name="M" format="2">
  <advance width="720"/>
  <unicode hex="004D"/>
  <anchor x="361" y="0" name="bottom"/>
  <anchor x="366" y="714" name="top"/>
  <anchor x="744" y="714" name="topright"/>
  <outline>
    <contour>
      <point x="42" y="0" type="line"/>
      <point x="129" y="0" type="line"/>
      <point x="129" y="374" type="line" smooth="yes"/>
      <point x="129" y="452"/>
      <point x="123" y="568"/>
      <point x="115" y="626" type="curve"/>
      <point x="120" y="626" type="line"/>
      <point x="315" y="183" type="line"/>
      <point x="404" y="183" type="line"/>
      <point x="599" y="625" type="line"/>
      <point x="604" y="625" type="line"/>
      <point x="597" y="555"/>
      <point x="593" y="452"/>
      <point x="593" y="374" type="curve" smooth="yes"/>
      <point x="593" y="0" type="line"/>
      <point x="680" y="0" type="line"/>
      <point x="680" y="714" type="line"/>
      <point x="546" y="714" type="line"/>
      <point x="362" y="295" type="line"/>
      <point x="358" y="295" type="line"/>
      <point x="174" y="714" type="line"/>
      <point x="42" y="714" type="line"/>
    </contour>
  </outline>
</glyph>
<glyph name="N" format="2">
  <advance width="720"/>
  <unicode hex="004E"/>
  <anchor x="361" y="0" name="bottom"/>
  <anchor x="367" y="714" name="top"/>
  <anchor x="744" y="714" name="topright"/>
  <outline>
    <contour>
      <point x="73" y="0" type="line"/>
      <point x="162" y="0" type="line"/>
      <point x="162" y="403" type="line" smooth="yes"/>
      <point x="162" y="477"/>
      <point x="157" y="545"/>
      <point x="151" y="620" type="curve"/>
      <point x="155" y="620" type="line"/>
      <point x="534" y="0" type="line"/>
      <point x="649" y="0" type="line"/>
      <point x="649" y="714" type="line"/>
      <point x="559" y="714" type="line"/>
      <point x="559" y="317" type="line" smooth="yes"/>
      <point x="559" y="242"/>
      <point x="563" y="177"/>
      <point x="569" y="113" type="curve"/>
      <point x="565" y="113" type="line"/>
      <point x="195" y="714" type="line"/>
      <point x="73" y="714" type="line"/>
    </contour>
  </outline>
</glyph>
<glyph name="O" format="2">
  <advance width="720"/>
  <unicode hex="004F"/>
  <anchor x="361" y="0" name="bottom"/>
  <anchor x="361" y="357" name="center"/>
  <anchor x="361" y="10" name="ogonek"/>
  <anchor x="361" y="714" name="top"/>
  <anchor x="4" y="714" name="topleft"/>
  <anchor x="744" y="714" name="topright"/>
  <outline>
    <contour>
      <point x="361" y="-10" type="curve" smooth="yes"/>
      <point x="593" y="-10"/>
      <point x="687" y="140"/>
      <point x="687" y="359" type="curve" smooth="yes"/>
      <point x="687" y="576"/>
      <point x="588" y="726"/>
      <point x="362" y="726" type="curve" smooth="yes"/>
      <point x="142" y="726"/>
      <point x="35" y="583"/>
      <point x="35" y="358" type="curve" smooth="yes"/>
      <point x="35" y="142"/>
      <point x="129" y="-10"/>
    </contour>
    <contour>
      <point x="363" y="73" type="curve" smooth="yes"/>
      <point x="202" y="73"/>
      <point x="131" y="177"/>
      <point x="131" y="358" type="curve" smooth="yes"/>
      <point x="131" y="538"/>
      <point x="201" y="643"/>
      <point x="363" y="643" type="curve" smooth="yes"/>
      <point x="521" y="643"/>
      <point x="591" y="539"/>
      <point x="591" y="358" type="curve" smooth="yes"/>
      <point x="591" y="176"/>
      <point x="522" y="73"/>
    </contour>
  </outline>
</glyph>
<glyph name="P" format="2">
  <advance width="720"/>
  <unicode hex="0050"/>
  <anchor x="361" y="0" name="bottom"/>
  <anchor x="361" y="714" name="top"/>
  <anchor x="744" y="714" name="topright"/>
  <outline>
    <contour>
      <point x="103" y="0" type="line"/>
      <point x="195" y="0" type="line"/>
      <point x="195" y="274" type="line"/>
      <point x="343" y="274" type="line" smooth="yes"/>
      <point x="576" y="274"/>
      <point x="673" y="381"/>
      <point x="673" y="504" type="curve" smooth="yes"/>
      <point x="673" y="638"/>
      <point x="573" y="714"/>
      <point x="359" y="714" type="curve" smooth="yes"/>
      <point x="103" y="714" type="line"/>
    </contour>
    <contour>
      <point x="195" y="355" type="line"/>
      <point x="195" y="633" type="line"/>
      <point x="351" y="633" type="line" smooth="yes"/>
      <point x="506" y="633"/>
      <point x="578" y="593"/>
      <point x="578" y="499" type="curve" smooth="yes"/>
      <point x="578" y="396"/>
      <point x="489" y="355"/>
      <point x="333" y="355" type="curve" smooth="yes"/>
    </contour>
  </outline>
</glyph>
<glyph name="Q" format="2">
  <advance width="720"/>
  <unicode hex="0051"/>
  <anchor x="361" y="-220" name="bottom"/>
  <anchor x="361" y="714" name="top"/>
  <anchor x="744" y="714" name="topright"/>
  <anchor x="-18" y="714" name="topleft"/>
  <anchor x="339" y="10" name="ogonek"/>
  <anchor x="339" y="357" name="center"/>
  <outline>
    <contour>
      <point x="553" y="-180" type="line"/>
      <point x="656" y="-180" type="line"/>
      <point x="488" y="93" type="line"/>
      <point x="420" y="27" type="line"/>
    </contour>
    <component base="O" xOffset="-22"/>
  </outline>
</glyph>
<glyph name="R" format="2">
  <advance width="720"/>
  <unicode hex="0052"/>
  <anchor x="400" y="0" name="bottom"/>
  <anchor x="361" y="714" name="top"/>
  <anchor x="718" y="714" name="topright"/>
  <outline>
    <contour>
      <point x="103" y="0" type="line"/>
      <point x="195" y="0" type="line"/>
      <point x="195" y="290" type="line"/>
      <point x="379" y="290" type="line"/>
      <point x="602" y="0" type="line"/>
      <point x="706" y="0" type="line"/>
      <point x="463" y="317" type="line"/>
      <point x="572" y="345"/>
      <point x="645" y="401"/>
      <point x="645" y="512" type="curve" smooth="yes"/>
      <point x="645" y="647"/>
      <point x="531" y="714"/>
      <point x="321" y="714" type="curve" smooth="yes"/>
      <point x="103" y="714" type="line"/>
    </contour>
    <contour>
      <point x="195" y="372" type="line"/>
      <point x="195" y="633" type="line"/>
      <point x="315" y="633" type="line" smooth="yes"/>
      <point x="470" y="633"/>
      <point x="549" y="597"/>
      <point x="549" y="506" type="curve" smooth="yes"/>
      <point x="549" y="418"/>
      <point x="473" y="372"/>
      <point x="333" y="372" type="curve" smooth="yes"/>
    </contour>
  </outline>
</glyph>
<glyph name="S" format="2">
  <advance width="720"/>
  <unicode hex="0053"/>
  <anchor x="361" y="0" name="bottom"/>
  <anchor x="384" y="714" name="top"/>
  <anchor x="718" y="714" name="topright"/>
  <outline>
    <contour>
      <point x="331" y="-10" type="curve" smooth="yes"/>
      <point x="536" y="-10"/>
      <point x="653" y="65"/>
      <point x="653" y="193" type="curve" smooth="yes"/>
      <point x="653" y="313"/>
      <point x="547" y="350"/>
      <point x="399" y="399" type="curve" smooth="yes"/>
      <point x="267" y="442"/>
      <point x="194" y="464"/>
      <point x="194" y="534" type="curve" smooth="yes"/>
      <point x="194" y="609"/>
      <point x="280" y="641"/>
      <point x="395" y="641" type="curve" smooth="yes"/>
      <point x="460" y="641"/>
      <point x="534" y="628"/>
      <point x="601" y="607" type="curve"/>
      <point x="634" y="684" type="line"/>
      <point x="563" y="709"/>
      <point x="481" y="725"/>
      <point x="395" y="725" type="curve" smooth="yes"/>
      <point x="218" y="725"/>
      <point x="99" y="660"/>
      <point x="99" y="536" type="curve" smooth="yes"/>
      <point x="99" y="414"/>
      <point x="205" y="370"/>
      <point x="333" y="329" type="curve" smooth="yes"/>
      <point x="489" y="279"/>
      <point x="557" y="259"/>
      <point x="557" y="191" type="curve" smooth="yes"/>
      <point x="557" y="115"/>
      <point x="473" y="71"/>
      <point x="332" y="71" type="curve" smooth="yes"/>
      <point x="247" y="71"/>
      <point x="154" y="90"/>
      <point x="84" y="113" type="curve"/>
      <point x="84" y="27" type="line"/>
      <point x="143" y="5"/>
      <point x="236" y="-10"/>
    </contour>
  </outline>
</glyph>
<glyph name="T" format="2">
  <advance width="720"/>
  <unicode hex="0054"/>
  <anchor x="361" y="0" name="bottom"/>
  <anchor x="361" y="357" name="center"/>
  <anchor x="361" y="714" name="top"/>
  <anchor x="718" y="714" name="topright"/>
  <outline>
    <contour>
      <point x="314" y="0" type="line"/>
      <point x="408" y="0" type="line"/>
      <point x="408" y="630" type="line"/>
      <point x="687" y="630" type="line"/>
      <point x="687" y="714" type="line"/>
      <point x="36" y="714" type="line"/>
      <point x="36" y="630" type="line"/>
      <point x="314" y="630" type="line"/>
    </contour>
  </outline>
</glyph>
<glyph name="U" format="2">
  <advance width="720"/>
  <unicode hex="0055"/>
  <anchor x="361" y="0" name="bottom"/>
  <anchor x="668" y="10" name="ogonek"/>
  <anchor x="361" y="714" name="top"/>
  <anchor x="718" y="714" name="topright"/>
  <outline>
    <contour>
      <point x="358" y="-10" type="curve" smooth="yes"/>
      <point x="558" y="-10"/>
      <point x="649" y="92"/>
      <point x="649" y="244" type="curve" smooth="yes"/>
      <point x="649" y="714" type="line"/>
      <point x="555" y="714" type="line"/>
      <point x="555" y="251" type="line" smooth="yes"/>
      <point x="555" y="144"/>
      <point x="500" y="73"/>
      <point x="360" y="73" type="curve" smooth="yes"/>
      <point x="221" y="73"/>
      <point x="167" y="138"/>
      <point x="167" y="250" type="curve" smooth="yes"/>
      <point x="167" y="714" type="line"/>
      <point x="73" y="714" type="line"/>
      <point x="73" y="245" type="line" smooth="yes"/>
      <point x="73" y="85"/>
      <point x="160" y="-10"/>
    </contour>
  </outline>
</glyph>
<glyph name="V" format="2">
  <advance width="720"/>
  <unicode hex="0056"/>
  <anchor x="361" y="0" name="bottom"/>
  <anchor x="361" y="714" name="top"/>
  <anchor x="718" y="714" name="topright"/>
  <outline>
    <contour>
      <point x="312" y="0" type="line"/>
      <point x="412" y="0" type="line"/>
      <point x="708" y="714" type="line"/>
      <point x="611" y="714" type="line"/>
      <point x="415" y="255" type="line" smooth="yes"/>
      <point x="390" y="196"/>
      <point x="376" y="135"/>
      <point x="364" y="88" type="curve"/>
      <point x="360" y="88" type="line"/>
      <point x="348" y="136"/>
      <point x="332" y="196"/>
      <point x="308" y="252" type="curve" smooth="yes"/>
      <point x="110" y="714" type="line"/>
      <point x="14" y="714" type="line"/>
    </contour>
  </outline>
</glyph>
<glyph name="W" format="2">
  <advance width="720"/>
  <unicode hex="0057"/>
  <anchor x="361" y="0" name="bottom"/>
  <anchor x="361" y="714" name="top"/>
  <anchor x="718" y="714" name="topright"/>
  <outline>
    <contour>
      <point x="127" y="0" type="line"/>
      <point x="236" y="0" type="line"/>
      <point x="330" y="317" type="line" smooth="yes"/>
      <point x="347" y="377"/>
      <point x="354" y="422"/>
      <point x="360" y="444" type="curve"/>
      <point x="363" y="444" type="line"/>
      <point x="369" y="422"/>
      <point x="376" y="377"/>
      <point x="394" y="317" type="curve" smooth="yes"/>
      <point x="490" y="0" type="line"/>
      <point x="598" y="0" type="line"/>
      <point x="708" y="714" type="line"/>
      <point x="622" y="714" type="line"/>
      <point x="600" y="602"/>
      <point x="580" y="502"/>
      <point x="564" y="398" type="curve" smooth="yes"/>
      <point x="546" y="294"/>
      <point x="543" y="146"/>
      <point x="538" y="95" type="curve"/>
      <point x="534" y="95" type="line"/>
      <point x="525" y="142"/>
      <point x="508" y="240"/>
      <point x="486" y="307" type="curve" smooth="yes"/>
      <point x="407" y="537" type="line"/>
      <point x="315" y="537" type="line"/>
      <point x="237" y="309" type="line" smooth="yes"/>
      <point x="215" y="248"/>
      <point x="199" y="142"/>
      <point x="190" y="95" type="curve"/>
      <point x="187" y="95" type="line"/>
      <point x="184" y="146"/>
      <point x="176" y="308"/>
      <point x="160" y="396" type="curve" smooth="yes"/>
      <point x="142" y="499"/>
      <point x="120" y="601"/>
      <point x="98" y="714" type="curve"/>
      <point x="14" y="714" type="line"/>
    </contour>
  </outline>
</glyph>
<glyph name="X" format="2">
  <advance width="720"/>
  <unicode hex="0058"/>
  <anchor x="361" y="0" name="bottom"/>
  <anchor x="361" y="714" name="top"/>
  <anchor x="718" y="714" name="topright"/>
  <outline>
    <contour>
      <point x="26" y="0" type="line"/>
      <point x="127" y="0" type="line"/>
      <point x="361" y="292" type="line"/>
      <point x="596" y="0" type="line"/>
      <point x="696" y="0" type="line"/>
      <point x="409" y="369" type="line"/>
      <point x="676" y="714" type="line"/>
      <point x="575" y="714" type="line"/>
      <point x="362" y="447" type="line"/>
      <point x="151" y="714" type="line"/>
      <point x="50" y="714" type="line"/>
      <point x="314" y="370" type="line"/>
    </contour>
  </outline>
</glyph>
<glyph name="Y" format="2">
  <advance width="720"/>
  <unicode hex="0059"/>
  <anchor x="361" y="0" name="bottom"/>
  <anchor x="361" y="714" name="top"/>
  <anchor x="4" y="714" name="topleft"/>
  <anchor x="718" y="714" name="topright"/>
  <outline>
    <contour>
      <point x="317" y="0" type="line"/>
      <point x="407" y="0" type="line"/>
      <point x="407" y="277" type="line"/>
      <point x="696" y="714" type="line"/>
      <point x="596" y="714" type="line"/>
      <point x="362" y="359" type="line"/>
      <point x="128" y="714" type="line"/>
      <point x="26" y="714" type="line"/>
      <point x="317" y="277" type="line"/>
    </contour>
  </outline>
</glyph>
<glyph name="Z" format="2">
  <advance width="720"/>
  <unicode hex="005A"/>
  <anchor x="383" y="0" name="bottom"/>
  <anchor x="379" y="714" name="top"/>
  <anchor x="718" y="714" name="topright"/>
  <outline>
    <contour>
      <point x="103" y="0" type="line"/>
      <point x="628" y="0" type="line"/>
      <point x="628" y="84" type="line"/>
      <point x="207" y="84" type="line"/>
      <point x="620" y="640" type="line"/>
      <point x="620" y="714" type="line"/>
      <point x="131" y="714" type="line"/>
      <point x="131" y="632" type="line"/>
      <point x="519" y="632" type="line"/>
      <point x="103" y="74" type="line"/>
    </contour>
  </outline>
</glyph>
<glyph name="bracketleft" format="2">
  <advance width="720"/>
  <unicode hex="005B"/>
  <outline>
    <contour>
      <point x="277" y="-160" type="line"/>
      <point x="561" y="-160" type="line"/>
      <point x="561" y="-86" type="line"/>
      <point x="365" y="-86" type="line"/>
      <point x="365" y="642" type="line"/>
      <point x="561" y="642" type="line"/>
      <point x="561" y="717" type="line"/>
      <point x="277" y="717" type="line"/>
    </contour>
  </outline>
</glyph>
<glyph name="asciicircum" format="2">
  <advance width="720"/>
  <unicode hex="005E"/>
  <outline>
    <contour>
      <point x="46" y="282" type="line"/>
      <point x="131" y="282" type="line"/>
      <point x="358" y="615" type="line"/>
      <point x="591" y="282" type="line"/>
      <point x="676" y="282" type="line"/>
      <point x="385" y="717" type="line"/>
      <point x="331" y="717" type="line"/>
    </contour>
  </outline>
</glyph>
<glyph name="underscore" format="2">
  <advance width="720"/>
  <unicode hex="005F"/>
  <outline>
    <contour>
      <point x="-22" y="-156" type="line"/>
      <point x="744" y="-156" type="line"/>
      <point x="744" y="-73" type="line"/>
      <point x="-22" y="-73" type="line"/>
    </contour>
  </outline>
</glyph>
<glyph name="grave" format="2">
  <advance width="720"/>
  <unicode hex="0060"/>
  <outline>
    <contour>
      <point x="404" y="606" type="curve"/>
      <point x="466" y="606" type="line"/>
      <point x="466" y="618" type="line"/>
      <point x="420" y="655"/>
      <point x="354" y="721"/>
      <point x="321" y="766" type="curve"/>
      <point x="213" y="766" type="line"/>
      <point x="213" y="756" type="line"/>
      <point x="250" y="718"/>
      <point x="341" y="641"/>
    </contour>
  </outline>
</glyph>
<glyph name="a" format="2">
  <advance width="720"/>
  <unicode hex="0061"/>
  <anchor x="364" y="0" name="bottom"/>
  <anchor x="668" y="10" name="ogonek"/>
  <anchor x="370" y="537" name="top"/>
  <anchor x="718" y="537" name="topright"/>
  <outline>
    <contour>
      <point x="296" y="-10" type="curve" smooth="yes"/>
      <point x="407" y="-10"/>
      <point x="485" y="18"/>
      <point x="535" y="74" type="curve"/>
      <point x="540" y="74" type="line"/>
      <point x="553" y="0" type="line"/>
      <point x="626" y="0" type="line"/>
      <point x="626" y="362" type="line" smooth="yes"/>
      <point x="626" y="489"/>
      <point x="535" y="547"/>
      <point x="365" y="547" type="curve" smooth="yes"/>
      <point x="272" y="547"/>
      <point x="197" y="527"/>
      <point x="127" y="500" type="curve"/>
      <point x="159" y="429" type="line"/>
      <point x="223" y="455"/>
      <point x="290" y="470"/>
      <point x="360" y="470" type="curve" smooth="yes"/>
      <point x="473" y="470"/>
      <point x="538" y="442"/>
      <point x="538" y="352" type="curve" smooth="yes"/>
      <point x="538" y="326" type="line"/>
      <point x="389" y="323" type="line" smooth="yes"/>
      <point x="190" y="319"/>
      <point x="75" y="264"/>
      <point x="75" y="149" type="curve" smooth="yes"/>
      <point x="75" y="43"/>
      <point x="160" y="-10"/>
    </contour>
    <contour>
      <point x="313" y="67" type="curve" smooth="yes"/>
      <point x="221" y="67"/>
      <point x="166" y="91"/>
      <point x="166" y="152" type="curve" smooth="yes"/>
      <point x="166" y="218"/>
      <point x="248" y="254"/>
      <point x="409" y="258" type="curve" smooth="yes"/>
      <point x="538" y="261" type="line"/>
      <point x="538" y="214" type="line" smooth="yes"/>
      <point x="538" y="113"/>
      <point x="443" y="67"/>
    </contour>
  </outline>
</glyph>
<glyph name="b" format="2">
  <advance width="720"/>
  <unicode hex="0062"/>
  <anchor x="361" y="0" name="bottom"/>
  <anchor x="361" y="760" name="top"/>
  <anchor x="718" y="760" name="topright"/>
  <outline>
    <contour>
      <point x="393" y="-10" type="curve" smooth="yes"/>
      <point x="574" y="-10"/>
      <point x="670" y="88"/>
      <point x="670" y="270" type="curve" smooth="yes"/>
      <point x="670" y="450"/>
      <point x="570" y="547"/>
      <point x="401" y="547" type="curve" smooth="yes"/>
      <point x="288" y="547"/>
      <point x="214" y="511"/>
      <point x="178" y="466" type="curve"/>
      <point x="175" y="466" type="line"/>
      <point x="178" y="505"/>
      <point x="178" y="541"/>
      <point x="178" y="577" type="curve" smooth="yes"/>
      <point x="178" y="760" type="line"/>
      <point x="87" y="760" type="line"/>
      <point x="87" y="0" type="line"/>
      <point x="160" y="0" type="line"/>
      <point x="172" y="67" type="line"/>
      <point x="179" y="67" type="line"/>
      <point x="217" y="23"/>
      <point x="287" y="-10"/>
    </contour>
    <contour>
      <point x="373" y="67" type="curve" smooth="yes"/>
      <point x="242" y="67"/>
      <point x="178" y="136"/>
      <point x="178" y="273" type="curve" smooth="yes"/>
      <point x="178" y="402"/>
      <point x="249" y="470"/>
      <point x="379" y="470" type="curve" smooth="yes"/>
      <point x="512" y="470"/>
      <point x="575" y="400"/>
      <point x="575" y="269" type="curve" smooth="yes"/>
      <point x="575" y="138"/>
      <point x="507" y="67"/>
    </contour>
  </outline>
</glyph>
<glyph name="c" format="2">
  <advance width="720"/>
  <unicode hex="0063"/>
  <anchor x="407" y="0" name="bottom"/>
  <anchor x="400" y="537" name="top"/>
  <anchor x="718" y="537" name="topright"/>
  <outline>
    <contour>
      <point x="420" y="-10" type="curve" smooth="yes"/>
      <point x="494" y="-10"/>
      <point x="568" y="1"/>
      <point x="618" y="21" type="curve"/>
      <point x="618" y="103" type="line"/>
      <point x="566" y="84"/>
      <point x="497" y="70"/>
      <point x="428" y="70" type="curve" smooth="yes"/>
      <point x="262" y="70"/>
      <point x="182" y="126"/>
      <point x="182" y="267" type="curve" smooth="yes"/>
      <point x="182" y="401"/>
      <point x="269" y="467"/>
      <point x="438" y="467" type="curve" smooth="yes"/>
      <point x="493" y="467"/>
      <point x="545" y="458"/>
      <point x="599" y="436" type="curve"/>
      <point x="627" y="512" type="line"/>
      <point x="570" y="535"/>
      <point x="507" y="547"/>
      <point x="434" y="547" type="curve" smooth="yes"/>
      <point x="225" y="547"/>
      <point x="87" y="468"/>
      <point x="87" y="264" type="curve" smooth="yes"/>
      <point x="87" y="71"/>
      <point x="205" y="-10"/>
    </contour>
  </outline>
</glyph>
<glyph name="d" format="2">
  <advance width="720"/>
  <unicode hex="0064"/>
  <anchor x="361" y="0" name="bottom"/>
  <anchor x="361" y="269" name="center"/>
  <anchor x="361" y="760" name="top"/>
  <anchor x="718" y="760" name="topright"/>
  <outline>
    <contour>
      <point x="326" y="-10" type="curve" smooth="yes"/>
      <point x="440" y="-10"/>
      <point x="505" y="24"/>
      <point x="543" y="72" type="curve"/>
      <point x="548" y="72" type="line"/>
      <point x="560" y="0" type="line"/>
      <point x="635" y="0" type="line"/>
      <point x="635" y="760" type="line"/>
      <point x="542" y="760" type="line"/>
      <point x="542" y="551" type="line" smooth="yes"/>
      <point x="542" y="524"/>
      <point x="544" y="493"/>
      <point x="549" y="468" type="curve"/>
      <point x="543" y="468" type="line"/>
      <point x="510" y="514"/>
      <point x="445" y="547"/>
      <point x="336" y="547" type="curve" smooth="yes"/>
      <point x="152" y="547"/>
      <point x="52" y="448"/>
      <point x="52" y="270" type="curve" smooth="yes"/>
      <point x="52" y="85"/>
      <point x="152" y="-10"/>
    </contour>
    <contour>
      <point x="347" y="67" type="curve" smooth="yes"/>
      <point x="212" y="67"/>
      <point x="147" y="132"/>
      <point x="147" y="262" type="curve" smooth="yes"/>
      <point x="147" y="401"/>
      <point x="220" y="470"/>
      <point x="353" y="470" type="curve" smooth="yes"/>
      <point x="491" y="470"/>
      <point x="544" y="386"/>
      <point x="544" y="267" type="curve" smooth="yes"/>
      <point x="544" y="248" type="line" smooth="yes"/>
      <point x="544" y="137"/>
      <point x="487" y="67"/>
    </contour>
  </outline>
</glyph>
<glyph name="e" format="2">
  <advance width="720"/>
  <unicode hex="0065"/>
  <anchor x="375" y="0" name="bottom"/>
  <anchor x="376" y="10" name="ogonek"/>
  <anchor x="366" y="537" name="top"/>
  <anchor x="718" y="537" name="topright"/>
  <outline>
    <contour>
      <point x="409" y="-10" type="curve" smooth="yes"/>
      <point x="484" y="-10"/>
      <point x="563" y="1"/>
      <point x="637" y="28" type="curve"/>
      <point x="637" y="111" type="line"/>
      <point x="564" y="84"/>
      <point x="493" y="67"/>
      <point x="415" y="67" type="curve" smooth="yes"/>
      <point x="245" y="67"/>
      <point x="157" y="118"/>
      <point x="153" y="249" type="curve"/>
      <point x="664" y="249" type="line"/>
      <point x="664" y="295" type="line" smooth="yes"/>
      <point x="664" y="449"/>
      <point x="564" y="547"/>
      <point x="379" y="547" type="curve" smooth="yes"/>
      <point x="175" y="547"/>
      <point x="59" y="442"/>
      <point x="59" y="266" type="curve" smooth="yes"/>
      <point x="59" y="89"/>
      <point x="179" y="-10"/>
    </contour>
    <contour>
      <point x="156" y="323" type="line"/>
      <point x="171" y="414"/>
      <point x="254" y="471"/>
      <point x="378" y="471" type="curve" smooth="yes"/>
      <point x="503" y="471"/>
      <point x="569" y="414"/>
      <point x="571" y="323" type="curve"/>
    </contour>
  </outline>
</glyph>
<glyph name="f" format="2">
  <advance width="720"/>
  <unicode hex="0066"/>
  <anchor x="361" y="0" name="bottom"/>
  <anchor x="498" y="765" name="top"/>
  <anchor x="718" y="765" name="topright"/>
  <outline>
    <contour>
      <point x="294" y="0" type="line"/>
      <point x="387" y="0" type="line"/>
      <point x="387" y="459" type="line"/>
      <point x="656" y="459" type="line"/>
      <point x="656" y="537" type="line"/>
      <point x="387" y="537" type="line"/>
      <point x="387" y="584" type="line" smooth="yes"/>
      <point x="387" y="665"/>
      <point x="439" y="687"/>
      <point x="542" y="687" type="curve" smooth="yes"/>
      <point x="588" y="687"/>
      <point x="641" y="682"/>
      <point x="678" y="673" type="curve"/>
      <point x="698" y="746" type="line"/>
      <point x="658" y="756"/>
      <point x="596" y="765"/>
      <point x="535" y="765" type="curve" smooth="yes"/>
      <point x="379" y="765"/>
      <point x="294" y="723"/>
      <point x="294" y="593" type="curve" smooth="yes"/>
      <point x="294" y="538" type="line"/>
      <point x="72" y="522" type="line"/>
      <point x="72" y="459" type="line"/>
      <point x="294" y="459" type="line"/>
    </contour>
  </outline>
</glyph>
<glyph name="g" format="2">
  <advance width="720"/>
  <unicode hex="0067"/>
  <anchor x="361" y="-245" name="bottom"/>
  <anchor x="361" y="537" name="top"/>
  <anchor x="718" y="537" name="topright"/>
  <outline>
    <contour>
      <point x="328" y="-245" type="curve" smooth="yes"/>
      <point x="542" y="-245"/>
      <point x="635" y="-166"/>
      <point x="635" y="-12" type="curve" smooth="yes"/>
      <point x="635" y="537" type="line"/>
      <point x="560" y="537" type="line"/>
      <point x="547" y="469" type="line"/>
      <point x="541" y="469" type="line"/>
      <point x="497" y="524"/>
      <point x="435" y="547"/>
      <point x="333" y="547" type="curve" smooth="yes"/>
      <point x="154" y="547"/>
      <point x="52" y="440"/>
      <point x="52" y="266" type="curve" smooth="yes"/>
      <point x="52" y="92"/>
      <point x="155" y="-10"/>
      <point x="330" y="-10" type="curve" smooth="yes"/>
      <point x="430" y="-10"/>
      <point x="503" y="9"/>
      <point x="544" y="64" type="curve"/>
      <point x="549" y="64" type="line"/>
      <point x="545" y="39"/>
      <point x="545" y="22"/>
      <point x="545" y="5" type="curve" smooth="yes"/>
      <point x="545" y="-15" type="line" smooth="yes"/>
      <point x="545" y="-111"/>
      <point x="485" y="-169"/>
      <point x="327" y="-169" type="curve" smooth="yes"/>
      <point x="248" y="-169"/>
      <point x="158" y="-154"/>
      <point x="92" y="-124" type="curve"/>
      <point x="92" y="-209" type="line"/>
      <point x="158" y="-232"/>
      <point x="237" y="-245"/>
    </contour>
    <contour>
      <point x="352" y="67" type="curve" smooth="yes"/>
      <point x="214" y="67"/>
      <point x="147" y="137"/>
      <point x="147" y="268" type="curve" smooth="yes"/>
      <point x="147" y="397"/>
      <point x="212" y="470"/>
      <point x="353" y="470" type="curve" smooth="yes"/>
      <point x="488" y="470"/>
      <point x="548" y="410"/>
      <point x="548" y="267" type="curve" smooth="yes"/>
      <point x="548" y="247" type="line" smooth="yes"/>
      <point x="548" y="122"/>
      <point x="492" y="67"/>
    </contour>
  </outline>
</glyph>
<glyph name="h" format="2">
  <advance width="720"/>
  <unicode hex="0068"/>
  <anchor x="361" y="0" name="bottom"/>
  <anchor x="361" y="269" name="center"/>
  <anchor x="133" y="760" name="top"/>
  <anchor x="718" y="760" name="topright"/>
  <outline>
    <contour>
      <point x="87" y="0" type="line"/>
      <point x="180" y="0" type="line"/>
      <point x="180" y="276" type="line" smooth="yes"/>
      <point x="180" y="400"/>
      <point x="258" y="470"/>
      <point x="382" y="470" type="curve" smooth="yes"/>
      <point x="488" y="470"/>
      <point x="548" y="425"/>
      <point x="548" y="331" type="curve" smooth="yes"/>
      <point x="548" y="0" type="line"/>
      <point x="641" y="0" type="line"/>
      <point x="641" y="351" type="line" smooth="yes"/>
      <point x="641" y="487"/>
      <point x="547" y="547"/>
      <point x="404" y="547" type="curve" smooth="yes"/>
      <point x="291" y="547"/>
      <point x="218" y="517"/>
      <point x="181" y="456" type="curve"/>
      <point x="176" y="456" type="line"/>
      <point x="177" y="480"/>
      <point x="180" y="521"/>
      <point x="180" y="547" type="curve" smooth="yes"/>
      <point x="180" y="760" type="line"/>
      <point x="87" y="760" type="line"/>
    </contour>
  </outline>
</glyph>
<glyph name="i" format="2">
  <advance width="720"/>
  <unicode hex="0069"/>
  <anchor x="386" y="0" name="bottom"/>
  <anchor x="373" y="762" name="top"/>
  <anchor x="610" y="762" name="topright"/>
  <outline>
    <contour>
      <point x="89" y="0" type="line"/>
      <point x="658" y="0" type="line"/>
      <point x="658" y="63" type="line"/>
      <point x="428" y="77" type="line"/>
      <point x="428" y="537" type="line"/>
      <point x="110" y="537" type="line"/>
      <point x="110" y="472" type="line"/>
      <point x="335" y="459" type="line"/>
      <point x="335" y="77" type="line"/>
      <point x="89" y="63" type="line"/>
    </contour>
    <contour>
      <point x="374" y="631" type="curve" smooth="yes"/>
      <point x="418" y="631"/>
      <point x="443" y="653"/>
      <point x="443" y="697" type="curve" smooth="yes"/>
      <point x="443" y="741"/>
      <point x="416" y="762"/>
      <point x="374" y="762" type="curve" smooth="yes"/>
      <point x="330" y="762"/>
      <point x="304" y="741"/>
      <point x="304" y="697" type="curve" smooth="yes"/>
      <point x="304" y="653"/>
      <point x="330" y="631"/>
    </contour>
  </outline>
</glyph>
<glyph name="j" format="2">
  <advance width="720"/>
  <unicode hex="006A"/>
  <anchor x="276" y="-245" name="bottom"/>
  <anchor x="413" y="762" name="top"/>
  <anchor x="718" y="762" name="topright"/>
  <outline>
    <contour>
      <point x="228" y="-245" type="curve" smooth="yes"/>
      <point x="382" y="-245"/>
      <point x="471" y="-178"/>
      <point x="471" y="-52" type="curve" smooth="yes"/>
      <point x="471" y="537" type="line"/>
      <point x="141" y="537" type="line"/>
      <point x="141" y="472" type="line"/>
      <point x="378" y="459" type="line"/>
      <point x="378" y="-41" type="line" smooth="yes"/>
      <point x="378" y="-126"/>
      <point x="329" y="-167"/>
      <point x="219" y="-167" type="curve" smooth="yes"/>
      <point x="169" y="-167"/>
      <point x="101" y="-158"/>
      <point x="61" y="-146" type="curve"/>
      <point x="61" y="-227" type="line"/>
      <point x="98" y="-238"/>
      <point x="169" y="-245"/>
    </contour>
    <contour>
      <point x="415" y="631" type="curve" smooth="yes"/>
      <point x="458" y="631"/>
      <point x="484" y="653"/>
      <point x="484" y="697" type="curve" smooth="yes"/>
      <point x="484" y="741"/>
      <point x="457" y="762"/>
      <point x="415" y="762" type="curve" smooth="yes"/>
      <point x="370" y="762"/>
      <point x="345" y="741"/>
      <point x="345" y="697" type="curve" smooth="yes"/>
      <point x="345" y="653"/>
      <point x="371" y="631"/>
    </contour>
  </outline>
</glyph>
<glyph name="k" format="2">
  <advance width="720"/>
  <unicode hex="006B"/>
  <anchor x="405" y="0" name="bottom"/>
  <anchor x="411" y="760" name="top"/>
  <anchor x="718" y="760" name="topright"/>
  <outline>
    <contour>
      <point x="118" y="0" type="line"/>
      <point x="211" y="0" type="line"/>
      <point x="211" y="174" type="line"/>
      <point x="340" y="247" type="line"/>
      <point x="588" y="0" type="line"/>
      <point x="697" y="0" type="line"/>
      <point x="402" y="306" type="line"/>
      <point x="677" y="537" type="line"/>
      <point x="563" y="537" type="line"/>
      <point x="297" y="336" type="line" smooth="yes"/>
      <point x="263" y="311"/>
      <point x="237" y="285"/>
      <point x="207" y="254" type="curve"/>
      <point x="205" y="254" type="line"/>
      <point x="209" y="302"/>
      <point x="211" y="359"/>
      <point x="211" y="402" type="curve" smooth="yes"/>
      <point x="211" y="760" type="line"/>
      <point x="118" y="760" type="line"/>
    </contour>
  </outline>
</glyph>
<glyph name="l" format="2">
  <advance width="720"/>
  <unicode hex="006C"/>
  <anchor x="382" y="0" name="bottom"/>
  <anchor x="382" y="383" name="center"/>
  <anchor x="361" y="760" name="top"/>
  <anchor x="606" y="760" name="topright"/>
  <outline>
    <contour>
      <point x="89" y="0" type="line"/>
      <point x="658" y="0" type="line"/>
      <point x="658" y="63" type="line"/>
      <point x="427" y="77" type="line"/>
      <point x="427" y="760" type="line"/>
      <point x="105" y="760" type="line"/>
      <point x="105" y="695" type="line"/>
      <point x="334" y="683" type="line"/>
      <point x="334" y="77" type="line"/>
      <point x="89" y="63" type="line"/>
    </contour>
  </outline>
</glyph>
<glyph name="m" format="2">
  <advance width="720"/>
  <unicode hex="006D"/>
  <anchor x="366" y="0" name="bottom"/>
  <anchor x="388" y="537" name="top"/>
  <anchor x="718" y="537" name="topright"/>
  <outline>
    <contour>
      <point x="44" y="0" type="line"/>
      <point x="129" y="0" type="line"/>
      <point x="129" y="290" type="line" smooth="yes"/>
      <point x="129" y="393"/>
      <point x="155" y="467"/>
      <point x="236" y="467" type="curve" smooth="yes"/>
      <point x="294" y="467"/>
      <point x="320" y="426"/>
      <point x="320" y="351" type="curve" smooth="yes"/>
      <point x="320" y="0" type="line"/>
      <point x="405" y="0" type="line"/>
      <point x="405" y="292" type="line" smooth="yes"/>
      <point x="405" y="403"/>
      <point x="441" y="467"/>
      <point x="514" y="467" type="curve" smooth="yes"/>
      <point x="573" y="467"/>
      <point x="595" y="425"/>
      <point x="595" y="351" type="curve" smooth="yes"/>
      <point x="595" y="0" type="line"/>
      <point x="680" y="0" type="line"/>
      <point x="680" y="364" type="line" smooth="yes"/>
      <point x="680" y="490"/>
      <point x="637" y="547"/>
      <point x="539" y="547" type="curve" smooth="yes"/>
      <point x="463" y="547"/>
      <point x="422" y="521"/>
      <point x="394" y="471" type="curve"/>
      <point x="390" y="471" type="line"/>
      <point x="373" y="521"/>
      <point x="339" y="547"/>
      <point x="263" y="547" type="curve" smooth="yes"/>
      <point x="192" y="547"/>
      <point x="154" y="529"/>
      <point x="127" y="478" type="curve"/>
      <point x="122" y="478" type="line"/>
      <point x="109" y="537" type="line"/>
      <point x="44" y="537" type="line"/>
    </contour>
  </outline>
</glyph>
<glyph name="n" format="2">
  <advance width="720"/>
  <unicode hex="006E"/>
  <anchor x="369" y="0" name="bottom"/>
  <anchor x="375" y="537" name="top"/>
  <anchor x="718" y="537" name="topright"/>
  <outline>
    <contour>
      <point x="87" y="0" type="line"/>
      <point x="180" y="0" type="line"/>
      <point x="180" y="274" type="line" smooth="yes"/>
      <point x="180" y="398"/>
      <point x="250" y="470"/>
      <point x="385" y="470" type="curve" smooth="yes"/>
      <point x="494" y="470"/>
      <point x="548" y="429"/>
      <point x="548" y="341" type="curve" smooth="yes"/>
      <point x="548" y="0" type="line"/>
      <point x="641" y="0" type="line"/>
      <point x="641" y="356" type="line" smooth="yes"/>
      <point x="641" y="487"/>
      <point x="552" y="547"/>
      <point x="408" y="547" type="curve" smooth="yes"/>
      <point x="293" y="547"/>
      <point x="217" y="519"/>
      <point x="180" y="460" type="curve"/>
      <point x="175" y="460" type="line"/>
      <point x="162" y="537" type="line"/>
      <point x="87" y="537" type="line"/>
    </contour>
  </outline>
</glyph>
<glyph name="o" format="2">
  <advance width="720"/>
  <unicode hex="006F"/>
  <anchor x="361" y="0" name="bottom"/>
  <anchor x="361" y="269" name="center"/>
  <anchor x="362" y="10" name="ogonek"/>
  <anchor x="361" y="537" name="top"/>
  <anchor x="718" y="537" name="topright"/>
  <outline>
    <contour>
      <point x="362" y="-10" type="curve" smooth="yes"/>
      <point x="554" y="-10"/>
      <point x="670" y="85"/>
      <point x="670" y="267" type="curve" smooth="yes"/>
      <point x="670" y="453"/>
      <point x="555" y="547"/>
      <point x="361" y="547" type="curve" smooth="yes"/>
      <point x="173" y="547"/>
      <point x="52" y="453"/>
      <point x="52" y="271" type="curve" smooth="yes"/>
      <point x="52" y="85"/>
      <point x="171" y="-10"/>
    </contour>
    <contour>
      <point x="361" y="66" type="curve" smooth="yes"/>
      <point x="217" y="66"/>
      <point x="145" y="142"/>
      <point x="145" y="269" type="curve" smooth="yes"/>
      <point x="145" y="396"/>
      <point x="221" y="471"/>
      <point x="362" y="471" type="curve" smooth="yes"/>
      <point x="510" y="471"/>
      <point x="575" y="396"/>
      <point x="575" y="269" type="curve" smooth="yes"/>
      <point x="575" y="142"/>
      <point x="506" y="66"/>
    </contour>
  </outline>
</glyph>
<glyph name="r" format="2">
  <advance width="720"/>
  <unicode hex="0072"/>
  <anchor x="324" y="0" name="bottom"/>
  <anchor x="407" y="537" name="top"/>
  <anchor x="718" y="537" name="topright"/>
  <outline>
    <contour>
      <point x="68" y="0" type="line"/>
      <point x="587" y="0" type="line"/>
      <point x="587" y="63" type="line"/>
      <point x="369" y="77" type="line"/>
      <point x="369" y="267" type="line" smooth="yes"/>
      <point x="369" y="376"/>
      <point x="444" y="461"/>
      <point x="570" y="461" type="curve" smooth="yes"/>
      <point x="610" y="461"/>
      <point x="650" y="454"/>
      <point x="681" y="442" type="curve"/>
      <point x="705" y="527" type="line"/>
      <point x="668" y="540"/>
      <point x="623" y="547"/>
      <point x="575" y="547" type="curve" smooth="yes"/>
      <point x="470" y="547"/>
      <point x="404" y="508"/>
      <point x="368" y="440" type="curve"/>
      <point x="363" y="440" type="line"/>
      <point x="353" y="537" type="line"/>
      <point x="88" y="537" type="line"/>
      <point x="88" y="472" type="line"/>
      <point x="277" y="459" type="line"/>
      <point x="277" y="77" type="line"/>
      <point x="68" y="63" type="line"/>
    </contour>
  </outline>
</glyph>
<glyph name="s" format="2">
  <advance width="720"/>
  <unicode hex="0073"/>
  <anchor x="366" y="0" name="bottom"/>
  <anchor x="366" y="537" name="top"/>
  <anchor x="718" y="537" name="topright"/>
  <outline>
    <contour>
      <point x="338" y="-10" type="curve" smooth="yes"/>
      <point x="521" y="-10"/>
      <point x="610" y="45"/>
      <point x="610" y="146" type="curve" smooth="yes"/>
      <point x="610" y="237"/>
      <point x="526" y="263"/>
      <point x="396" y="306" type="curve" smooth="yes"/>
      <point x="277" y="347"/>
      <point x="221" y="363"/>
      <point x="221" y="405" type="curve" smooth="yes"/>
      <point x="221" y="448"/>
      <point x="276" y="470"/>
      <point x="385" y="470" type="curve" smooth="yes"/>
      <point x="444" y="470"/>
      <point x="503" y="463"/>
      <point x="565" y="440" type="curve"/>
      <point x="596" y="513" type="line"/>
      <point x="528" y="537"/>
      <point x="462" y="547"/>
      <point x="385" y="547" type="curve" smooth="yes"/>
      <point x="224" y="547"/>
      <point x="130" y="499"/>
      <point x="130" y="403" type="curve" smooth="yes"/>
      <point x="130" y="318"/>
      <point x="217" y="287"/>
      <point x="339" y="242" type="curve" smooth="yes"/>
      <point x="465" y="196"/>
      <point x="516" y="186"/>
      <point x="516" y="144" type="curve" smooth="yes"/>
      <point x="516" y="95"/>
      <point x="469" y="67"/>
      <point x="343" y="67" type="curve" smooth="yes"/>
      <point x="253" y="67"/>
      <point x="179" y="87"/>
      <point x="115" y="109" type="curve"/>
      <point x="115" y="24" type="line"/>
      <point x="170" y="2"/>
      <point x="251" y="-10"/>
    </contour>
  </outline>
</glyph>
<glyph name="t" format="2">
  <advance width="720"/>
  <unicode hex="0074"/>
  <anchor x="464" y="0" name="bottom"/>
  <anchor x="311" y="274" name="center"/>
  <anchor x="319" y="679" name="top"/>
  <anchor x="718" y="679" name="topright"/>
  <outline>
    <contour>
      <point x="495" y="-10" type="curve" smooth="yes"/>
      <point x="547" y="-10"/>
      <point x="590" y="-3"/>
      <point x="629" y="6" type="curve"/>
      <point x="629" y="82" type="line"/>
      <point x="592" y="74"/>
      <point x="548" y="67"/>
      <point x="506" y="67" type="curve" smooth="yes"/>
      <point x="397" y="67"/>
      <point x="355" y="99"/>
      <point x="355" y="177" type="curve" smooth="yes"/>
      <point x="355" y="459" type="line"/>
      <point x="626" y="459" type="line"/>
      <point x="626" y="537" type="line"/>
      <point x="356" y="537" type="line"/>
      <point x="356" y="679" type="line"/>
      <point x="284" y="679" type="line"/>
      <point x="263" y="540" type="line"/>
      <point x="61" y="519" type="line"/>
      <point x="61" y="459" type="line"/>
      <point x="262" y="459" type="line"/>
      <point x="262" y="160" type="line" smooth="yes"/>
      <point x="262" y="30"/>
      <point x="346" y="-10"/>
    </contour>
  </outline>
</glyph>
<glyph name="u" format="2">
  <advance width="720"/>
  <unicode hex="0075"/>
  <anchor x="361" y="0" name="bottom"/>
  <anchor x="668" y="10" name="ogonek"/>
  <anchor x="361" y="537" name="top"/>
  <anchor x="718" y="537" name="topright"/>
  <outline>
    <contour>
      <point x="317" y="-10" type="curve" smooth="yes"/>
      <point x="428" y="-10"/>
      <point x="501" y="13"/>
      <point x="540" y="72" type="curve"/>
      <point x="546" y="72" type="line"/>
      <point x="559" y="0" type="line"/>
      <point x="635" y="0" type="line"/>
      <point x="635" y="537" type="line"/>
      <point x="542" y="537" type="line"/>
      <point x="542" y="260" type="line" smooth="yes"/>
      <point x="542" y="139"/>
      <point x="476" y="66"/>
      <point x="341" y="66" type="curve" smooth="yes"/>
      <point x="226" y="66"/>
      <point x="174" y="108"/>
      <point x="174" y="195" type="curve" smooth="yes"/>
      <point x="174" y="537" type="line"/>
      <point x="81" y="537" type="line"/>
      <point x="81" y="178" type="line" smooth="yes"/>
      <point x="81" y="53"/>
      <point x="159" y="-10"/>
    </contour>
  </outline>
</glyph>
<glyph name="v" format="2">
  <advance width="720"/>
  <unicode hex="0076"/>
  <anchor x="361" y="0" name="bottom"/>
  <anchor x="361" y="537" name="top"/>
  <anchor x="718" y="537" name="topright"/>
  <outline>
    <contour>
      <point x="306" y="0" type="line"/>
      <point x="413" y="0" type="line"/>
      <point x="672" y="537" type="line"/>
      <point x="575" y="537" type="line"/>
      <point x="420" y="220" type="line" smooth="yes"/>
      <point x="400" y="179"/>
      <point x="381" y="129"/>
      <point x="362" y="79" type="curve"/>
      <point x="360" y="79" type="line"/>
      <point x="341" y="129"/>
      <point x="322" y="178"/>
      <point x="302" y="220" type="curve" smooth="yes"/>
      <point x="145" y="537" type="line"/>
      <point x="49" y="537" type="line"/>
    </contour>
  </outline>
</glyph>
<glyph name="w" format="2">
  <advance width="720"/>
  <unicode hex="0077"/>
  <anchor x="364" y="0" name="bottom"/>
  <anchor x="364" y="537" name="top"/>
  <anchor x="718" y="537" name="topright"/>
  <outline>
    <contour>
      <point x="129" y="0" type="line"/>
      <point x="236" y="0" type="line"/>
      <point x="313" y="191" type="line" smooth="yes"/>
      <point x="333" y="243"/>
      <point x="348" y="300"/>
      <point x="360" y="353" type="curve"/>
      <point x="364" y="353" type="line"/>
      <point x="376" y="300"/>
      <point x="391" y="244"/>
      <point x="412" y="192" type="curve" smooth="yes"/>
      <point x="488" y="0" type="line"/>
      <point x="597" y="0" type="line"/>
      <point x="722" y="537" type="line"/>
      <point x="638" y="537" type="line"/>
      <point x="569" y="268" type="line" smooth="yes"/>
      <point x="551" y="199"/>
      <point x="548" y="143"/>
      <point x="542" y="78" type="curve"/>
      <point x="538" y="78" type="line"/>
      <point x="530" y="116"/>
      <point x="515" y="197"/>
      <point x="492" y="251" type="curve" smooth="yes"/>
      <point x="412" y="441" type="line"/>
      <point x="314" y="441" type="line"/>
      <point x="233" y="251" type="line" smooth="yes"/>
      <point x="209" y="198"/>
      <point x="195" y="112"/>
      <point x="188" y="78" type="curve"/>
      <point x="184" y="78" type="line"/>
      <point x="178" y="145"/>
      <point x="175" y="202"/>
      <point x="157" y="268" type="curve" smooth="yes"/>
      <point x="87" y="537" type="line"/>
      <point x="0" y="537" type="line"/>
    </contour>
  </outline>
</glyph>
<glyph name="x" format="2">
  <advance width="720"/>
  <unicode hex="0078"/>
  <anchor x="361" y="0" name="bottom"/>
  <anchor x="361" y="537" name="top"/>
  <anchor x="718" y="537" name="topright"/>
  <outline>
    <contour>
      <point x="49" y="0" type="line"/>
      <point x="156" y="0" type="line"/>
      <point x="360" y="210" type="line"/>
      <point x="565" y="0" type="line"/>
      <point x="672" y="0" type="line"/>
      <point x="415" y="274" type="line"/>
      <point x="659" y="537" type="line"/>
      <point x="554" y="537" type="line"/>
      <point x="359" y="340" type="line"/>
      <point x="169" y="537" type="line"/>
      <point x="63" y="537" type="line"/>
      <point x="304" y="275" type="line"/>
    </contour>
  </outline>
</glyph>
<glyph name="y" format="2">
  <advance width="720"/>
  <unicode hex="0079"/>
  <anchor x="361" y="-245" name="bottom"/>
  <anchor x="361" y="537" name="top"/>
  <anchor x="718" y="537" name="topright"/>
  <outline>
    <contour>
      <point x="151" y="-245" type="curve" smooth="yes"/>
      <point x="275" y="-245"/>
      <point x="326" y="-174"/>
      <point x="376" y="-71" type="curve" smooth="yes"/>
      <point x="672" y="537" type="line"/>
      <point x="576" y="537" type="line"/>
      <point x="428" y="226" type="line" smooth="yes"/>
      <point x="408" y="184"/>
      <point x="389" y="130"/>
      <point x="372" y="84" type="curve"/>
      <point x="369" y="84" type="line"/>
      <point x="352" y="130"/>
      <point x="333" y="180"/>
      <point x="311" y="225" type="curve" smooth="yes"/>
      <point x="145" y="537" type="line"/>
      <point x="52" y="537" type="line"/>
      <point x="327" y="-5" type="line"/>
      <point x="286" y="-75" type="line" smooth="yes"/>
      <point x="248" y="-142"/>
      <point x="214" y="-170"/>
      <point x="141" y="-170" type="curve" smooth="yes"/>
      <point x="115" y="-170"/>
      <point x="89" y="-167"/>
      <point x="67" y="-164" type="curve"/>
      <point x="67" y="-237" type="line"/>
      <point x="92" y="-241"/>
      <point x="121" y="-245"/>
    </contour>
  </outline>
</glyph>
<glyph name="z" format="2">
  <advance width="720"/>
  <unicode hex="007A"/>
  <anchor x="373" y="0" name="bottom"/>
  <anchor x="373" y="537" name="top"/>
  <anchor x="718" y="537" name="topright"/>
  <outline>
    <contour>
      <point x="99" y="0" type="line"/>
      <point x="621" y="0" type="line"/>
      <point x="621" y="79" type="line"/>
      <point x="212" y="79" type="line"/>
      <point x="615" y="464" type="line"/>
      <point x="615" y="537" type="line"/>
      <point x="125" y="537" type="line"/>
      <point x="125" y="463" type="line"/>
      <point x="509" y="463" type="line"/>
      <point x="99" y="63" type="line"/>
    </contour>
  </outline>
</glyph>
<glyph name="braceleft" format="2">
  <advance width="720"/>
  <unicode hex="007B"/>
  <outline>
    <contour>
      <point x="559" y="-160" type="curve"/>
      <point x="559" y="-85" type="line"/>
      <point x="451" y="-84"/>
      <point x="405" y="-58"/>
      <point x="405" y="6" type="curve" smooth="yes"/>
      <point x="405" y="153" type="line" smooth="yes"/>
      <point x="405" y="222"/>
      <point x="369" y="263"/>
      <point x="279" y="276" type="curve"/>
      <point x="279" y="281" type="line"/>
      <point x="367" y="294"/>
      <point x="405" y="334"/>
      <point x="405" y="404" type="curve" smooth="yes"/>
      <point x="405" y="549" type="line" smooth="yes"/>
      <point x="405" y="614"/>
      <point x="454" y="639"/>
      <point x="559" y="641" type="curve"/>
      <point x="559" y="716" type="line"/>
      <point x="396" y="715"/>
      <point x="315" y="663"/>
      <point x="315" y="557" type="curve" smooth="yes"/>
      <point x="315" y="409" type="line" smooth="yes"/>
      <point x="315" y="341"/>
      <point x="267" y="316"/>
      <point x="166" y="316" type="curve"/>
      <point x="166" y="241" type="line"/>
      <point x="269" y="241"/>
      <point x="315" y="214"/>
      <point x="315" y="147" type="curve" smooth="yes"/>
      <point x="315" y="0" type="line" smooth="yes"/>
      <point x="315" y="-108"/>
      <point x="394" y="-158"/>
    </contour>
  </outline>
</glyph>
<glyph name="bar" format="2">
  <advance width="720"/>
  <unicode hex="007C"/>
  <outline>
    <contour>
      <point x="322" y="-240" type="line"/>
      <point x="400" y="-240" type="line"/>
      <point x="400" y="760" type="line"/>
      <point x="322" y="760" type="line"/>
    </contour>
  </outline>
</glyph>
<glyph name="asciitilde" format="2">
  <advance width="720"/>
  <unicode hex="007E"/>
  <outline>
    <contour>
      <point x="77" y="286" type="line"/>
      <point x="122" y="320"/>
      <point x="176" y="345"/>
      <point x="225" y="345" type="curve" smooth="yes"/>
      <point x="266" y="345"/>
      <point x="298" y="335"/>
      <point x="346" y="317" type="curve" smooth="yes"/>
      <point x="406" y="296"/>
      <point x="443" y="287"/>
      <point x="495" y="287" type="curve" smooth="yes"/>
      <point x="556" y="287"/>
      <point x="608" y="305"/>
      <point x="645" y="339" type="curve"/>
      <point x="645" y="419" type="line"/>
      <point x="601" y="386"/>
      <point x="547" y="360"/>
      <point x="500" y="360" type="curve" smooth="yes"/>
      <point x="460" y="360"/>
      <point x="426" y="369"/>
      <point x="377" y="388" type="curve" smooth="yes"/>
      <point x="319" y="410"/>
      <point x="284" y="419"/>
      <point x="230" y="419" type="curve" smooth="yes"/>
      <point x="169" y="419"/>
      <point x="117" y="401"/>
      <point x="77" y="366" type="curve"/>
    </contour>
  </outline>
</glyph>
<glyph name="cent" format="2">
  <advance width="720"/>
  <unicode hex="00A2"/>
  <outline>
    <contour>
      <point x="373" y="-10" type="line"/>
      <point x="440" y="-10" type="line"/>
      <point x="440" y="87" type="line"/>
      <point x="507" y="90"/>
      <point x="565" y="100"/>
      <point x="606" y="117" type="curve"/>
      <point x="606" y="196" type="line"/>
      <point x="555" y="179"/>
      <point x="490" y="166"/>
      <point x="422" y="166" type="curve" smooth="yes"/>
      <point x="264" y="166"/>
      <point x="188" y="226"/>
      <point x="188" y="363" type="curve" smooth="yes"/>
      <point x="188" y="499"/>
      <point x="273" y="566"/>
      <point x="433" y="566" type="curve" smooth="yes"/>
      <point x="486" y="566"/>
      <point x="542" y="554"/>
      <point x="589" y="540" type="curve"/>
      <point x="615" y="615" type="line"/>
      <point x="570" y="631"/>
      <point x="508" y="642"/>
      <point x="441" y="644" type="curve"/>
      <point x="441" y="724" type="line"/>
      <point x="373" y="724" type="line"/>
      <point x="373" y="640" type="line"/>
      <point x="200" y="623"/>
      <point x="95" y="532"/>
      <point x="95" y="362" type="curve" smooth="yes"/>
      <point x="95" y="189"/>
      <point x="192" y="106"/>
      <point x="373" y="89" type="curve"/>
    </contour>
  </outline>
</glyph>
<glyph name="sterling" format="2">
  <advance width="720"/>
  <unicode hex="00A3"/>
  <outline>
    <contour>
      <point x="93" y="0" type="line"/>
      <point x="659" y="0" type="line"/>
      <point x="659" y="83" type="line"/>
      <point x="223" y="83" type="line"/>
      <point x="275" y="106"/>
      <point x="314" y="161"/>
      <point x="314" y="218" type="curve" smooth="yes"/>
      <point x="314" y="321" type="line"/>
      <point x="538" y="321" type="line"/>
      <point x="538" y="390" type="line"/>
      <point x="314" y="390" type="line"/>
      <point x="314" y="527" type="line" smooth="yes"/>
      <point x="314" y="611"/>
      <point x="364" y="644"/>
      <point x="469" y="644" type="curve" smooth="yes"/>
      <point x="520" y="644"/>
      <point x="566" y="634"/>
      <point x="618" y="611" type="curve"/>
      <point x="651" y="682" type="line"/>
      <point x="596" y="709"/>
      <point x="538" y="723"/>
      <point x="461" y="723" type="curve" smooth="yes"/>
      <point x="309" y="723"/>
      <point x="222" y="655"/>
      <point x="222" y="535" type="curve" smooth="yes"/>
      <point x="222" y="390" type="line"/>
      <point x="101" y="390" type="line"/>
      <point x="101" y="321" type="line"/>
      <point x="222" y="321" type="line"/>
      <point x="222" y="217" type="line" smooth="yes"/>
      <point x="222" y="134"/>
      <point x="174" y="94"/>
      <point x="93" y="77" type="curve"/>
    </contour>
  </outline>
</glyph>
<glyph name="currency" format="2">
  <advance width="720"/>
  <unicode hex="00A4"/>
  <outline>
    <contour>
      <point x="611" y="131" type="line"/>
      <point x="662" y="180" type="line"/>
      <point x="571" y="246" type="line"/>
      <point x="605" y="279"/>
      <point x="625" y="317"/>
      <point x="625" y="359" type="curve" smooth="yes"/>
      <point x="625" y="401"/>
      <point x="605" y="441"/>
      <point x="572" y="471" type="curve"/>
      <point x="663" y="539" type="line"/>
      <point x="612" y="587" type="line"/>
      <point x="519" y="522" type="line"/>
      <point x="474" y="545"/>
      <point x="419" y="558"/>
      <point x="362" y="558" type="curve" smooth="yes"/>
      <point x="303" y="558"/>
      <point x="247" y="545"/>
      <point x="203" y="522" type="curve"/>
      <point x="110" y="587" type="line"/>
      <point x="59" y="539" type="line"/>
      <point x="151" y="470" type="line"/>
      <point x="116" y="439"/>
      <point x="99" y="400"/>
      <point x="99" y="360" type="curve" smooth="yes"/>
      <point x="99" y="318"/>
      <point x="118" y="280"/>
      <point x="152" y="247" type="curve"/>
      <point x="61" y="181" type="line"/>
      <point x="112" y="132" type="line"/>
      <point x="204" y="197" type="line"/>
      <point x="248" y="174"/>
      <point x="303" y="161"/>
      <point x="361" y="161" type="curve" smooth="yes"/>
      <point x="419" y="161"/>
      <point x="473" y="174"/>
      <point x="518" y="196" type="curve"/>
    </contour>
    <contour>
      <point x="361" y="231" type="curve" smooth="yes"/>
      <point x="255" y="231"/>
      <point x="171" y="281"/>
      <point x="171" y="359" type="curve" smooth="yes"/>
      <point x="171" y="438"/>
      <point x="252" y="490"/>
      <point x="363" y="490" type="curve" smooth="yes"/>
      <point x="471" y="490"/>
      <point x="552" y="439"/>
      <point x="552" y="360" type="curve" smooth="yes"/>
      <point x="552" y="282"/>
      <point x="470" y="231"/>
    </contour>
  </outline>
</glyph>
<glyph name="yen" format="2">
  <advance width="720"/>
  <unicode hex="00A5"/>
  <outline>
    <contour>
      <point x="315" y="0" type="line"/>
      <point x="407" y="0" type="line"/>
      <point x="407" y="128" type="line"/>
      <point x="603" y="128" type="line"/>
      <point x="603" y="193" type="line"/>
      <point x="407" y="193" type="line"/>
      <point x="407" y="274" type="line"/>
      <point x="603" y="274" type="line"/>
      <point x="603" y="339" type="line"/>
      <point x="430" y="339" type="line"/>
      <point x="691" y="714" type="line"/>
      <point x="593" y="714" type="line"/>
      <point x="361" y="374" type="line"/>
      <point x="130" y="714" type="line"/>
      <point x="31" y="714" type="line"/>
      <point x="289" y="339" type="line"/>
      <point x="120" y="339" type="line"/>
      <point x="120" y="274" type="line"/>
      <point x="315" y="274" type="line"/>
      <point x="315" y="193" type="line"/>
      <point x="120" y="193" type="line"/>
      <point x="120" y="128" type="line"/>
      <point x="315" y="128" type="line"/>
    </contour>
  </outline>
</glyph>
<glyph name="brokenbar" format="2">
  <advance width="720"/>
  <unicode hex="00A6"/>
  <outline>
    <contour>
      <point x="321" y="375" type="line"/>
      <point x="399" y="375" type="line"/>
      <point x="399" y="760" type="line"/>
      <point x="321" y="760" type="line"/>
    </contour>
    <contour>
      <point x="321" y="-239" type="line"/>
      <point x="399" y="-239" type="line"/>
      <point x="399" y="146" type="line"/>
      <point x="321" y="146" type="line"/>
    </contour>
  </outline>
</glyph>
<glyph name="section" format="2">
  <advance width="720"/>
  <unicode hex="00A7"/>
  <outline>
    <contour>
      <point x="334" y="-10" type="curve" smooth="yes"/>
      <point x="502" y="-10"/>
      <point x="597" y="43"/>
      <point x="597" y="134" type="curve" smooth="yes"/>
      <point x="597" y="186"/>
      <point x="559" y="221"/>
      <point x="498" y="251" type="curve"/>
      <point x="558" y="274"/>
      <point x="607" y="318"/>
      <point x="607" y="382" type="curve" smooth="yes"/>
      <point x="607" y="464"/>
      <point x="512" y="502"/>
      <point x="395" y="540" type="curve" smooth="yes"/>
      <point x="290" y="573"/>
      <point x="233" y="599"/>
      <point x="233" y="638" type="curve" smooth="yes"/>
      <point x="233" y="675"/>
      <point x="284" y="699"/>
      <point x="386" y="699" type="curve" smooth="yes"/>
      <point x="454" y="699"/>
      <point x="510" y="688"/>
      <point x="562" y="668" type="curve"/>
      <point x="591" y="732" type="line"/>
      <point x="532" y="753"/>
      <point x="471" y="765"/>
      <point x="388" y="765" type="curve" smooth="yes"/>
      <point x="237" y="765"/>
      <point x="149" y="717"/>
      <point x="149" y="636" type="curve" smooth="yes"/>
      <point x="149" y="582"/>
      <point x="191" y="544"/>
      <point x="258" y="518" type="curve"/>
      <point x="189" y="497"/>
      <point x="136" y="456"/>
      <point x="136" y="393" type="curve" smooth="yes"/>
      <point x="136" y="312"/>
      <point x="214" y="277"/>
      <point x="341" y="233" type="curve" smooth="yes"/>
      <point x="457" y="195"/>
      <point x="512" y="171"/>
      <point x="512" y="129" type="curve" smooth="yes"/>
      <point x="512" y="87"/>
      <point x="457" y="56"/>
      <point x="336" y="56" type="curve" smooth="yes"/>
      <point x="260" y="56"/>
      <point x="178" y="78"/>
      <point x="121" y="99" type="curve"/>
      <point x="121" y="24" type="line"/>
      <point x="172" y="2"/>
      <point x="245" y="-10"/>
    </contour>
    <contour>
      <point x="434" y="281" type="curve"/>
      <point x="385" y="296" type="line" smooth="yes"/>
      <point x="277" y="324"/>
      <point x="213" y="354"/>
      <point x="213" y="404" type="curve" smooth="yes"/>
      <point x="213" y="444"/>
      <point x="263" y="476"/>
      <point x="327" y="486" type="curve"/>
      <point x="472" y="446"/>
      <point x="528" y="418"/>
      <point x="528" y="369" type="curve" smooth="yes"/>
      <point x="528" y="328"/>
      <point x="487" y="299"/>
    </contour>
  </outline>
</glyph>
<glyph name="dieresis" format="2">
  <advance width="720"/>
  <unicode hex="00A8"/>
  <anchor x="361" y="537" name="_top"/>
  <anchor x="361" y="647" name="top"/>
  <outline>
    <contour>
      <point x="500" y="622" type="curve" smooth="yes"/>
      <point x="537" y="622"/>
      <point x="560" y="642"/>
      <point x="560" y="683" type="curve" smooth="yes"/>
      <point x="560" y="725"/>
      <point x="537" y="742"/>
      <point x="500" y="742" type="curve" smooth="yes"/>
      <point x="464" y="742"/>
      <point x="440" y="725"/>
      <point x="440" y="683" type="curve" smooth="yes"/>
      <point x="440" y="642"/>
      <point x="464" y="622"/>
    </contour>
    <contour>
      <point x="222" y="622" type="curve" smooth="yes"/>
      <point x="258" y="622"/>
      <point x="282" y="642"/>
      <point x="282" y="683" type="curve" smooth="yes"/>
      <point x="282" y="725"/>
      <point x="258" y="742"/>
      <point x="222" y="742" type="curve" smooth="yes"/>
      <point x="185" y="742"/>
      <point x="162" y="725"/>
      <point x="162" y="683" type="curve" smooth="yes"/>
      <point x="162" y="642"/>
      <point x="185" y="622"/>
    </contour>
  </outline>
</glyph>
<glyph name="copyright" format="2">
  <advance width="720"/>
  <unicode hex="00A9"/>
  <outline>
    <contour>
      <point x="360" y="110" type="curve"/>
      <point x="555" y="110"/>
      <point x="695" y="210"/>
      <point x="695" y="361" type="curve" smooth="yes"/>
      <point x="695" y="508"/>
      <point x="562" y="610"/>
      <point x="363" y="610" type="curve" smooth="yes"/>
      <point x="167" y="610"/>
      <point x="27" y="509"/>
      <point x="27" y="359" type="curve" smooth="yes"/>
      <point x="27" y="212"/>
      <point x="158" y="110"/>
    </contour>
    <contour>
      <point x="377" y="203" type="curve" smooth="yes"/>
      <point x="416" y="203"/>
      <point x="447" y="209"/>
      <point x="477" y="219" type="curve"/>
      <point x="477" y="268" type="line"/>
      <point x="443" y="259"/>
      <point x="409" y="253"/>
      <point x="380" y="253" type="curve" smooth="yes"/>
      <point x="295" y="253"/>
      <point x="249" y="291"/>
      <point x="249" y="356" type="curve" smooth="yes"/>
      <point x="249" y="427"/>
      <point x="298" y="463"/>
      <point x="381" y="463" type="curve" smooth="yes"/>
      <point x="411" y="463"/>
      <point x="442" y="459"/>
      <point x="471" y="447" type="curve"/>
      <point x="493" y="494" type="line"/>
      <point x="460" y="508"/>
      <point x="419" y="515"/>
      <point x="380" y="515" type="curve" smooth="yes"/>
      <point x="257" y="515"/>
      <point x="188" y="450"/>
      <point x="188" y="356" type="curve" smooth="yes"/>
      <point x="188" y="266"/>
      <point x="255" y="203"/>
    </contour>
    <contour>
      <point x="360" y="157" type="curve"/>
      <point x="195" y="157"/>
      <point x="83" y="237"/>
      <point x="83" y="361" type="curve" smooth="yes"/>
      <point x="83" y="485"/>
      <point x="198" y="561"/>
      <point x="361" y="561" type="curve" smooth="yes"/>
      <point x="526" y="561"/>
      <point x="639" y="482"/>
      <point x="639" y="358" type="curve" smooth="yes"/>
      <point x="639" y="232"/>
      <point x="524" y="157"/>
    </contour>
  </outline>
</glyph>
<glyph name="ordfeminine" format="2">
  <advance width="720"/>
  <unicode hex="00AA"/>
  <outline>
    <contour>
      <point x="315" y="381" type="curve" smooth="yes"/>
      <point x="385" y="381"/>
      <point x="432" y="400"/>
      <point x="463" y="432" type="curve"/>
      <point x="474" y="387" type="line"/>
      <point x="526" y="387" type="line"/>
      <point x="526" y="608" type="line" smooth="yes"/>
      <point x="526" y="686"/>
      <point x="469" y="722"/>
      <point x="360" y="722" type="curve" smooth="yes"/>
      <point x="300" y="722"/>
      <point x="249" y="711"/>
      <point x="206" y="693" type="curve"/>
      <point x="230" y="643" type="line"/>
      <point x="269" y="658"/>
      <point x="309" y="668"/>
      <point x="353" y="668" type="curve" smooth="yes"/>
      <point x="418" y="668"/>
      <point x="458" y="653"/>
      <point x="458" y="611" type="curve" smooth="yes"/>
      <point x="458" y="590" type="line"/>
      <point x="380" y="588" type="line" smooth="yes"/>
      <point x="244" y="584"/>
      <point x="177" y="550"/>
      <point x="177" y="479" type="curve" smooth="yes"/>
      <point x="177" y="415"/>
      <point x="234" y="381"/>
    </contour>
    <contour>
      <point x="334" y="435" type="curve" smooth="yes"/>
      <point x="281" y="435"/>
      <point x="248" y="448"/>
      <point x="248" y="483" type="curve" smooth="yes"/>
      <point x="248" y="518"/>
      <point x="287" y="536"/>
      <point x="387" y="540" type="curve" smooth="yes"/>
      <point x="458" y="543" type="line"/>
      <point x="458" y="520" type="line" smooth="yes"/>
      <point x="458" y="468"/>
      <point x="416" y="435"/>
    </contour>
  </outline>
</glyph>
<glyph name="guillemotleft" format="2">
  <advance width="720"/>
  <unicode hex="00AB"/>
  <outline>
    <contour>
      <point x="554" y="54" type="line"/>
      <point x="614" y="94" type="line"/>
      <point x="444" y="265" type="line"/>
      <point x="614" y="436" type="line"/>
      <point x="554" y="476" type="line"/>
      <point x="344" y="271" type="line"/>
      <point x="344" y="258" type="line"/>
    </contour>
    <contour>
      <point x="306" y="55" type="line"/>
      <point x="367" y="94" type="line"/>
      <point x="197" y="265" type="line"/>
      <point x="368" y="435" type="line"/>
      <point x="306" y="476" type="line"/>
      <point x="97" y="271" type="line"/>
      <point x="97" y="258" type="line"/>
    </contour>
  </outline>
</glyph>
<glyph name="logicalnot" format="2">
  <advance width="720"/>
  <unicode hex="00AC"/>
  <outline>
    <contour>
      <point x="553" y="125" type="line"/>
      <point x="629" y="125" type="line"/>
      <point x="629" y="389" type="line"/>
      <point x="66" y="389" type="line"/>
      <point x="66" y="316" type="line"/>
      <point x="553" y="316" type="line"/>
    </contour>
  </outline>
</glyph>
<glyph name="registered" format="2">
  <advance width="720"/>
  <unicode hex="00AE"/>
  <outline>
    <contour>
      <point x="360" y="110" type="curve"/>
      <point x="555" y="110"/>
      <point x="695" y="210"/>
      <point x="695" y="361" type="curve" smooth="yes"/>
      <point x="695" y="508"/>
      <point x="562" y="610"/>
      <point x="363" y="610" type="curve" smooth="yes"/>
      <point x="167" y="610"/>
      <point x="27" y="509"/>
      <point x="27" y="359" type="curve" smooth="yes"/>
      <point x="27" y="212"/>
      <point x="158" y="110"/>
    </contour>
    <contour>
      <point x="360" y="157" type="curve"/>
      <point x="195" y="157"/>
      <point x="83" y="237"/>
      <point x="83" y="361" type="curve" smooth="yes"/>
      <point x="83" y="485"/>
      <point x="198" y="561"/>
      <point x="360" y="561" type="curve" smooth="yes"/>
      <point x="526" y="561"/>
      <point x="639" y="482"/>
      <point x="639" y="358" type="curve" smooth="yes"/>
      <point x="639" y="232"/>
      <point x="524" y="157"/>
    </contour>
    <contour>
      <point x="240" y="210" type="line"/>
      <point x="294" y="210" type="line"/>
      <point x="294" y="325" type="line"/>
      <point x="370" y="325" type="line"/>
      <point x="467" y="210" type="line"/>
      <point x="533" y="210" type="line"/>
      <point x="423" y="338" type="line"/>
      <point x="466" y="349"/>
      <point x="504" y="374"/>
      <point x="504" y="423" type="curve" smooth="yes"/>
      <point x="504" y="478"/>
      <point x="453" y="513"/>
      <point x="358" y="513" type="curve" smooth="yes"/>
      <point x="240" y="513" type="line"/>
    </contour>
    <contour>
      <point x="294" y="369" type="line"/>
      <point x="294" y="466" type="line"/>
      <point x="356" y="466" type="line" smooth="yes"/>
      <point x="415" y="466"/>
      <point x="448" y="451"/>
      <point x="448" y="419" type="curve" smooth="yes"/>
      <point x="448" y="385"/>
      <point x="410" y="369"/>
      <point x="356" y="369" type="curve" smooth="yes"/>
    </contour>
  </outline>
</glyph>
<glyph name="overscore" format="2">
  <advance width="720"/>
  <unicode hex="00AF"/>
  <outline>
    <contour>
      <point x="181" y="622" type="line"/>
      <point x="541" y="622" type="line"/>
      <point x="541" y="694" type="line"/>
      <point x="181" y="694" type="line"/>
    </contour>
  </outline>
</glyph>
<glyph name="degree" format="2">
  <advance width="720"/>
  <unicode hex="00B0"/>
  <outline>
    <contour>
      <point x="361" y="428" type="curve" smooth="yes"/>
      <point x="470" y="428"/>
      <point x="553" y="489"/>
      <point x="553" y="575" type="curve" smooth="yes"/>
      <point x="553" y="661"/>
      <point x="467" y="724"/>
      <point x="361" y="724" type="curve" smooth="yes"/>
      <point x="253" y="724"/>
      <point x="169" y="662"/>
      <point x="169" y="576" type="curve" smooth="yes"/>
      <point x="169" y="490"/>
      <point x="251" y="428"/>
    </contour>
    <contour>
      <point x="362" y="488" type="curve" smooth="yes"/>
      <point x="291" y="488"/>
      <point x="234" y="521"/>
      <point x="234" y="575" type="curve" smooth="yes"/>
      <point x="234" y="630"/>
      <point x="289" y="663"/>
      <point x="361" y="663" type="curve" smooth="yes"/>
      <point x="432" y="663"/>
      <point x="487" y="630"/>
      <point x="487" y="576" type="curve" smooth="yes"/>
      <point x="487" y="521"/>
      <point x="432" y="488"/>
    </contour>
  </outline>
</glyph>
<glyph name="plusminus" format="2">
  <advance width="720"/>
  <unicode hex="00B1"/>
  <outline>
    <contour>
      <point x="322" y="130" type="line"/>
      <point x="398" y="130" type="line"/>
      <point x="398" y="326" type="line"/>
      <point x="647" y="326" type="line"/>
      <point x="647" y="399" type="line"/>
      <point x="398" y="399" type="line"/>
      <point x="398" y="596" type="line"/>
      <point x="322" y="596" type="line"/>
      <point x="322" y="399" type="line"/>
      <point x="72" y="399" type="line"/>
      <point x="72" y="326" type="line"/>
      <point x="322" y="326" type="line"/>
    </contour>
    <contour>
      <point x="75" y="0" type="line"/>
      <point x="647" y="0" type="line"/>
      <point x="647" y="74" type="line"/>
      <point x="75" y="74" type="line"/>
    </contour>
  </outline>
</glyph>
<glyph name="twosuperior" format="2">
  <advance width="720"/>
  <unicode hex="00B2"/>
  <outline>
    <contour>
      <point x="176" y="416" type="line"/>
      <point x="555" y="416" type="line"/>
      <point x="555" y="479" type="line"/>
      <point x="269" y="479" type="line"/>
      <point x="374" y="550" type="line" smooth="yes"/>
      <point x="481" y="627"/>
      <point x="538" y="668"/>
      <point x="538" y="736" type="curve" smooth="yes"/>
      <point x="538" y="808"/>
      <point x="473" y="853"/>
      <point x="362" y="853" type="curve" smooth="yes"/>
      <point x="292" y="853"/>
      <point x="232" y="831"/>
      <point x="185" y="797" type="curve"/>
      <point x="223" y="750" type="line"/>
      <point x="266" y="777"/>
      <point x="308" y="793"/>
      <point x="358" y="793" type="curve" smooth="yes"/>
      <point x="424" y="793"/>
      <point x="463" y="770"/>
      <point x="463" y="731" type="curve" smooth="yes"/>
      <point x="463" y="686"/>
      <point x="422" y="659"/>
      <point x="324" y="584" type="curve" smooth="yes"/>
      <point x="176" y="472" type="line"/>
    </contour>
  </outline>
</glyph>
<glyph name="threesuperior" format="2">
  <advance width="720"/>
  <unicode hex="00B3"/>
  <outline>
    <contour>
      <point x="334" y="408" type="curve" smooth="yes"/>
      <point x="470" y="408"/>
      <point x="545" y="459"/>
      <point x="545" y="536" type="curve" smooth="yes"/>
      <point x="545" y="592"/>
      <point x="506" y="626"/>
      <point x="437" y="638" type="curve"/>
      <point x="437" y="641" type="line"/>
      <point x="491" y="656"/>
      <point x="530" y="691"/>
      <point x="530" y="742" type="curve" smooth="yes"/>
      <point x="530" y="809"/>
      <point x="465" y="853"/>
      <point x="356" y="853" type="curve" smooth="yes"/>
      <point x="285" y="853"/>
      <point x="231" y="835"/>
      <point x="180" y="804" type="curve"/>
      <point x="216" y="756" type="line"/>
      <point x="260" y="779"/>
      <point x="302" y="793"/>
      <point x="352" y="793" type="curve" smooth="yes"/>
      <point x="416" y="793"/>
      <point x="455" y="773"/>
      <point x="455" y="734" type="curve" smooth="yes"/>
      <point x="455" y="693"/>
      <point x="412" y="665"/>
      <point x="328" y="665" type="curve" smooth="yes"/>
      <point x="256" y="665" type="line"/>
      <point x="256" y="608" type="line"/>
      <point x="329" y="608" type="line" smooth="yes"/>
      <point x="422" y="608"/>
      <point x="470" y="586"/>
      <point x="470" y="539" type="curve" smooth="yes"/>
      <point x="470" y="496"/>
      <point x="425" y="468"/>
      <point x="336" y="468" type="curve" smooth="yes"/>
      <point x="282" y="468"/>
      <point x="229" y="480"/>
      <point x="176" y="501" type="curve"/>
      <point x="176" y="435" type="line"/>
      <point x="223" y="416"/>
      <point x="277" y="408"/>
    </contour>
  </outline>
</glyph>
<glyph name="acute" format="2">
  <advance width="720"/>
  <unicode hex="00B4"/>
  <outline>
    <contour>
      <point x="305" y="606" type="line"/>
      <point x="367" y="606" type="line"/>
      <point x="431" y="642"/>
      <point x="519" y="718"/>
      <point x="558" y="756" type="curve"/>
      <point x="558" y="766" type="line"/>
      <point x="450" y="766" type="line"/>
      <point x="417" y="721"/>
      <point x="353" y="660"/>
      <point x="305" y="618" type="curve"/>
    </contour>
  </outline>
</glyph>
<glyph name="micro" format="2">
  <advance width="720"/>
  <unicode hex="00B5"/>
  <anchor x="339" y="537" name="top"/>
  <anchor x="646" y="10" name="ogonek"/>
  <anchor x="696" y="537" name="topright"/>
  <anchor x="339" y="0" name="bottom"/>
  <outline>
    <contour>
      <point x="81" y="-240" type="line"/>
      <point x="174" y="-240" type="line"/>
      <point x="174" y="227" type="line"/>
      <point x="81" y="227" type="line"/>
    </contour>
    <component base="u" xOffset="-22"/>
  </outline>
</glyph>
<glyph name="paragraph" format="2">
  <advance width="720"/>
  <unicode hex="00B6"/>
  <outline>
    <contour>
      <point x="356" y="-127" type="line"/>
      <point x="420" y="-127" type="line"/>
      <point x="420" y="702" type="line"/>
      <point x="566" y="702" type="line"/>
      <point x="566" y="-127" type="line"/>
      <point x="629" y="-127" type="line"/>
      <point x="629" y="760" type="line"/>
      <point x="295" y="760" type="line" smooth="yes"/>
      <point x="141" y="760"/>
      <point x="57" y="693"/>
      <point x="57" y="509" type="curve" smooth="yes"/>
      <point x="57" y="331"/>
      <point x="134" y="264"/>
      <point x="271" y="264" type="curve" smooth="yes"/>
      <point x="303" y="264"/>
      <point x="331" y="267"/>
      <point x="356" y="273" type="curve"/>
    </contour>
  </outline>
</glyph>
<glyph name="cedilla" format="2">
  <advance width="720"/>
  <unicode hex="00B8"/>
  <outline>
    <contour>
      <point x="316" y="-240" type="curve" smooth="yes"/>
      <point x="428" y="-240"/>
      <point x="491" y="-202"/>
      <point x="491" y="-140" type="curve" smooth="yes"/>
      <point x="491" y="-87"/>
      <point x="444" y="-62"/>
      <point x="375" y="-51" type="curve"/>
      <point x="410" y="4" type="line"/>
      <point x="349" y="4" type="line"/>
      <point x="295" y="-83" type="line"/>
      <point x="374" y="-91"/>
      <point x="416" y="-106"/>
      <point x="416" y="-139" type="curve" smooth="yes"/>
      <point x="416" y="-170"/>
      <point x="379" y="-183"/>
      <point x="312" y="-183" type="curve" smooth="yes"/>
      <point x="291" y="-183"/>
      <point x="266" y="-181"/>
      <point x="247" y="-177" type="curve"/>
      <point x="247" y="-234" type="line"/>
      <point x="264" y="-238"/>
      <point x="290" y="-240"/>
    </contour>
  </outline>
</glyph>
<glyph name="onesuperior" format="2">
  <advance width="720"/>
  <unicode hex="00B9"/>
  <outline>
    <contour>
      <point x="344" y="416" type="line"/>
      <point x="415" y="416" type="line"/>
      <point x="415" y="844" type="line"/>
      <point x="349" y="844" type="line"/>
      <point x="174" y="762" type="line"/>
      <point x="209" y="706" type="line"/>
      <point x="281" y="740" type="line" smooth="yes"/>
      <point x="307" y="751"/>
      <point x="326" y="760"/>
      <point x="346" y="771" type="curve"/>
      <point x="344" y="741"/>
      <point x="344" y="715"/>
      <point x="344" y="682" type="curve" smooth="yes"/>
    </contour>
    <contour>
      <point x="208" y="416" type="line"/>
      <point x="549" y="416" type="line"/>
      <point x="549" y="468" type="line"/>
      <point x="403" y="475" type="line"/>
      <point x="353" y="475" type="line"/>
      <point x="208" y="468" type="line"/>
    </contour>
  </outline>
</glyph>
<glyph name="ordmasculine" format="2">
  <advance width="720"/>
  <unicode hex="00BA"/>
  <outline>
    <contour>
      <point x="362" y="381" type="curve" smooth="yes"/>
      <point x="479" y="381"/>
      <point x="547" y="441"/>
      <point x="547" y="552" type="curve" smooth="yes"/>
      <point x="547" y="663"/>
      <point x="480" y="722"/>
      <point x="365" y="722" type="curve" smooth="yes"/>
      <point x="249" y="722"/>
      <point x="179" y="661"/>
      <point x="179" y="552" type="curve" smooth="yes"/>
      <point x="179" y="442"/>
      <point x="246" y="381"/>
    </contour>
    <contour>
      <point x="362" y="437" type="curve" smooth="yes"/>
      <point x="284" y="437"/>
      <point x="249" y="475"/>
      <point x="249" y="552" type="curve" smooth="yes"/>
      <point x="249" y="626"/>
      <point x="288" y="667"/>
      <point x="364" y="667" type="curve" smooth="yes"/>
      <point x="443" y="667"/>
      <point x="476" y="631"/>
      <point x="476" y="552" type="curve" smooth="yes"/>
      <point x="476" y="475"/>
      <point x="442" y="437"/>
    </contour>
  </outline>
</glyph>
<glyph name="AE" format="2">
  <advance width="720"/>
  <unicode hex="00C6"/>
  <anchor x="360" y="0" name="bottom"/>
  <anchor x="414" y="714" name="top"/>
  <outline>
    <contour>
      <point x="3" y="0" type="line"/>
      <point x="95" y="0" type="line"/>
      <point x="316" y="630" type="line"/>
      <point x="354" y="630" type="line"/>
      <point x="354" y="0" type="line"/>
      <point x="698" y="0" type="line"/>
      <point x="698" y="84" type="line"/>
      <point x="443" y="84" type="line"/>
      <point x="443" y="331" type="line"/>
      <point x="676" y="331" type="line"/>
      <point x="676" y="414" type="line"/>
      <point x="443" y="414" type="line"/>
      <point x="443" y="630" type="line"/>
      <point x="698" y="630" type="line"/>
      <point x="698" y="714" type="line"/>
      <point x="253" y="714" type="line"/>
    </contour>
    <contour>
      <point x="151" y="217" type="line"/>
      <point x="379" y="217" type="line"/>
      <point x="382" y="298" type="line"/>
      <point x="171" y="298" type="line"/>
    </contour>
  </outline>
</glyph>
<glyph name="Eth" format="2">
  <advance width="720"/>
  <unicode hex="00D0"/>
  <anchor x="361" y="0" name="bottom"/>
  <anchor x="361" y="714" name="top"/>
  <anchor x="735" y="714" name="topright"/>
  <anchor x="347" y="357" name="center"/>
  <outline>
    <contour>
      <point x="-22" y="316" type="line"/>
      <point x="354" y="316" type="line"/>
      <point x="354" y="397" type="line"/>
      <point x="-22" y="397" type="line"/>
    </contour>
    <component base="D" xOffset="-9"/>
  </outline>
</glyph>
<glyph name="multiply" format="2">
  <advance width="720"/>
  <unicode hex="00D7"/>
  <outline>
    <contour>
      <point x="139" y="146" type="line"/>
      <point x="360" y="301" type="line"/>
      <point x="584" y="146" type="line"/>
      <point x="636" y="197" type="line"/>
      <point x="414" y="353" type="line"/>
      <point x="638" y="509" type="line"/>
      <point x="585" y="561" type="line"/>
      <point x="361" y="404" type="line"/>
      <point x="138" y="560" type="line"/>
      <point x="86" y="508" type="line"/>
      <point x="308" y="353" type="line"/>
      <point x="86" y="197" type="line"/>
    </contour>
  </outline>
</glyph>
<glyph name="Oslash" format="2">
  <advance width="720"/>
  <unicode hex="00D8"/>
  <anchor x="361" y="0" name="bottom"/>
  <anchor x="361" y="714" name="top"/>
  <anchor x="-18" y="714" name="topleft"/>
  <anchor x="339" y="10" name="ogonek"/>
  <anchor x="339" y="357" name="center"/>
  <anchor x="722" y="714" name="topright"/>
  <outline>
    <contour>
      <point x="103" y="-39" type="line"/>
      <point x="681" y="714" type="line"/>
      <point x="616" y="750" type="line"/>
      <point x="37" y="-3" type="line"/>
    </contour>
    <component base="O" xOffset="-22"/>
  </outline>
</glyph>
<glyph name="Thorn" format="2">
  <advance width="720"/>
  <unicode hex="00DE"/>
  <anchor x="361" y="0" name="bottom"/>
  <anchor x="361" y="714" name="top"/>
  <outline>
    <contour>
      <point x="103" y="0" type="line"/>
      <point x="195" y="0" type="line"/>
      <point x="195" y="147" type="line"/>
      <point x="342" y="147" type="line" smooth="yes"/>
      <point x="573" y="147"/>
      <point x="673" y="254"/>
      <point x="673" y="377" type="curve" smooth="yes"/>
      <point x="673" y="511"/>
      <point x="574" y="587"/>
      <point x="363" y="587" type="curve" smooth="yes"/>
      <point x="195" y="587" type="line"/>
      <point x="195" y="714" type="line"/>
      <point x="103" y="714" type="line"/>
    </contour>
    <contour>
      <point x="195" y="228" type="line"/>
      <point x="195" y="505" type="line"/>
      <point x="353" y="505" type="line" smooth="yes"/>
      <point x="508" y="505"/>
      <point x="578" y="461"/>
      <point x="578" y="373" type="curve" smooth="yes"/>
      <point x="578" y="270"/>
      <point x="489" y="228"/>
      <point x="332" y="228" type="curve" smooth="yes"/>
    </contour>
  </outline>
</glyph>
<glyph name="germandbls" format="2">
  <advance width="720"/>
  <unicode hex="00DF"/>
  <anchor x="361" y="0" name="bottom"/>
  <anchor x="361" y="765" name="top"/>
  <outline>
    <contour>
      <point x="455" y="-10" type="curve" smooth="yes"/>
      <point x="600" y="-10"/>
      <point x="683" y="42"/>
      <point x="683" y="150" type="curve" smooth="yes"/>
      <point x="683" y="233"/>
      <point x="626" y="268"/>
      <point x="543" y="321" type="curve" smooth="yes"/>
      <point x="469" y="366"/>
      <point x="436" y="379"/>
      <point x="436" y="407" type="curve" smooth="yes"/>
      <point x="436" y="478"/>
      <point x="605" y="499"/>
      <point x="605" y="617" type="curve" smooth="yes"/>
      <point x="605" y="713"/>
      <point x="510" y="765"/>
      <point x="359" y="765" type="curve" smooth="yes"/>
      <point x="194" y="765"/>
      <point x="92" y="709"/>
      <point x="92" y="582" type="curve" smooth="yes"/>
      <point x="92" y="0" type="line"/>
      <point x="182" y="0" type="line"/>
      <point x="182" y="575" type="line" smooth="yes"/>
      <point x="182" y="657"/>
      <point x="248" y="687"/>
      <point x="357" y="687" type="curve" smooth="yes"/>
      <point x="453" y="687"/>
      <point x="510" y="661"/>
      <point x="510" y="608" type="curve" smooth="yes"/>
      <point x="510" y="520"/>
      <point x="344" y="511"/>
      <point x="344" y="402" type="curve" smooth="yes"/>
      <point x="344" y="344"/>
      <point x="396" y="311"/>
      <point x="476" y="264" type="curve" smooth="yes"/>
      <point x="554" y="216"/>
      <point x="592" y="199"/>
      <point x="592" y="152" type="curve" smooth="yes"/>
      <point x="592" y="97"/>
      <point x="547" y="67"/>
      <point x="452" y="67" type="curve" smooth="yes"/>
      <point x="388" y="67"/>
      <point x="330" y="86"/>
      <point x="283" y="106" type="curve"/>
      <point x="283" y="22" type="line"/>
      <point x="327" y="1"/>
      <point x="384" y="-10"/>
    </contour>
  </outline>
</glyph>
<glyph name="ae" format="2">
  <advance width="720"/>
  <unicode hex="00E6"/>
  <anchor x="361" y="0" name="bottom"/>
  <anchor x="361" y="537" name="top"/>
  <outline>
    <contour>
      <point x="170" y="-10" type="curve" smooth="yes"/>
      <point x="267" y="-10"/>
      <point x="324" y="20"/>
      <point x="357" y="97" type="curve"/>
      <point x="390" y="17"/>
      <point x="457" y="-10"/>
      <point x="552" y="-10" type="curve" smooth="yes"/>
      <point x="606" y="-10"/>
      <point x="647" y="0"/>
      <point x="692" y="26" type="curve"/>
      <point x="692" y="108" type="line"/>
      <point x="642" y="78"/>
      <point x="605" y="67"/>
      <point x="560" y="67" type="curve" smooth="yes"/>
      <point x="459" y="67"/>
      <point x="399" y="113"/>
      <point x="397" y="250" type="curve"/>
      <point x="713" y="250" type="line"/>
      <point x="713" y="306" type="line" smooth="yes"/>
      <point x="713" y="458"/>
      <point x="652" y="547"/>
      <point x="530" y="547" type="curve" smooth="yes"/>
      <point x="450" y="547"/>
      <point x="398" y="518"/>
      <point x="371" y="470" type="curve"/>
      <point x="349" y="524"/>
      <point x="293" y="547"/>
      <point x="208" y="547" type="curve" smooth="yes"/>
      <point x="151" y="547"/>
      <point x="88" y="526"/>
      <point x="44" y="500" type="curve"/>
      <point x="75" y="434" type="line"/>
      <point x="115" y="455"/>
      <point x="161" y="470"/>
      <point x="201" y="470" type="curve" smooth="yes"/>
      <point x="274" y="470"/>
      <point x="312" y="441"/>
      <point x="314" y="357" type="curve" smooth="yes"/>
      <point x="314" y="323" type="line"/>
      <point x="228" y="321" type="line" smooth="yes"/>
      <point x="91" y="317"/>
      <point x="8" y="258"/>
      <point x="8" y="149" type="curve" smooth="yes"/>
      <point x="8" y="43"/>
      <point x="71" y="-10"/>
    </contour>
    <contour>
      <point x="184" y="66" type="curve" smooth="yes"/>
      <point x="128" y="66"/>
      <point x="93" y="92"/>
      <point x="93" y="150" type="curve" smooth="yes"/>
      <point x="93" y="218"/>
      <point x="147" y="251"/>
      <point x="254" y="255" type="curve" smooth="yes"/>
      <point x="313" y="258" type="line"/>
      <point x="313" y="213" type="line" smooth="yes"/>
      <point x="313" y="104"/>
      <point x="262" y="66"/>
    </contour>
    <contour>
      <point x="399" y="322" type="line"/>
      <point x="405" y="419"/>
      <point x="450" y="470"/>
      <point x="523" y="470" type="curve" smooth="yes"/>
      <point x="597" y="470"/>
      <point x="629" y="420"/>
      <point x="629" y="322" type="curve"/>
    </contour>
  </outline>
</glyph>
<glyph name="eth" format="2">
  <advance width="720"/>
  <unicode hex="00F0"/>
  <anchor x="361" y="0" name="bottom"/>
  <anchor x="361" y="269" name="center"/>
  <anchor x="361" y="765" name="top"/>
  <anchor x="718" y="760" name="topright"/>
  <outline>
    <contour>
      <point x="363" y="-10" type="curve" smooth="yes"/>
      <point x="559" y="-10"/>
      <point x="670" y="85"/>
      <point x="670" y="274" type="curve" smooth="yes"/>
      <point x="670" y="486"/>
      <point x="529" y="669"/>
      <point x="257" y="765" type="curve"/>
      <point x="220" y="705" type="line"/>
      <point x="387" y="640"/>
      <point x="519" y="544"/>
      <point x="567" y="421" type="curve"/>
      <point x="562" y="419" type="line"/>
      <point x="522" y="457"/>
      <point x="451" y="475"/>
      <point x="354" y="475" type="curve" smooth="yes"/>
      <point x="174" y="475"/>
      <point x="52" y="384"/>
      <point x="52" y="234" type="curve" smooth="yes"/>
      <point x="52" y="85"/>
      <point x="175" y="-10"/>
    </contour>
    <contour>
      <point x="363" y="65" type="curve" smooth="yes"/>
      <point x="222" y="65"/>
      <point x="146" y="135"/>
      <point x="146" y="231" type="curve" smooth="yes"/>
      <point x="146" y="340"/>
      <point x="224" y="400"/>
      <point x="369" y="400" type="curve" smooth="yes"/>
      <point x="515" y="400"/>
      <point x="576" y="332"/>
      <point x="576" y="249" type="curve" smooth="yes"/>
      <point x="576" y="129"/>
      <point x="504" y="65"/>
    </contour>
    <contour>
      <point x="234" y="537" type="line"/>
      <point x="597" y="706" type="line"/>
      <point x="558" y="762" type="line"/>
      <point x="195" y="593" type="line"/>
    </contour>
  </outline>
</glyph>
<glyph name="divide" format="2">
  <advance width="720"/>
  <unicode hex="00F7"/>
  <outline>
    <contour>
      <point x="74" y="316" type="line"/>
      <point x="648" y="316" type="line"/>
      <point x="648" y="389" type="line"/>
      <point x="74" y="389" type="line"/>
    </contour>
    <contour>
      <point x="361" y="116" type="curve" smooth="yes"/>
      <point x="398" y="116"/>
      <point x="420" y="135"/>
      <point x="420" y="178" type="curve" smooth="yes"/>
      <point x="420" y="223"/>
      <point x="399" y="240"/>
      <point x="361" y="240" type="curve" smooth="yes"/>
      <point x="323" y="240"/>
      <point x="301" y="223"/>
      <point x="301" y="178" type="curve" smooth="yes"/>
      <point x="301" y="135"/>
      <point x="323" y="116"/>
    </contour>
    <contour>
      <point x="361" y="464" type="curve" smooth="yes"/>
      <point x="398" y="464"/>
      <point x="420" y="483"/>
      <point x="420" y="527" type="curve" smooth="yes"/>
      <point x="420" y="571"/>
      <point x="399" y="589"/>
      <point x="361" y="589" type="curve" smooth="yes"/>
      <point x="323" y="589"/>
      <point x="301" y="571"/>
      <point x="301" y="527" type="curve" smooth="yes"/>
      <point x="301" y="483"/>
      <point x="323" y="464"/>
    </contour>
  </outline>
</glyph>
<glyph name="oslash" format="2">
  <advance width="720"/>
  <unicode hex="00F8"/>
  <anchor x="361" y="0" name="bottom"/>
  <anchor x="361" y="537" name="top"/>
  <anchor x="340" y="10" name="ogonek"/>
  <anchor x="696" y="537" name="topright"/>
  <anchor x="339" y="269" name="center"/>
  <outline>
    <contour>
      <point x="127" y="-38" type="line"/>
      <point x="669" y="533" type="line"/>
      <point x="609" y="570" type="line"/>
      <point x="68" y="0" type="line"/>
    </contour>
    <component base="o" xOffset="-22"/>
  </outline>
</glyph>
<glyph name="dcaron" format="2">
  <advance width="720"/>
  <unicode hex="010F"/>
  <anchor x="336" y="0" name="bottom"/>
  <anchor x="312" y="269" name="center"/>
  <anchor x="383" y="760" name="top"/>
  <anchor x="706" y="760" name="topright"/>
  <outline>
    <contour>
      <point x="290" y="-10" type="curve" smooth="yes"/>
      <point x="393" y="-10"/>
      <point x="456" y="23"/>
      <point x="493" y="72" type="curve"/>
      <point x="498" y="72" type="line"/>
      <point x="510" y="0" type="line"/>
      <point x="585" y="0" type="line"/>
      <point x="585" y="760" type="line"/>
      <point x="492" y="760" type="line"/>
      <point x="492" y="553" type="line" smooth="yes"/>
      <point x="492" y="523"/>
      <point x="494" y="495"/>
      <point x="499" y="468" type="curve"/>
      <point x="493" y="468" type="line"/>
      <point x="460" y="514"/>
      <point x="404" y="547"/>
      <point x="297" y="547" type="curve" smooth="yes"/>
      <point x="132" y="547"/>
      <point x="39" y="448"/>
      <point x="39" y="269" type="curve" smooth="yes"/>
      <point x="39" y="85"/>
      <point x="130" y="-10"/>
    </contour>
    <contour>
      <point x="311" y="67" type="curve" smooth="yes"/>
      <point x="190" y="67"/>
      <point x="134" y="131"/>
      <point x="134" y="263" type="curve" smooth="yes"/>
      <point x="134" y="402"/>
      <point x="197" y="470"/>
      <point x="316" y="470" type="curve" smooth="yes"/>
      <point x="443" y="470"/>
      <point x="494" y="385"/>
      <point x="494" y="267" type="curve" smooth="yes"/>
      <point x="494" y="248" type="line" smooth="yes"/>
      <point x="494" y="137"/>
      <point x="440" y="67"/>
    </contour>
    <component base="caroncommaaccent" xOffset="339" yOffset="31"/>
  </outline>
</glyph>
<glyph name="dcroat" format="2">
  <advance width="720"/>
  <unicode hex="0111"/>
  <anchor x="361" y="0" name="bottom"/>
  <anchor x="361" y="269" name="center"/>
  <anchor x="361" y="760" name="top"/>
  <anchor x="718" y="760" name="topright"/>
  <outline>
    <contour>
      <point x="326" y="-10" type="curve" smooth="yes"/>
      <point x="440" y="-10"/>
      <point x="505" y="24"/>
      <point x="543" y="72" type="curve"/>
      <point x="548" y="72" type="line"/>
      <point x="560" y="0" type="line"/>
      <point x="635" y="0" type="line"/>
      <point x="635" y="760" type="line"/>
      <point x="542" y="760" type="line"/>
      <point x="542" y="546" type="line" smooth="yes"/>
      <point x="542" y="518"/>
      <point x="545" y="489"/>
      <point x="549" y="463" type="curve"/>
      <point x="543" y="463" type="line"/>
      <point x="510" y="508"/>
      <point x="445" y="541"/>
      <point x="336" y="541" type="curve" smooth="yes"/>
      <point x="152" y="541"/>
      <point x="52" y="444"/>
      <point x="52" y="267" type="curve" smooth="yes"/>
      <point x="52" y="84"/>
      <point x="152" y="-10"/>
    </contour>
    <contour>
      <point x="347" y="67" type="curve" smooth="yes"/>
      <point x="212" y="67"/>
      <point x="147" y="131"/>
      <point x="147" y="258" type="curve" smooth="yes"/>
      <point x="147" y="396"/>
      <point x="220" y="465"/>
      <point x="353" y="465" type="curve" smooth="yes"/>
      <point x="491" y="465"/>
      <point x="544" y="381"/>
      <point x="544" y="264" type="curve" smooth="yes"/>
      <point x="544" y="244" type="line" smooth="yes"/>
      <point x="544" y="136"/>
      <point x="487" y="67"/>
    </contour>
    <contour>
      <point x="297" y="603" type="line"/>
      <point x="744" y="603" type="line"/>
      <point x="744" y="671" type="line"/>
      <point x="297" y="671" type="line"/>
    </contour>
  </outline>
</glyph>
<glyph name="eogonek" format="2">
  <advance width="720"/>
  <unicode hex="0119"/>
  <anchor x="384" y="-223" name="bottom"/>
  <anchor x="360" y="537" name="top"/>
  <anchor x="354" y="10" name="ogonek"/>
  <anchor x="696" y="537" name="topright"/>
  <outline>
    <contour>
      <point x="556" y="-223" type="curve" smooth="yes"/>
      <point x="584" y="-223"/>
      <point x="608" y="-218"/>
      <point x="628" y="-213" type="curve"/>
      <point x="628" y="-154" type="line"/>
      <point x="614" y="-158"/>
      <point x="592" y="-161"/>
      <point x="574" y="-161" type="curve" smooth="yes"/>
      <point x="527" y="-161"/>
      <point x="503" y="-143"/>
      <point x="503" y="-108" type="curve" smooth="yes"/>
      <point x="503" y="-57"/>
      <point x="569" y="-12"/>
      <point x="636" y="28" type="curve"/>
      <point x="580" y="32" type="line"/>
      <point x="499" y="-2"/>
      <point x="428" y="-50"/>
      <point x="428" y="-122" type="curve" smooth="yes"/>
      <point x="428" y="-180"/>
      <point x="473" y="-223"/>
    </contour>
    <component base="e" xOffset="-22"/>
  </outline>
</glyph>
<glyph name="Hbar" format="2">
  <advance width="720"/>
  <unicode hex="0126"/>
  <anchor x="361" y="0" name="bottom"/>
  <anchor x="361" y="357" name="center"/>
  <anchor x="361" y="714" name="top"/>
  <anchor x="4" y="714" name="topleft"/>
  <outline>
    <contour>
      <point x="-22" y="524" type="line"/>
      <point x="744" y="524" type="line"/>
      <point x="744" y="597" type="line"/>
      <point x="-22" y="597" type="line"/>
    </contour>
    <contour>
      <point x="74" y="0" type="line"/>
      <point x="167" y="0" type="line"/>
      <point x="167" y="330" type="line"/>
      <point x="555" y="330" type="line"/>
      <point x="555" y="0" type="line"/>
      <point x="648" y="0" type="line"/>
      <point x="648" y="714" type="line"/>
      <point x="555" y="714" type="line"/>
      <point x="555" y="414" type="line"/>
      <point x="167" y="414" type="line"/>
      <point x="167" y="714" type="line"/>
      <point x="74" y="714" type="line"/>
    </contour>
  </outline>
</glyph>
<glyph name="hbar" format="2">
  <advance width="720"/>
  <unicode hex="0127"/>
  <anchor x="361" y="0" name="bottom"/>
  <anchor x="361" y="269" name="center"/>
  <anchor x="133" y="760" name="top"/>
  <outline>
    <contour>
      <point x="-22" y="603" type="line"/>
      <point x="427" y="603" type="line"/>
      <point x="427" y="671" type="line"/>
      <point x="-22" y="671" type="line"/>
    </contour>
    <contour>
      <point x="87" y="0" type="line"/>
      <point x="180" y="0" type="line"/>
      <point x="180" y="274" type="line" smooth="yes"/>
      <point x="180" y="398"/>
      <point x="258" y="468"/>
      <point x="382" y="468" type="curve" smooth="yes"/>
      <point x="488" y="468"/>
      <point x="548" y="423"/>
      <point x="548" y="328" type="curve" smooth="yes"/>
      <point x="548" y="0" type="line"/>
      <point x="641" y="0" type="line"/>
      <point x="641" y="349" type="line" smooth="yes"/>
      <point x="641" y="485"/>
      <point x="547" y="545"/>
      <point x="404" y="545" type="curve" smooth="yes"/>
      <point x="291" y="545"/>
      <point x="218" y="514"/>
      <point x="181" y="453" type="curve"/>
      <point x="176" y="453" type="line"/>
      <point x="177" y="478"/>
      <point x="180" y="520"/>
      <point x="180" y="547" type="curve" smooth="yes"/>
      <point x="180" y="760" type="line"/>
      <point x="87" y="760" type="line"/>
    </contour>
  </outline>
</glyph>
<glyph name="idotless" format="2">
  <advance width="722"/>
  <unicode hex="0131"/>
  <anchor x="361" y="0" name="bottom"/>
  <anchor x="668" y="10" name="ogonek"/>
  <anchor x="361" y="537" name="top"/>
  <outline>
    <contour>
      <point x="89" y="0" type="line"/>
      <point x="658" y="0" type="line"/>
      <point x="658" y="63" type="line"/>
      <point x="428" y="77" type="line"/>
      <point x="428" y="537" type="line"/>
      <point x="110" y="537" type="line"/>
      <point x="110" y="472" type="line"/>
      <point x="335" y="459" type="line"/>
      <point x="335" y="77" type="line"/>
      <point x="89" y="63" type="line"/>
    </contour>
  </outline>
</glyph>
<glyph name="IJ" format="2">
  <advance width="720"/>
  <unicode hex="0132"/>
  <anchor x="361" y="0" name="bottom"/>
  <anchor x="-22" y="0" name="caret_1"/>
  <anchor x="361" y="714" name="top"/>
  <anchor x="4" y="714" name="topleft"/>
  <outline>
    <contour>
      <point x="333" y="-10" type="curve" smooth="yes"/>
      <point x="523" y="-10"/>
      <point x="610" y="73"/>
      <point x="610" y="220" type="curve" smooth="yes"/>
      <point x="610" y="714" type="line"/>
      <point x="517" y="714" type="line"/>
      <point x="517" y="232" type="line" smooth="yes"/>
      <point x="517" y="117"/>
      <point x="451" y="76"/>
      <point x="324" y="76" type="curve" smooth="yes"/>
      <point x="243" y="76"/>
      <point x="157" y="94"/>
      <point x="118" y="107" type="curve"/>
      <point x="118" y="18" type="line"/>
      <point x="163" y="2"/>
      <point x="255" y="-10"/>
    </contour>
    <contour>
      <point x="114" y="198" type="line"/>
      <point x="206" y="198" type="line"/>
      <point x="206" y="714" type="line"/>
      <point x="114" y="714" type="line"/>
    </contour>
  </outline>
</glyph>
<glyph name="ij" format="2">
  <advance width="720"/>
  <unicode hex="0133"/>
  <anchor x="369" y="-245" name="bottom"/>
  <anchor x="-22" y="0" name="caret_1"/>
  <anchor x="363" y="762" name="top"/>
  <outline>
    <contour>
      <point x="327" y="-245" type="curve" smooth="yes"/>
      <point x="495" y="-245"/>
      <point x="589" y="-178"/>
      <point x="589" y="-52" type="curve" smooth="yes"/>
      <point x="589" y="537" type="line"/>
      <point x="497" y="537" type="line"/>
      <point x="497" y="-41" type="line" smooth="yes"/>
      <point x="497" y="-126"/>
      <point x="443" y="-167"/>
      <point x="319" y="-167" type="curve" smooth="yes"/>
      <point x="262" y="-167"/>
      <point x="192" y="-158"/>
      <point x="144" y="-146" type="curve"/>
      <point x="144" y="-227" type="line"/>
      <point x="190" y="-238"/>
      <point x="262" y="-245"/>
    </contour>
    <contour>
      <point x="135" y="0" type="line"/>
      <point x="229" y="0" type="line"/>
      <point x="229" y="537" type="line"/>
      <point x="135" y="537" type="line"/>
    </contour>
    <contour>
      <point x="183" y="631" type="curve" smooth="yes"/>
      <point x="226" y="631"/>
      <point x="252" y="653"/>
      <point x="252" y="697" type="curve" smooth="yes"/>
      <point x="252" y="741"/>
      <point x="226" y="762"/>
      <point x="183" y="762" type="curve" smooth="yes"/>
      <point x="138" y="762"/>
      <point x="113" y="741"/>
      <point x="113" y="697" type="curve" smooth="yes"/>
      <point x="113" y="653"/>
      <point x="139" y="631"/>
    </contour>
    <contour>
      <point x="540" y="631" type="curve" smooth="yes"/>
      <point x="583" y="631"/>
      <point x="609" y="653"/>
      <point x="609" y="697" type="curve" smooth="yes"/>
      <point x="609" y="741"/>
      <point x="582" y="762"/>
      <point x="539" y="762" type="curve" smooth="yes"/>
      <point x="495" y="762"/>
      <point x="471" y="741"/>
      <point x="471" y="697" type="curve" smooth="yes"/>
      <point x="471" y="653"/>
      <point x="496" y="631"/>
    </contour>
  </outline>
</glyph>
<glyph name="kgreenlandic" format="2">
  <advance width="720"/>
  <unicode hex="0138"/>
  <anchor x="361" y="0" name="bottom"/>
  <anchor x="361" y="537" name="top"/>
  <outline>
    <contour>
      <point x="118" y="0" type="line"/>
      <point x="211" y="0" type="line"/>
      <point x="211" y="174" type="line"/>
      <point x="340" y="247" type="line"/>
      <point x="588" y="0" type="line"/>
      <point x="697" y="0" type="line"/>
      <point x="402" y="306" type="line"/>
      <point x="677" y="537" type="line"/>
      <point x="563" y="537" type="line"/>
      <point x="296" y="336" type="line" smooth="yes"/>
      <point x="262" y="310"/>
      <point x="237" y="285"/>
      <point x="207" y="254" type="curve"/>
      <point x="205" y="254" type="line"/>
      <point x="209" y="302"/>
      <point x="211" y="359"/>
      <point x="211" y="402" type="curve" smooth="yes"/>
      <point x="211" y="537" type="line"/>
      <point x="118" y="537" type="line"/>
    </contour>
  </outline>
</glyph>
<glyph name="Lslash" format="2">
  <advance width="720"/>
  <unicode hex="0141"/>
  <anchor x="445" y="0" name="bottom"/>
  <anchor x="231" y="714" name="top"/>
  <anchor x="536" y="714" name="topright"/>
  <anchor x="361" y="357" name="center"/>
  <outline>
    <contour>
      <point x="35" y="281" type="line"/>
      <point x="549" y="471" type="line"/>
      <point x="549" y="533" type="line"/>
      <point x="35" y="343" type="line"/>
    </contour>
    <component base="L"/>
  </outline>
</glyph>
<glyph name="lslash" format="2">
  <advance width="720"/>
  <unicode hex="0142"/>
  <anchor x="361" y="0" name="bottom"/>
  <anchor x="361" y="760" name="top"/>
  <anchor x="606" y="760" name="topright"/>
  <anchor x="382" y="383" name="center"/>
  <outline>
    <contour>
      <point x="127" y="281" type="line"/>
      <point x="641" y="471" type="line"/>
      <point x="641" y="533" type="line"/>
      <point x="127" y="343" type="line"/>
    </contour>
    <component base="l"/>
  </outline>
</glyph>
<glyph name="napostrophe" format="2">
  <advance width="720"/>
  <unicode hex="0149"/>
  <anchor x="379" y="0" name="bottom"/>
  <anchor x="379" y="537" name="top"/>
  <outline>
    <contour>
      <point x="108" y="0" type="line"/>
      <point x="202" y="0" type="line"/>
      <point x="202" y="274" type="line" smooth="yes"/>
      <point x="202" y="398"/>
      <point x="266" y="470"/>
      <point x="392" y="470" type="curve" smooth="yes"/>
      <point x="491" y="470"/>
      <point x="548" y="429"/>
      <point x="548" y="341" type="curve" smooth="yes"/>
      <point x="548" y="0" type="line"/>
      <point x="641" y="0" type="line"/>
      <point x="641" y="356" type="line" smooth="yes"/>
      <point x="641" y="487"/>
      <point x="556" y="547"/>
      <point x="418" y="547" type="curve" smooth="yes"/>
      <point x="309" y="547"/>
      <point x="238" y="519"/>
      <point x="201" y="460" type="curve"/>
      <point x="196" y="460" type="line"/>
      <point x="183" y="537" type="line"/>
      <point x="108" y="537" type="line"/>
    </contour>
    <component base="quoteright" xOffset="-364"/>
  </outline>
</glyph>
<glyph name="Eng" format="2">
  <advance width="720"/>
  <unicode hex="014A"/>
  <anchor x="399" y="-193" name="bottom"/>
  <anchor x="390" y="714" name="top"/>
  <anchor x="744" y="714" name="topright"/>
  <outline>
    <contour>
      <point x="422" y="-193" type="curve" smooth="yes"/>
      <point x="565" y="-193"/>
      <point x="649" y="-129"/>
      <point x="649" y="5" type="curve" smooth="yes"/>
      <point x="649" y="81" type="line"/>
      <point x="565" y="81" type="line"/>
      <point x="565" y="5" type="line" smooth="yes"/>
      <point x="565" y="-88"/>
      <point x="501" y="-115"/>
      <point x="416" y="-115" type="curve" smooth="yes"/>
      <point x="383" y="-115"/>
      <point x="347" y="-111"/>
      <point x="320" y="-105" type="curve"/>
      <point x="320" y="-180" type="line"/>
      <point x="343" y="-188"/>
      <point x="381" y="-193"/>
    </contour>
    <component base="N"/>
  </outline>
</glyph>
<glyph name="eng" format="2">
  <advance width="720"/>
  <unicode hex="014B"/>
  <anchor x="375" y="-240" name="bottom"/>
  <anchor x="375" y="537" name="top"/>
  <anchor x="718" y="537" name="topright"/>
  <outline>
    <contour>
      <point x="467" y="-240" type="curve" smooth="yes"/>
      <point x="580" y="-240"/>
      <point x="641" y="-179"/>
      <point x="641" y="-79" type="curve" smooth="yes"/>
      <point x="641" y="245" type="line"/>
      <point x="548" y="240" type="line"/>
      <point x="548" y="-79" type="line" smooth="yes"/>
      <point x="548" y="-143"/>
      <point x="512" y="-163"/>
      <point x="455" y="-163" type="curve" smooth="yes"/>
      <point x="425" y="-163"/>
      <point x="399" y="-160"/>
      <point x="373" y="-154" type="curve"/>
      <point x="373" y="-229" type="line"/>
      <point x="396" y="-235"/>
      <point x="427" y="-240"/>
    </contour>
    <component base="n"/>
  </outline>
</glyph>
<glyph name="OE" format="2">
  <advance width="720"/>
  <unicode hex="0152"/>
  <anchor x="361" y="0" name="bottom"/>
  <anchor x="361" y="714" name="top"/>
  <outline>
    <contour>
      <point x="314" y="-10" type="curve" smooth="yes"/>
      <point x="345" y="-10"/>
      <point x="373" y="-6"/>
      <point x="399" y="0" type="curve"/>
      <point x="706" y="0" type="line"/>
      <point x="706" y="84" type="line"/>
      <point x="459" y="84" type="line"/>
      <point x="459" y="331" type="line"/>
      <point x="685" y="331" type="line"/>
      <point x="685" y="414" type="line"/>
      <point x="459" y="414" type="line"/>
      <point x="459" y="630" type="line"/>
      <point x="706" y="630" type="line"/>
      <point x="706" y="714" type="line"/>
      <point x="412" y="714" type="line"/>
      <point x="383" y="721"/>
      <point x="353" y="724"/>
      <point x="323" y="724" type="curve" smooth="yes"/>
      <point x="106" y="724"/>
      <point x="32" y="580"/>
      <point x="32" y="359" type="curve" smooth="yes"/>
      <point x="32" y="136"/>
      <point x="116" y="-10"/>
    </contour>
    <contour>
      <point x="317" y="73" type="curve" smooth="yes"/>
      <point x="181" y="73"/>
      <point x="126" y="181"/>
      <point x="126" y="358" type="curve" smooth="yes"/>
      <point x="126" y="535"/>
      <point x="170" y="642"/>
      <point x="318" y="642" type="curve" smooth="yes"/>
      <point x="338" y="642"/>
      <point x="355" y="637"/>
      <point x="369" y="627" type="curve"/>
      <point x="369" y="88" type="line"/>
      <point x="355" y="79"/>
      <point x="337" y="73"/>
    </contour>
  </outline>
</glyph>
<glyph name="oe" format="2">
  <advance width="720"/>
  <unicode hex="0153"/>
  <anchor x="361" y="0" name="bottom"/>
  <anchor x="361" y="537" name="top"/>
  <outline>
    <contour>
      <point x="213" y="-10" type="curve" smooth="yes"/>
      <point x="298" y="-10"/>
      <point x="349" y="21"/>
      <point x="377" y="85" type="curve"/>
      <point x="408" y="19"/>
      <point x="464" y="-10"/>
      <point x="554" y="-10" type="curve" smooth="yes"/>
      <point x="601" y="-10"/>
      <point x="643" y="1"/>
      <point x="690" y="25" type="curve"/>
      <point x="690" y="99" type="line"/>
      <point x="641" y="75"/>
      <point x="601" y="62"/>
      <point x="562" y="62" type="curve" smooth="yes"/>
      <point x="468" y="62"/>
      <point x="420" y="122"/>
      <point x="418" y="251" type="curve"/>
      <point x="708" y="251" type="line"/>
      <point x="708" y="308" type="line" smooth="yes"/>
      <point x="708" y="447"/>
      <point x="656" y="547"/>
      <point x="536" y="547" type="curve" smooth="yes"/>
      <point x="458" y="547"/>
      <point x="406" y="517"/>
      <point x="377" y="453" type="curve"/>
      <point x="349" y="517"/>
      <point x="301" y="547"/>
      <point x="216" y="547" type="curve" smooth="yes"/>
      <point x="85" y="547"/>
      <point x="12" y="456"/>
      <point x="12" y="271" type="curve" smooth="yes"/>
      <point x="12" y="90"/>
      <point x="81" y="-10"/>
    </contour>
    <contour>
      <point x="216" y="64" type="curve" smooth="yes"/>
      <point x="133" y="64"/>
      <point x="94" y="133"/>
      <point x="94" y="269" type="curve" smooth="yes"/>
      <point x="94" y="406"/>
      <point x="133" y="473"/>
      <point x="218" y="473" type="curve" smooth="yes"/>
      <point x="299" y="473"/>
      <point x="333" y="406"/>
      <point x="333" y="268" type="curve" smooth="yes"/>
      <point x="333" y="130"/>
      <point x="298" y="64"/>
    </contour>
    <contour>
      <point x="419" y="319" type="line"/>
      <point x="424" y="417"/>
      <point x="469" y="476"/>
      <point x="532" y="476" type="curve" smooth="yes"/>
      <point x="599" y="476"/>
      <point x="629" y="411"/>
      <point x="629" y="319" type="curve"/>
    </contour>
  </outline>
</glyph>
<glyph name="tbar" format="2">
  <advance width="720"/>
  <unicode hex="0167"/>
  <anchor x="394" y="0" name="bottom"/>
  <anchor x="319" y="679" name="top"/>
  <anchor x="718" y="679" name="topright"/>
  <anchor x="311" y="274" name="center"/>
  <outline>
    <contour>
      <point x="61" y="276" type="line"/>
      <point x="619" y="276" type="line"/>
      <point x="619" y="344" type="line"/>
      <point x="61" y="344" type="line"/>
    </contour>
    <component base="t"/>
  </outline>
</glyph>
<glyph name="Uogonek" format="2">
  <advance width="720"/>
  <unicode hex="0172"/>
  <anchor x="389" y="-223" name="bottom"/>
  <anchor x="360" y="714" name="top"/>
  <anchor x="668" y="10" name="ogonek"/>
  <anchor x="718" y="714" name="topright"/>
  <outline>
    <contour>
      <point x="396" y="-223" type="curve" smooth="yes"/>
      <point x="426" y="-223"/>
      <point x="450" y="-218"/>
      <point x="469" y="-213" type="curve"/>
      <point x="469" y="-154" type="line"/>
      <point x="456" y="-158"/>
      <point x="434" y="-161"/>
      <point x="415" y="-161" type="curve" smooth="yes"/>
      <point x="368" y="-161"/>
      <point x="345" y="-145"/>
      <point x="345" y="-113" type="curve" smooth="yes"/>
      <point x="345" y="-65"/>
      <point x="416" y="-28"/>
      <point x="500" y="14" type="curve"/>
      <point x="448" y="29" type="line"/>
      <point x="359" y="-2"/>
      <point x="269" y="-53"/>
      <point x="269" y="-125" type="curve" smooth="yes"/>
      <point x="269" y="-183"/>
      <point x="315" y="-223"/>
    </contour>
    <component base="U"/>
  </outline>
</glyph>
<glyph name="longs" format="2">
  <advance width="720"/>
  <unicode hex="017F"/>
  <anchor x="361" y="0" name="bottom"/>
  <anchor x="499" y="765" name="top"/>
  <outline>
    <contour>
      <point x="278" y="0" type="line"/>
      <point x="370" y="0" type="line"/>
      <point x="370" y="561" type="line" smooth="yes"/>
      <point x="370" y="657"/>
      <point x="424" y="689"/>
      <point x="528" y="689" type="curve" smooth="yes"/>
      <point x="570" y="689"/>
      <point x="608" y="681"/>
      <point x="636" y="674" type="curve"/>
      <point x="658" y="747" type="line"/>
      <point x="624" y="757"/>
      <point x="579" y="765"/>
      <point x="526" y="765" type="curve" smooth="yes"/>
      <point x="369" y="765"/>
      <point x="278" y="711"/>
      <point x="278" y="575" type="curve" smooth="yes"/>
    </contour>
  </outline>
</glyph>
<glyph name="uni0181" format="2">
  <advance width="720"/>
  <unicode hex="0181"/>
  <anchor x="389" y="0" name="bottom"/>
  <anchor x="389" y="714" name="top"/>
  <outline>
    <contour>
      <point x="173" y="0" type="line"/>
      <point x="392" y="0" type="line" smooth="yes"/>
      <point x="587" y="0"/>
      <point x="699" y="77"/>
      <point x="699" y="206" type="curve" smooth="yes"/>
      <point x="699" y="316"/>
      <point x="627" y="359"/>
      <point x="505" y="374" type="curve"/>
      <point x="505" y="379" type="line"/>
      <point x="613" y="393"/>
      <point x="674" y="448"/>
      <point x="674" y="539" type="curve" smooth="yes"/>
      <point x="674" y="665"/>
      <point x="570" y="714"/>
      <point x="365" y="714" type="curve" smooth="yes"/>
      <point x="173" y="714" type="line"/>
    </contour>
    <contour>
      <point x="262" y="81" type="line"/>
      <point x="262" y="333" type="line"/>
      <point x="372" y="333" type="line" smooth="yes"/>
      <point x="541" y="333"/>
      <point x="604" y="285"/>
      <point x="604" y="208" type="curve" smooth="yes"/>
      <point x="604" y="132"/>
      <point x="532" y="81"/>
      <point x="378" y="81" type="curve" smooth="yes"/>
    </contour>
    <contour>
      <point x="3" y="526" type="curve"/>
      <point x="84" y="526" type="line"/>
      <point x="80" y="535"/>
      <point x="72" y="558"/>
      <point x="72" y="582" type="curve" smooth="yes"/>
      <point x="72" y="614"/>
      <point x="100" y="634"/>
      <point x="161" y="634" type="curve" smooth="yes"/>
      <point x="193" y="634" type="line"/>
      <point x="193" y="714" type="line"/>
      <point x="162" y="714" type="line" smooth="yes"/>
      <point x="46" y="714"/>
      <point x="-10" y="669"/>
      <point x="-10" y="584" type="curve" smooth="yes"/>
      <point x="-10" y="563"/>
      <point x="-4" y="538"/>
    </contour>
    <contour>
      <point x="262" y="413" type="line"/>
      <point x="262" y="633" type="line"/>
      <point x="355" y="633" type="line" smooth="yes"/>
      <point x="526" y="633"/>
      <point x="580" y="602"/>
      <point x="580" y="526" type="curve" smooth="yes"/>
      <point x="580" y="451"/>
      <point x="517" y="413"/>
      <point x="371" y="413" type="curve" smooth="yes"/>
    </contour>
  </outline>
</glyph>
<glyph name="uni0183" format="2">
  <advance width="720"/>
  <unicode hex="0183"/>
  <anchor x="361" y="0" name="bottom"/>
  <anchor x="361" y="760" name="top"/>
  <anchor x="696" y="760" name="topright"/>
  <outline>
    <contour>
      <point x="134" y="683" type="line"/>
      <point x="588" y="683" type="line"/>
      <point x="588" y="760" type="line"/>
      <point x="135" y="760" type="line"/>
    </contour>
    <component base="b" xOffset="-22"/>
  </outline>
</glyph>
<glyph name="uni0184" format="2">
  <advance width="720"/>
  <unicode hex="0184"/>
  <anchor x="361" y="0" name="bottom"/>
  <anchor x="361" y="760" name="top"/>
  <outline>
    <contour>
      <point x="379" y="-11" type="curve" smooth="yes"/>
      <point x="569" y="-11"/>
      <point x="667" y="85"/>
      <point x="667" y="208" type="curve" smooth="yes"/>
      <point x="667" y="328"/>
      <point x="578" y="417"/>
      <point x="374" y="417" type="curve" smooth="yes"/>
      <point x="195" y="417" type="line"/>
      <point x="195" y="714" type="line"/>
      <point x="103" y="714" type="line"/>
      <point x="103" y="210" type="line" smooth="yes"/>
      <point x="103" y="73"/>
      <point x="189" y="-11"/>
    </contour>
    <contour>
      <point x="383" y="72" type="curve" smooth="yes"/>
      <point x="261" y="72"/>
      <point x="195" y="120"/>
      <point x="195" y="218" type="curve" smooth="yes"/>
      <point x="195" y="338" type="line"/>
      <point x="356" y="338" type="line" smooth="yes"/>
      <point x="513" y="338"/>
      <point x="573" y="293"/>
      <point x="573" y="208" type="curve" smooth="yes"/>
      <point x="573" y="122"/>
      <point x="511" y="72"/>
    </contour>
  </outline>
</glyph>
<glyph name="uni0185" format="2">
  <advance width="720"/>
  <unicode hex="0185"/>
  <anchor x="361" y="0" name="bottom"/>
  <anchor x="361" y="760" name="top"/>
  <outline>
    <contour>
      <point x="372" y="-10" type="curve" smooth="yes"/>
      <point x="566" y="-10"/>
      <point x="669" y="85"/>
      <point x="669" y="269" type="curve" smooth="yes"/>
      <point x="669" y="453"/>
      <point x="566" y="546"/>
      <point x="396" y="546" type="curve" smooth="yes"/>
      <point x="288" y="546"/>
      <point x="212" y="512"/>
      <point x="178" y="466" type="curve"/>
      <point x="173" y="466" type="line"/>
      <point x="176" y="492"/>
      <point x="178" y="533"/>
      <point x="178" y="576" type="curve" smooth="yes"/>
      <point x="178" y="760" type="line"/>
      <point x="87" y="760" type="line"/>
      <point x="87" y="266" type="line" smooth="yes"/>
      <point x="87" y="76"/>
      <point x="191" y="-10"/>
    </contour>
    <contour>
      <point x="373" y="67" type="curve" smooth="yes"/>
      <point x="248" y="67"/>
      <point x="178" y="121"/>
      <point x="178" y="264" type="curve" smooth="yes"/>
      <point x="178" y="273" type="line" smooth="yes"/>
      <point x="178" y="407"/>
      <point x="247" y="469"/>
      <point x="378" y="469" type="curve" smooth="yes"/>
      <point x="509" y="469"/>
      <point x="574" y="404"/>
      <point x="574" y="269" type="curve" smooth="yes"/>
      <point x="574" y="133"/>
      <point x="506" y="67"/>
    </contour>
  </outline>
</glyph>
<glyph name="uni0187" format="2">
  <advance width="720"/>
  <unicode hex="0187"/>
  <anchor x="432" y="0" name="bottom"/>
  <anchor x="432" y="862" name="top"/>
  <anchor x="696" y="714" name="topright"/>
  <outline>
    <contour>
      <point x="605" y="684" type="line"/>
      <point x="686" y="684" type="line"/>
      <point x="686" y="734" type="line" smooth="yes"/>
      <point x="686" y="769"/>
      <point x="710" y="784"/>
      <point x="752" y="784" type="curve" smooth="yes"/>
      <point x="780" y="784"/>
      <point x="805" y="777"/>
      <point x="818" y="773" type="curve"/>
      <point x="818" y="849" type="line"/>
      <point x="803" y="855"/>
      <point x="776" y="862"/>
      <point x="742" y="862" type="curve" smooth="yes"/>
      <point x="656" y="862"/>
      <point x="605" y="818"/>
      <point x="605" y="730" type="curve" smooth="yes"/>
    </contour>
    <component base="C" xOffset="-22"/>
  </outline>
</glyph>
<glyph name="uni0188" format="2">
  <advance width="720"/>
  <unicode hex="0188"/>
  <anchor x="361" y="0" name="bottom"/>
  <anchor x="361" y="766" name="top"/>
  <anchor x="696" y="537" name="topright"/>
  <outline>
    <contour>
      <point x="547" y="512" type="line"/>
      <point x="627" y="512" type="line"/>
      <point x="627" y="637" type="line" smooth="yes"/>
      <point x="627" y="672"/>
      <point x="652" y="687"/>
      <point x="696" y="687" type="curve" smooth="yes"/>
      <point x="724" y="687"/>
      <point x="746" y="681"/>
      <point x="758" y="677" type="curve"/>
      <point x="758" y="753" type="line"/>
      <point x="743" y="759"/>
      <point x="720" y="766"/>
      <point x="687" y="766" type="curve" smooth="yes"/>
      <point x="596" y="766"/>
      <point x="547" y="721"/>
      <point x="547" y="631" type="curve" smooth="yes"/>
    </contour>
    <component base="c" xOffset="-22"/>
  </outline>
</glyph>
<glyph name="uni018A" format="2">
  <advance width="720"/>
  <unicode hex="018A"/>
  <anchor x="361" y="0" name="bottom"/>
  <anchor x="361" y="714" name="top"/>
  <outline>
    <contour>
      <point x="167" y="0" type="line"/>
      <point x="318" y="0" type="line" smooth="yes"/>
      <point x="575" y="0"/>
      <point x="688" y="124"/>
      <point x="688" y="365" type="curve" smooth="yes"/>
      <point x="688" y="593"/>
      <point x="585" y="714"/>
      <point x="338" y="714" type="curve" smooth="yes"/>
      <point x="167" y="714" type="line"/>
    </contour>
    <contour>
      <point x="259" y="82" type="line"/>
      <point x="259" y="632" type="line"/>
      <point x="325" y="632" type="line" smooth="yes"/>
      <point x="527" y="632"/>
      <point x="593" y="549"/>
      <point x="593" y="362" type="curve" smooth="yes"/>
      <point x="593" y="175"/>
      <point x="520" y="82"/>
      <point x="318" y="82" type="curve" smooth="yes"/>
    </contour>
    <contour>
      <point x="3" y="526" type="curve"/>
      <point x="84" y="526" type="line"/>
      <point x="79" y="535"/>
      <point x="72" y="557"/>
      <point x="72" y="582" type="curve" smooth="yes"/>
      <point x="72" y="613"/>
      <point x="100" y="633"/>
      <point x="161" y="633" type="curve" smooth="yes"/>
      <point x="193" y="633" type="line"/>
      <point x="193" y="714" type="line"/>
      <point x="162" y="714" type="line" smooth="yes"/>
      <point x="46" y="714"/>
      <point x="-10" y="669"/>
      <point x="-10" y="584" type="curve" smooth="yes"/>
      <point x="-10" y="563"/>
      <point x="-4" y="538"/>
    </contour>
  </outline>
</glyph>
<glyph name="uni018C" format="2">
  <advance width="720"/>
  <unicode hex="018C"/>
  <anchor x="361" y="0" name="bottom"/>
  <anchor x="377" y="760" name="top"/>
  <anchor x="696" y="760" name="topright"/>
  <anchor x="339" y="269" name="center"/>
  <outline>
    <contour>
      <point x="128" y="684" type="line"/>
      <point x="590" y="684" type="line"/>
      <point x="590" y="760" type="line"/>
      <point x="128" y="760" type="line"/>
    </contour>
    <component base="d" xOffset="-22"/>
  </outline>
</glyph>
<glyph name="uni0191" format="2">
  <advance width="720"/>
  <unicode hex="0191"/>
  <anchor x="358" y="-194" name="bottom"/>
  <anchor x="379" y="714" name="top"/>
  <outline>
    <contour>
      <point x="27" y="-194" type="curve" smooth="yes"/>
      <point x="129" y="-194"/>
      <point x="196" y="-147"/>
      <point x="196" y="-30" type="curve" smooth="yes"/>
      <point x="196" y="301" type="line"/>
      <point x="614" y="301" type="line"/>
      <point x="614" y="384" type="line"/>
      <point x="196" y="384" type="line"/>
      <point x="196" y="630" type="line"/>
      <point x="638" y="630" type="line"/>
      <point x="638" y="714" type="line"/>
      <point x="103" y="714" type="line"/>
      <point x="103" y="-23" type="line" smooth="yes"/>
      <point x="103" y="-91"/>
      <point x="73" y="-114"/>
      <point x="17" y="-114" type="curve" smooth="yes"/>
      <point x="-10" y="-114"/>
      <point x="-32" y="-110"/>
      <point x="-52" y="-104" type="curve"/>
      <point x="-52" y="-182" type="line"/>
      <point x="-31" y="-190"/>
      <point x="-7" y="-194"/>
    </contour>
  </outline>
</glyph>
<glyph name="florin" format="2">
  <advance width="720"/>
  <unicode hex="0192"/>
  <anchor x="340" y="-240" name="bottom"/>
  <anchor x="463" y="725" name="top"/>
  <outline>
    <contour>
      <point x="206" y="-240" type="curve" smooth="yes"/>
      <point x="334" y="-240"/>
      <point x="391" y="-187"/>
      <point x="391" y="-56" type="curve" smooth="yes"/>
      <point x="391" y="404" type="line"/>
      <point x="568" y="404" type="line"/>
      <point x="568" y="476" type="line"/>
      <point x="390" y="476" type="line"/>
      <point x="390" y="542" type="line" smooth="yes"/>
      <point x="390" y="622"/>
      <point x="430" y="649"/>
      <point x="516" y="649" type="curve" smooth="yes"/>
      <point x="555" y="649"/>
      <point x="592" y="641"/>
      <point x="621" y="634" type="curve"/>
      <point x="644" y="704" type="line"/>
      <point x="606" y="715"/>
      <point x="562" y="725"/>
      <point x="509" y="725" type="curve" smooth="yes"/>
      <point x="369" y="725"/>
      <point x="299" y="677"/>
      <point x="299" y="541" type="curve" smooth="yes"/>
      <point x="299" y="479" type="line"/>
      <point x="153" y="450" type="line"/>
      <point x="153" y="404" type="line"/>
      <point x="298" y="404" type="line"/>
      <point x="298" y="-63" type="line" smooth="yes"/>
      <point x="298" y="-137"/>
      <point x="267" y="-164"/>
      <point x="195" y="-164" type="curve" smooth="yes"/>
      <point x="165" y="-164"/>
      <point x="134" y="-160"/>
      <point x="107" y="-155" type="curve"/>
      <point x="107" y="-231" type="line"/>
      <point x="130" y="-236"/>
      <point x="165" y="-240"/>
    </contour>
  </outline>
</glyph>
<glyph name="uni0193" format="2">
  <advance width="720"/>
  <unicode hex="0193"/>
  <anchor x="371" y="0" name="bottom"/>
  <anchor x="371" y="862" name="top"/>
  <anchor x="696" y="714" name="topright"/>
  <outline>
    <contour>
      <point x="560" y="682" type="line"/>
      <point x="641" y="682" type="line"/>
      <point x="641" y="733" type="line" smooth="yes"/>
      <point x="641" y="769"/>
      <point x="665" y="783"/>
      <point x="707" y="783" type="curve" smooth="yes"/>
      <point x="735" y="783"/>
      <point x="761" y="777"/>
      <point x="773" y="773" type="curve"/>
      <point x="773" y="849" type="line"/>
      <point x="758" y="855"/>
      <point x="731" y="862"/>
      <point x="698" y="862" type="curve" smooth="yes"/>
      <point x="610" y="862"/>
      <point x="560" y="818"/>
      <point x="560" y="730" type="curve" smooth="yes"/>
    </contour>
    <component base="G" xOffset="-22"/>
  </outline>
</glyph>
<glyph name="uni0194" format="2">
  <advance width="720"/>
  <unicode hex="0194"/>
  <anchor x="361" y="-240" name="bottom"/>
  <anchor x="361" y="714" name="top"/>
  <outline>
    <contour>
      <point x="361" y="-240" type="curve" smooth="yes"/>
      <point x="459" y="-240"/>
      <point x="512" y="-183"/>
      <point x="512" y="-104" type="curve" smooth="yes"/>
      <point x="512" y="-34"/>
      <point x="462" y="43"/>
      <point x="407" y="128" type="curve"/>
      <point x="696" y="714" type="line"/>
      <point x="598" y="714" type="line"/>
      <point x="409" y="337" type="line" smooth="yes"/>
      <point x="392" y="302"/>
      <point x="375" y="255"/>
      <point x="361" y="219" type="curve"/>
      <point x="349" y="253"/>
      <point x="331" y="302"/>
      <point x="315" y="335" type="curve" smooth="yes"/>
      <point x="122" y="714" type="line"/>
      <point x="26" y="714" type="line"/>
      <point x="315" y="123" type="line"/>
      <point x="259" y="50"/>
      <point x="210" y="-33"/>
      <point x="210" y="-105" type="curve" smooth="yes"/>
      <point x="210" y="-184"/>
      <point x="265" y="-240"/>
    </contour>
    <contour>
      <point x="363" y="-165" type="curve" smooth="yes"/>
      <point x="320" y="-165"/>
      <point x="291" y="-146"/>
      <point x="291" y="-103" type="curve" smooth="yes"/>
      <point x="291" y="-62"/>
      <point x="319" y="-14"/>
      <point x="361" y="37" type="curve"/>
      <point x="401" y="-13"/>
      <point x="431" y="-61"/>
      <point x="431" y="-105" type="curve" smooth="yes"/>
      <point x="431" y="-147"/>
      <point x="404" y="-165"/>
    </contour>
  </outline>
</glyph>
<glyph name="uni0195" format="2">
  <advance width="720"/>
  <unicode hex="0195"/>
  <anchor x="363" y="0" name="bottom"/>
  <anchor x="98" y="760" name="top"/>
  <outline>
    <contour>
      <point x="501" y="-11" type="curve" smooth="yes"/>
      <point x="611" y="-11"/>
      <point x="678" y="43"/>
      <point x="678" y="134" type="curve" smooth="yes"/>
      <point x="678" y="537" type="line"/>
      <point x="594" y="537" type="line"/>
      <point x="594" y="136" type="line" smooth="yes"/>
      <point x="594" y="86"/>
      <point x="558" y="65"/>
      <point x="501" y="65" type="curve" smooth="yes"/>
      <point x="443" y="65"/>
      <point x="408" y="84"/>
      <point x="408" y="145" type="curve" smooth="yes"/>
      <point x="408" y="404" type="line" smooth="yes"/>
      <point x="408" y="510"/>
      <point x="355" y="547"/>
      <point x="266" y="547" type="curve" smooth="yes"/>
      <point x="196" y="547"/>
      <point x="156" y="525"/>
      <point x="137" y="486" type="curve"/>
      <point x="131" y="486" type="line"/>
      <point x="135" y="510"/>
      <point x="137" y="536"/>
      <point x="137" y="565" type="curve" smooth="yes"/>
      <point x="137" y="760" type="line"/>
      <point x="53" y="760" type="line"/>
      <point x="53" y="0" type="line"/>
      <point x="137" y="0" type="line"/>
      <point x="137" y="339" type="line" smooth="yes"/>
      <point x="137" y="442"/>
      <point x="178" y="472"/>
      <point x="244" y="472" type="curve" smooth="yes"/>
      <point x="292" y="472"/>
      <point x="325" y="449"/>
      <point x="325" y="385" type="curve" smooth="yes"/>
      <point x="325" y="143" type="line" smooth="yes"/>
      <point x="325" y="28"/>
      <point x="399" y="-11"/>
    </contour>
  </outline>
</glyph>
<glyph name="uni0197" format="2">
  <advance width="720"/>
  <unicode hex="0197"/>
  <anchor x="361" y="0" name="bottom"/>
  <anchor x="361" y="714" name="top"/>
  <anchor x="-18" y="714" name="topleft"/>
  <anchor x="415" y="10" name="ogonek"/>
  <anchor x="696" y="714" name="topright"/>
  <outline>
    <contour>
      <point x="153" y="334" type="line"/>
      <point x="570" y="334" type="line"/>
      <point x="570" y="413" type="line"/>
      <point x="153" y="413" type="line"/>
    </contour>
    <component base="I" xOffset="-22"/>
  </outline>
</glyph>
<glyph name="uni0198" format="2">
  <advance width="720"/>
  <unicode hex="0198"/>
  <anchor x="361" y="0" name="bottom"/>
  <anchor x="361" y="714" name="top"/>
  <outline>
    <contour>
      <point x="73" y="0" type="line"/>
      <point x="165" y="0" type="line"/>
      <point x="165" y="243" type="line"/>
      <point x="279" y="327" type="line"/>
      <point x="575" y="0" type="line"/>
      <point x="681" y="0" type="line"/>
      <point x="343" y="392" type="line"/>
      <point x="559" y="592" type="line" smooth="yes"/>
      <point x="604" y="633"/>
      <point x="631" y="642"/>
      <point x="663" y="642" type="curve" smooth="yes"/>
      <point x="682" y="642"/>
      <point x="704" y="639"/>
      <point x="715" y="637" type="curve"/>
      <point x="715" y="712" type="line"/>
      <point x="701" y="717"/>
      <point x="682" y="721"/>
      <point x="654" y="721" type="curve" smooth="yes"/>
      <point x="590" y="721"/>
      <point x="549" y="704"/>
      <point x="481" y="643" type="curve" smooth="yes"/>
      <point x="256" y="449" type="line" smooth="yes"/>
      <point x="218" y="413"/>
      <point x="194" y="374"/>
      <point x="165" y="340" type="curve"/>
      <point x="165" y="714" type="line"/>
      <point x="73" y="714" type="line"/>
    </contour>
  </outline>
</glyph>
<glyph name="uni0199" format="2">
  <advance width="720"/>
  <unicode hex="0199"/>
  <anchor x="361" y="0" name="bottom"/>
  <anchor x="361" y="765" name="top"/>
  <outline>
    <contour>
      <point x="118" y="0" type="line"/>
      <point x="211" y="0" type="line"/>
      <point x="211" y="174" type="line"/>
      <point x="340" y="247" type="line"/>
      <point x="588" y="0" type="line"/>
      <point x="697" y="0" type="line"/>
      <point x="402" y="306" type="line"/>
      <point x="677" y="537" type="line"/>
      <point x="563" y="537" type="line"/>
      <point x="297" y="336" type="line" smooth="yes"/>
      <point x="263" y="311"/>
      <point x="237" y="285"/>
      <point x="207" y="254" type="curve"/>
      <point x="205" y="254" type="line"/>
      <point x="209" y="302"/>
      <point x="211" y="359"/>
      <point x="211" y="402" type="curve" smooth="yes"/>
      <point x="211" y="624" type="line" smooth="yes"/>
      <point x="211" y="669"/>
      <point x="239" y="685"/>
      <point x="294" y="685" type="curve" smooth="yes"/>
      <point x="318" y="685"/>
      <point x="340" y="680"/>
      <point x="354" y="676" type="curve"/>
      <point x="354" y="753" type="line"/>
      <point x="337" y="759"/>
      <point x="309" y="765"/>
      <point x="282" y="765" type="curve" smooth="yes"/>
      <point x="176" y="765"/>
      <point x="118" y="716"/>
      <point x="118" y="622" type="curve" smooth="yes"/>
    </contour>
  </outline>
</glyph>
<glyph name="uni019A" format="2">
  <advance width="720"/>
  <unicode hex="019A"/>
  <anchor x="361" y="0" name="bottom"/>
  <anchor x="361" y="760" name="top"/>
  <anchor x="584" y="760" name="topright"/>
  <anchor x="360" y="383" name="center"/>
  <outline>
    <contour>
      <point x="147" y="349" type="line"/>
      <point x="612" y="349" type="line"/>
      <point x="612" y="418" type="line"/>
      <point x="147" y="418" type="line"/>
    </contour>
    <component base="l" xOffset="-22"/>
  </outline>
</glyph>
<glyph name="uni019C" format="2">
  <advance width="720"/>
  <unicode hex="019C"/>
  <anchor x="361" y="0" name="bottom"/>
  <anchor x="361" y="357" name="center"/>
  <anchor x="361" y="714" name="top"/>
  <anchor x="4" y="714" name="topleft"/>
  <outline>
    <contour>
      <point x="184" y="-10" type="curve" smooth="yes"/>
      <point x="260" y="-10"/>
      <point x="300" y="16"/>
      <point x="328" y="65" type="curve"/>
      <point x="333" y="65" type="line"/>
      <point x="349" y="16"/>
      <point x="385" y="-10"/>
      <point x="460" y="-10" type="curve" smooth="yes"/>
      <point x="532" y="-10"/>
      <point x="570" y="8"/>
      <point x="597" y="58" type="curve"/>
      <point x="602" y="58" type="line"/>
      <point x="615" y="0" type="line"/>
      <point x="680" y="0" type="line"/>
      <point x="680" y="714" type="line"/>
      <point x="595" y="714" type="line"/>
      <point x="595" y="247" type="line" smooth="yes"/>
      <point x="595" y="142"/>
      <point x="568" y="70"/>
      <point x="486" y="70" type="curve" smooth="yes"/>
      <point x="425" y="70"/>
      <point x="402" y="112"/>
      <point x="402" y="186" type="curve" smooth="yes"/>
      <point x="402" y="714" type="line"/>
      <point x="317" y="714" type="line"/>
      <point x="317" y="245" type="line" smooth="yes"/>
      <point x="317" y="132"/>
      <point x="281" y="70"/>
      <point x="209" y="70" type="curve" smooth="yes"/>
      <point x="149" y="70"/>
      <point x="127" y="112"/>
      <point x="127" y="186" type="curve" smooth="yes"/>
      <point x="127" y="714" type="line"/>
      <point x="42" y="714" type="line"/>
      <point x="42" y="171" type="line" smooth="yes"/>
      <point x="42" y="46"/>
      <point x="87" y="-10"/>
    </contour>
  </outline>
</glyph>
<glyph name="uni019D" format="2">
  <advance width="720"/>
  <unicode hex="019D"/>
  <anchor x="363" y="-195" name="bottom"/>
  <anchor x="363" y="714" name="top"/>
  <anchor x="722" y="714" name="topright"/>
  <outline>
    <contour>
      <point x="6" y="-195" type="curve" smooth="yes"/>
      <point x="105" y="-195"/>
      <point x="162" y="-146"/>
      <point x="162" y="-29" type="curve" smooth="yes"/>
      <point x="162" y="179" type="line"/>
      <point x="73" y="174" type="line"/>
      <point x="73" y="-23" type="line" smooth="yes"/>
      <point x="73" y="-94"/>
      <point x="48" y="-118"/>
      <point x="-4" y="-118" type="curve" smooth="yes"/>
      <point x="-28" y="-118"/>
      <point x="-50" y="-114"/>
      <point x="-69" y="-108" type="curve"/>
      <point x="-69" y="-182" type="line"/>
      <point x="-50" y="-190"/>
      <point x="-26" y="-195"/>
    </contour>
    <component base="N" xOffset="-22"/>
  </outline>
</glyph>
<glyph name="uni01A2" format="2">
  <advance width="720"/>
  <unicode hex="01A2"/>
  <anchor x="138" y="0" name="bottom"/>
  <anchor x="144" y="10" name="ogonek"/>
  <anchor x="410" y="714" name="top"/>
  <anchor x="-206" y="714" name="topleft"/>
  <anchor x="1028" y="714" name="topright"/>
  <outline>
    <contour>
      <point x="137" y="-10" type="curve" smooth="yes"/>
      <point x="391" y="-10"/>
      <point x="516" y="139"/>
      <point x="516" y="360" type="curve" smooth="yes"/>
      <point x="516" y="565"/>
      <point x="407" y="725"/>
      <point x="143" y="725" type="curve" smooth="yes"/>
      <point x="-105" y="725"/>
      <point x="-242" y="586"/>
      <point x="-242" y="357" type="curve" smooth="yes"/>
      <point x="-242" y="142"/>
      <point x="-119" y="-10"/>
    </contour>
    <contour>
      <point x="138" y="72" type="curve" smooth="yes"/>
      <point x="-53" y="72"/>
      <point x="-144" y="177"/>
      <point x="-144" y="357" type="curve" smooth="yes"/>
      <point x="-144" y="538"/>
      <point x="-51" y="642"/>
      <point x="140" y="642" type="curve" smooth="yes"/>
      <point x="325" y="642"/>
      <point x="417" y="539"/>
      <point x="417" y="359" type="curve" smooth="yes"/>
      <point x="417" y="176"/>
      <point x="328" y="72"/>
    </contour>
    <contour>
      <point x="871" y="0" type="line"/>
      <point x="964" y="0" type="line"/>
      <point x="964" y="479" type="line" smooth="yes"/>
      <point x="964" y="648"/>
      <point x="865" y="725"/>
      <point x="689" y="725" type="curve" smooth="yes"/>
      <point x="559" y="725"/>
      <point x="469" y="682"/>
      <point x="404" y="621" type="curve"/>
      <point x="440" y="571" type="line"/>
      <point x="483" y="606"/>
      <point x="563" y="643"/>
      <point x="668" y="643" type="curve" smooth="yes"/>
      <point x="801" y="643"/>
      <point x="871" y="588"/>
      <point x="871" y="461" type="curve" smooth="yes"/>
    </contour>
  </outline>
</glyph>
<glyph name="uni01A3" format="2">
  <advance width="720"/>
  <unicode hex="01A3"/>
  <anchor x="227" y="0" name="bottom"/>
  <anchor x="227" y="277" name="center"/>
  <anchor x="232" y="10" name="ogonek"/>
  <anchor x="363" y="537" name="top"/>
  <outline>
    <contour>
      <point x="585" y="-240" type="line"/>
      <point x="674" y="-240" type="line"/>
      <point x="674" y="403" type="line" smooth="yes"/>
      <point x="674" y="511"/>
      <point x="618" y="549"/>
      <point x="531" y="549" type="curve" smooth="yes"/>
      <point x="447" y="549"/>
      <point x="409" y="513"/>
      <point x="385" y="480" type="curve"/>
      <point x="355" y="527"/>
      <point x="304" y="549"/>
      <point x="230" y="549" type="curve" smooth="yes"/>
      <point x="88" y="549"/>
      <point x="25" y="461"/>
      <point x="25" y="270" type="curve" smooth="yes"/>
      <point x="25" y="89"/>
      <point x="91" y="-10"/>
      <point x="229" y="-10" type="curve" smooth="yes"/>
      <point x="372" y="-10"/>
      <point x="433" y="90"/>
      <point x="433" y="270" type="curve" smooth="yes"/>
      <point x="433" y="327"/>
      <point x="425" y="389"/>
      <point x="411" y="428" type="curve"/>
      <point x="429" y="451"/>
      <point x="456" y="472"/>
      <point x="507" y="472" type="curve" smooth="yes"/>
      <point x="558" y="472"/>
      <point x="585" y="450"/>
      <point x="585" y="396" type="curve" smooth="yes"/>
    </contour>
    <contour>
      <point x="230" y="65" type="curve" smooth="yes"/>
      <point x="149" y="65"/>
      <point x="114" y="121"/>
      <point x="114" y="270" type="curve" smooth="yes"/>
      <point x="114" y="420"/>
      <point x="147" y="474"/>
      <point x="229" y="474" type="curve" smooth="yes"/>
      <point x="312" y="474"/>
      <point x="344" y="420"/>
      <point x="344" y="270" type="curve" smooth="yes"/>
      <point x="344" y="119"/>
      <point x="309" y="65"/>
    </contour>
  </outline>
</glyph>
<glyph name="uni01A4" format="2">
  <advance width="720"/>
  <unicode hex="01A4"/>
  <anchor x="398" y="0" name="bottom"/>
  <anchor x="398" y="714" name="top"/>
  <outline>
    <contour>
      <point x="178" y="0" type="line"/>
      <point x="270" y="0" type="line"/>
      <point x="270" y="274" type="line"/>
      <point x="363" y="274" type="line" smooth="yes"/>
      <point x="580" y="274"/>
      <point x="673" y="381"/>
      <point x="673" y="504" type="curve" smooth="yes"/>
      <point x="673" y="638"/>
      <point x="578" y="714"/>
      <point x="379" y="714" type="curve" smooth="yes"/>
      <point x="177" y="714" type="line" smooth="yes"/>
      <point x="60" y="714"/>
      <point x="4" y="667"/>
      <point x="4" y="578" type="curve" smooth="yes"/>
      <point x="4" y="555"/>
      <point x="10" y="527"/>
      <point x="17" y="512" type="curve"/>
      <point x="98" y="512" type="line"/>
      <point x="93" y="522"/>
      <point x="86" y="547"/>
      <point x="86" y="574" type="curve" smooth="yes"/>
      <point x="86" y="610"/>
      <point x="112" y="634"/>
      <point x="178" y="634" type="curve"/>
    </contour>
    <contour>
      <point x="270" y="355" type="line"/>
      <point x="270" y="634" type="line"/>
      <point x="371" y="634" type="line" smooth="yes"/>
      <point x="512" y="634"/>
      <point x="578" y="589"/>
      <point x="578" y="499" type="curve" smooth="yes"/>
      <point x="578" y="396"/>
      <point x="495" y="355"/>
      <point x="353" y="355" type="curve" smooth="yes"/>
    </contour>
  </outline>
</glyph>
<glyph name="uni01A5" format="2">
  <advance width="720"/>
  <unicode hex="01A5"/>
  <anchor x="387" y="-240" name="bottom"/>
  <anchor x="387" y="765" name="top"/>
  <outline>
    <contour>
      <point x="87" y="-240" type="line"/>
      <point x="180" y="-240" type="line"/>
      <point x="180" y="-12" type="line" smooth="yes"/>
      <point x="180" y="12"/>
      <point x="178" y="44"/>
      <point x="173" y="68" type="curve"/>
      <point x="180" y="68" type="line"/>
      <point x="218" y="25"/>
      <point x="286" y="-10"/>
      <point x="396" y="-10" type="curve" smooth="yes"/>
      <point x="565" y="-10"/>
      <point x="670" y="87"/>
      <point x="670" y="270" type="curve" smooth="yes"/>
      <point x="670" y="450"/>
      <point x="571" y="547"/>
      <point x="402" y="547" type="curve" smooth="yes"/>
      <point x="287" y="547"/>
      <point x="216" y="515"/>
      <point x="180" y="464" type="curve"/>
      <point x="175" y="464" type="line"/>
      <point x="178" y="493"/>
      <point x="180" y="521"/>
      <point x="180" y="551" type="curve" smooth="yes"/>
      <point x="180" y="625" type="line" smooth="yes"/>
      <point x="180" y="671"/>
      <point x="210" y="686"/>
      <point x="264" y="686" type="curve" smooth="yes"/>
      <point x="292" y="686"/>
      <point x="317" y="681"/>
      <point x="333" y="677" type="curve"/>
      <point x="333" y="753" type="line"/>
      <point x="315" y="759"/>
      <point x="284" y="765"/>
      <point x="251" y="765" type="curve" smooth="yes"/>
      <point x="144" y="765"/>
      <point x="87" y="716"/>
      <point x="87" y="622" type="curve" smooth="yes"/>
    </contour>
    <contour>
      <point x="377" y="67" type="curve" smooth="yes"/>
      <point x="242" y="67"/>
      <point x="180" y="143"/>
      <point x="180" y="270" type="curve" smooth="yes"/>
      <point x="180" y="289" type="line" smooth="yes"/>
      <point x="180" y="406"/>
      <point x="246" y="470"/>
      <point x="382" y="470" type="curve" smooth="yes"/>
      <point x="513" y="470"/>
      <point x="575" y="405"/>
      <point x="575" y="271" type="curve" smooth="yes"/>
      <point x="575" y="136"/>
      <point x="508" y="67"/>
    </contour>
  </outline>
</glyph>
<glyph name="uni01A6" format="2">
  <advance width="720"/>
  <unicode hex="01A6"/>
  <anchor x="393" y="-98" name="bottom"/>
  <anchor x="393" y="714" name="top"/>
  <outline>
    <contour>
      <point x="599" y="-100" type="line"/>
      <point x="708" y="-100" type="line"/>
      <point x="451" y="218" type="line"/>
      <point x="573" y="247"/>
      <point x="645" y="304"/>
      <point x="645" y="412" type="curve" smooth="yes"/>
      <point x="645" y="547"/>
      <point x="532" y="614"/>
      <point x="309" y="614" type="curve" smooth="yes"/>
      <point x="195" y="614" type="line"/>
      <point x="195" y="714" type="line"/>
      <point x="102" y="714" type="line"/>
      <point x="102" y="0" type="line"/>
      <point x="195" y="0" type="line"/>
      <point x="195" y="194" type="line"/>
      <point x="364" y="194" type="line"/>
    </contour>
    <contour>
      <point x="195" y="274" type="line"/>
      <point x="195" y="533" type="line"/>
      <point x="304" y="533" type="line" smooth="yes"/>
      <point x="467" y="533"/>
      <point x="550" y="496"/>
      <point x="550" y="407" type="curve" smooth="yes"/>
      <point x="550" y="317"/>
      <point x="469" y="274"/>
      <point x="325" y="274" type="curve" smooth="yes"/>
    </contour>
  </outline>
</glyph>
<glyph name="uni01AA" format="2">
  <advance width="720"/>
  <unicode hex="01AA"/>
  <anchor x="369" y="-240" name="bottom"/>
  <anchor x="369" y="770" name="top"/>
  <outline>
    <contour>
      <point x="536" y="-240" type="curve" smooth="yes"/>
      <point x="583" y="-240"/>
      <point x="630" y="-232"/>
      <point x="664" y="-217" type="curve"/>
      <point x="664" y="-144" type="line"/>
      <point x="631" y="-155"/>
      <point x="592" y="-164"/>
      <point x="548" y="-164" type="curve" smooth="yes"/>
      <point x="455" y="-164"/>
      <point x="416" y="-126"/>
      <point x="416" y="-62" type="curve" smooth="yes"/>
      <point x="416" y="612" type="line" smooth="yes"/>
      <point x="416" y="716"/>
      <point x="351" y="766"/>
      <point x="232" y="766" type="curve" smooth="yes"/>
      <point x="107" y="766"/>
      <point x="52" y="708"/>
      <point x="52" y="651" type="curve" smooth="yes"/>
      <point x="52" y="583"/>
      <point x="110" y="532"/>
      <point x="236" y="532" type="curve" smooth="yes"/>
      <point x="324" y="532" type="line"/>
      <point x="324" y="-63" type="line" smooth="yes"/>
      <point x="324" y="-194"/>
      <point x="401" y="-240"/>
    </contour>
    <contour>
      <point x="241" y="603" type="line" smooth="yes"/>
      <point x="173" y="603"/>
      <point x="136" y="620"/>
      <point x="136" y="649" type="curve" smooth="yes"/>
      <point x="136" y="677"/>
      <point x="165" y="694"/>
      <point x="226" y="694" type="curve" smooth="yes"/>
      <point x="294" y="694"/>
      <point x="324" y="665"/>
      <point x="324" y="622" type="curve" smooth="yes"/>
      <point x="324" y="603" type="line"/>
    </contour>
  </outline>
</glyph>
<glyph name="uni01AB" format="2">
  <advance width="720"/>
  <unicode hex="01AB"/>
  <anchor x="471" y="-240" name="bottom"/>
  <anchor x="361" y="679" name="top"/>
  <anchor x="696" y="679" name="topright"/>
  <anchor x="289" y="274" name="center"/>
  <outline>
    <contour>
      <point x="480" y="-240" type="curve" smooth="yes"/>
      <point x="577" y="-240"/>
      <point x="629" y="-192"/>
      <point x="629" y="-102" type="curve" smooth="yes"/>
      <point x="629" y="46" type="line"/>
      <point x="545" y="22" type="line"/>
      <point x="545" y="-104" type="line" smooth="yes"/>
      <point x="545" y="-146"/>
      <point x="517" y="-162"/>
      <point x="469" y="-162" type="curve" smooth="yes"/>
      <point x="443" y="-162"/>
      <point x="420" y="-157"/>
      <point x="403" y="-153" type="curve"/>
      <point x="403" y="-229" type="line"/>
      <point x="420" y="-234"/>
      <point x="447" y="-240"/>
    </contour>
    <component base="t" xOffset="-22"/>
  </outline>
</glyph>
<glyph name="uni01AC" format="2">
  <advance width="720"/>
  <unicode hex="01AC"/>
  <anchor x="362" y="0" name="bottom"/>
  <anchor x="362" y="714" name="top"/>
  <outline>
    <contour>
      <point x="311" y="0" type="line"/>
      <point x="405" y="0" type="line"/>
      <point x="405" y="631" type="line"/>
      <point x="692" y="631" type="line"/>
      <point x="692" y="714" type="line"/>
      <point x="197" y="714" type="line" smooth="yes"/>
      <point x="65" y="714"/>
      <point x="9" y="665"/>
      <point x="9" y="580" type="curve" smooth="yes"/>
      <point x="9" y="561"/>
      <point x="16" y="537"/>
      <point x="23" y="524" type="curve"/>
      <point x="106" y="524" type="line"/>
      <point x="100" y="533"/>
      <point x="92" y="555"/>
      <point x="92" y="577" type="curve" smooth="yes"/>
      <point x="92" y="610"/>
      <point x="125" y="631"/>
      <point x="205" y="631" type="curve" smooth="yes"/>
      <point x="311" y="631" type="line"/>
    </contour>
  </outline>
</glyph>
<glyph name="uni01AD" format="2">
  <advance width="720"/>
  <unicode hex="01AD"/>
  <anchor x="361" y="0" name="bottom"/>
  <anchor x="361" y="765" name="top"/>
  <outline>
    <contour>
      <point x="495" y="-10" type="curve" smooth="yes"/>
      <point x="547" y="-10"/>
      <point x="590" y="-3"/>
      <point x="629" y="6" type="curve"/>
      <point x="629" y="82" type="line"/>
      <point x="592" y="74"/>
      <point x="547" y="67"/>
      <point x="506" y="67" type="curve" smooth="yes"/>
      <point x="397" y="67"/>
      <point x="355" y="99"/>
      <point x="355" y="177" type="curve" smooth="yes"/>
      <point x="355" y="459" type="line"/>
      <point x="626" y="459" type="line"/>
      <point x="626" y="537" type="line"/>
      <point x="356" y="537" type="line"/>
      <point x="356" y="618" type="line" smooth="yes"/>
      <point x="356" y="665"/>
      <point x="383" y="685"/>
      <point x="441" y="685" type="curve" smooth="yes"/>
      <point x="471" y="685"/>
      <point x="505" y="680"/>
      <point x="524" y="676" type="curve"/>
      <point x="524" y="753" type="line"/>
      <point x="504" y="759"/>
      <point x="471" y="765"/>
      <point x="437" y="765" type="curve" smooth="yes"/>
      <point x="326" y="765"/>
      <point x="262" y="711"/>
      <point x="262" y="611" type="curve" smooth="yes"/>
      <point x="262" y="539" type="line"/>
      <point x="61" y="519" type="line"/>
      <point x="61" y="459" type="line"/>
      <point x="262" y="459" type="line"/>
      <point x="262" y="160" type="line" smooth="yes"/>
      <point x="262" y="30"/>
      <point x="346" y="-10"/>
    </contour>
  </outline>
</glyph>
